<?xml version="1.0" encoding="utf-8"?>
<!-- Generator: Adobe Illustrator 16.0.0, SVG Export Plug-In . SVG Version: 6.00 Build 0)  -->
<!DOCTYPE svg PUBLIC "-//W3C//DTD SVG 1.1//EN" "http://www.w3.org/Graphics/SVG/1.1/DTD/svg11.dtd">
<svg version="1.1" xmlns="http://www.w3.org/2000/svg" xmlns:xlink="http://www.w3.org/1999/xlink" x="0px" y="0px" width="500px"
	 height="265px" viewBox="0 0 500 265" enable-background="new 0 0 500 265" xml:space="preserve">
<g id="Layer_2" display="none">
	<rect display="inline" fill="#4D4E54" width="500" height="265"/>
</g>
<g id="Layer_1">
	<g>
		<defs>
			<rect id="SVGID_1_" x="11.244" y="12.227" width="494.679" height="167.365"/>
		</defs>
		<clipPath id="SVGID_2_">
			<use xlink:href="#SVGID_1_"  overflow="visible"/>
		</clipPath>
		<g opacity="0.1" clip-path="url(#SVGID_2_)">
			<g>
				<defs>
					<rect id="SVGID_3_" x="244.414" y="71.523" width="261.509" height="108.069"/>
				</defs>
				<clipPath id="SVGID_4_">
					<use xlink:href="#SVGID_3_"  overflow="visible"/>
				</clipPath>
				<g clip-path="url(#SVGID_4_)">
					<defs>
						<rect id="SVGID_5_" x="244.414" y="71.523" width="261.509" height="108.069"/>
					</defs>
					<clipPath id="SVGID_6_">
						<use xlink:href="#SVGID_5_"  overflow="visible"/>
					</clipPath>
					<defs>
						<filter id="Adobe_OpacityMaskFilter" filterUnits="userSpaceOnUse" x="244.414" y="71.523" width="261.509" height="108.069">
							<feColorMatrix  type="matrix" values="1 0 0 0 0  0 1 0 0 0  0 0 1 0 0  0 0 0 1 0"/>
						</filter>
					</defs>
					<mask maskUnits="userSpaceOnUse" x="244.414" y="71.523" width="261.509" height="108.069" id="SVGID_7_">
						<g filter="url(#Adobe_OpacityMaskFilter)">
							<rect x="244.414" y="71.523" clip-path="url(#SVGID_6_)" width="261.509" height="108.069"/>
							<g enable-background="new    ">
								<g>
									<defs>
										<rect id="SVGID_8_" x="244.414" y="71.523" width="261.509" height="108.069"/>
									</defs>
									<clipPath id="SVGID_9_" clip-path="url(#SVGID_6_)">
										<use xlink:href="#SVGID_8_"  overflow="visible"/>
									</clipPath>
									<g>
										<defs>
											
												<rect id="SVGID_10_" x="257.667" y="-13.203" transform="matrix(-0.5548 -0.832 0.832 -0.5548 478.8708 507.3481)" width="235.006" height="277.522"/>
										</defs>
										<clipPath id="SVGID_11_" clip-path="url(#SVGID_9_)">
											<use xlink:href="#SVGID_10_"  overflow="visible"/>
										</clipPath>
										
											<linearGradient id="SVGID_12_" gradientUnits="userSpaceOnUse" x1="1.9795" y1="163.1421" x2="4.3615" y2="163.1421" gradientTransform="matrix(24.2252 36.3242 -36.3242 24.2252 6233.1646 -3928.5752)">
											<stop  offset="0" style="stop-color:#FFFFFF"/>
											<stop  offset="0.9139" style="stop-color:#000000"/>
											<stop  offset="0.926" style="stop-color:#000000"/>
											<stop  offset="1" style="stop-color:#000000"/>
										</linearGradient>
										<polygon clip-path="url(#SVGID_11_)" fill="url(#SVGID_12_)" points="33.2,58.403 305.751,467.075 717.139,192.714 
											444.588,-215.959 										"/>
									</g>
								</g>
							</g>
						</g>
					</mask>
					<g clip-path="url(#SVGID_6_)" mask="url(#SVGID_7_)">
						<g>
							<defs>
								<rect id="SVGID_13_" x="244.414" y="71.523" width="261.509" height="108.069"/>
							</defs>
							<clipPath id="SVGID_14_">
								<use xlink:href="#SVGID_13_"  overflow="visible"/>
							</clipPath>
							<polygon clip-path="url(#SVGID_14_)" points="343.902,177.21 503.541,173.866 412.147,91.53 246.801,73.908 							"/>
						</g>
					</g>
				</g>
			</g>
		</g>
	</g>
	<rect x="11.444" y="116.126" fill="#FFFFFF" width="208.997" height="62.654"/>
	<rect x="17.14" y="123.331" width="6.03" height="6.029"/>
	<rect x="29.202" y="123.331" width="6.031" height="6.029"/>
	<rect x="41.264" y="123.331" width="6.028" height="6.029"/>
	<rect x="53.326" y="123.331" width="6.029" height="6.029"/>
	<rect x="17.14" y="129.36" width="6.03" height="6.032"/>
	<rect x="35.232" y="129.36" width="6.031" height="6.032"/>
	<rect x="41.264" y="129.36" width="6.028" height="6.032"/>
	<rect x="47.292" y="129.36" width="6.032" height="6.032"/>
	<rect x="59.352" y="129.36" width="6.032" height="6.032"/>
	<rect x="17.14" y="135.392" width="6.03" height="6.029"/>
	<rect x="35.232" y="135.392" width="6.031" height="6.029"/>
	<rect x="47.292" y="135.392" width="6.032" height="6.029"/>
	<rect x="53.326" y="135.392" width="6.029" height="6.029"/>
	<rect x="17.14" y="141.423" width="6.03" height="6.029"/>
	<rect x="23.17" y="141.423" width="6.032" height="6.029"/>
	<rect x="23.17" y="135.392" width="6.032" height="6.029"/>
	<rect x="29.202" y="141.423" width="6.031" height="6.029"/>
	<rect x="41.264" y="141.423" width="6.028" height="6.029"/>
	<rect x="47.292" y="141.423" width="6.032" height="6.029"/>
	<rect x="53.326" y="141.423" width="6.029" height="6.029"/>
	<rect x="59.352" y="141.423" width="6.032" height="6.029"/>
	<rect x="17.14" y="147.453" width="6.03" height="6.031"/>
	<rect x="29.202" y="147.453" width="6.031" height="6.031"/>
	<rect x="35.232" y="147.453" width="6.031" height="6.031"/>
	<rect x="41.264" y="147.453" width="6.028" height="6.031"/>
	<rect x="17.14" y="153.484" width="6.03" height="6.029"/>
	<rect x="23.17" y="153.484" width="6.032" height="6.029"/>
	<rect x="35.232" y="153.484" width="6.031" height="6.029"/>
	<rect x="47.292" y="153.484" width="6.032" height="6.029"/>
	<rect x="59.352" y="153.484" width="6.032" height="6.029"/>
	<rect x="17.14" y="159.513" width="6.03" height="6.027"/>
	<rect x="41.264" y="159.513" width="6.028" height="6.027"/>
	<rect x="53.326" y="159.513" width="6.029" height="6.027"/>
	<rect x="17.14" y="165.541" width="6.03" height="6.034"/>
	<rect x="23.17" y="165.541" width="6.032" height="6.034"/>
	<rect x="29.202" y="165.541" width="6.031" height="6.034"/>
	<rect x="35.232" y="165.541" width="6.031" height="6.034"/>
	<rect x="41.264" y="165.541" width="6.028" height="6.034"/>
	<rect x="47.292" y="165.541" width="6.032" height="6.034"/>
	<rect x="53.326" y="165.541" width="6.029" height="6.034"/>
	<rect x="59.352" y="165.541" width="6.032" height="6.034"/>
	<polygon fill="#F37974" points="260.12,88.176 220.099,108.804 125.698,108.804 44.51,108.804 42.885,111.616 121.808,111.616 
		220.78,111.616 261.408,90.678 	"/>
	<polygon fill="#FFFFFF" points="11.443,108.804 11.443,111.619 42.885,111.619 41.263,108.804 	"/>
	<rect x="11.244" y="46.008" fill="#F37974" width="124.647" height="2.811"/>
	<polygon fill="#F37974" points="277.089,99.663 239.015,80.619 245.268,77.078 247.969,78.712 245,80.463 276.933,96.438 
		280.381,94.279 283.188,95.845 	"/>
	<polygon fill="#DCDDDE" points="307.663,12.226 245.88,43.117 358.645,99.506 420.431,68.613 	"/>
	<polygon fill="#FFFFFF" points="358.645,99.504 358.645,130.211 245.88,73.825 245.88,43.119 	"/>
	<polygon fill="#54AFD1" points="420.654,68.497 358.645,99.504 358.645,130.209 420.654,99.209 	"/>
	<polygon fill="#1392C4" points="386.396,51.563 324.606,82.458 352.815,96.56 414.6,65.667 	"/>
	<polygon fill="#0D76BD" points="392.225,54.507 330.44,85.397 358.645,99.504 420.429,68.61 	"/>
	<polygon fill="#54AFD1" points="324.633,82.47 324.633,113.177 352.815,127.269 352.815,96.562 	"/>
	<polygon fill="#1392C4" points="330.462,85.412 330.462,116.12 358.645,130.211 358.645,99.504 	"/>
	<polygon fill="#0D76BD" points="304.828,22.976 268.822,40.979 285.263,49.195 321.262,31.194 	"/>
	<polygon points="285.416,71.899 285.416,74.36 268.822,66.064 268.822,63.603 	"/>
	<polygon points="285.416,75.69 285.416,78.152 268.822,69.855 268.822,67.395 	"/>
	<polygon points="274.953,74.301 274.953,76.762 268.824,73.646 268.824,71.188 	"/>
	<polygon points="274.953,78.063 274.953,80.523 268.824,77.409 268.824,74.947 	"/>
	<polygon fill="none" stroke="#000000" stroke-width="0.134" stroke-miterlimit="10" points="288.782,69.877 288.782,91.108 
		248.903,71.159 248.903,49.931 	"/>
	<polygon points="251.646,56.565 253.477,57.458 253.477,55.634 251.646,54.736 	"/>
	<polygon points="255.305,58.355 257.133,59.249 257.133,57.424 255.305,56.528 	"/>
	<polygon points="258.962,60.147 260.79,61.041 260.79,59.213 258.962,58.316 	"/>
	<polygon points="262.618,61.94 264.446,62.833 264.446,61.006 262.618,60.11 	"/>
	<polygon points="251.646,58.396 253.477,59.289 253.477,57.462 251.646,56.562 	"/>
	<polygon points="257.133,61.082 258.962,61.975 258.962,60.147 257.133,59.248 	"/>
	<polygon points="258.962,61.978 260.79,62.869 260.79,61.044 258.962,60.144 	"/>
	<polygon points="260.79,62.872 262.618,63.765 262.618,61.938 260.79,61.04 	"/>
	<polygon points="264.446,64.664 266.274,65.555 266.274,63.73 264.446,62.832 	"/>
	<polygon points="251.646,60.222 253.477,61.115 253.477,59.291 251.646,58.393 	"/>
	<polygon points="257.133,62.909 258.962,63.802 258.962,61.977 257.133,61.079 	"/>
	<polygon points="260.79,64.701 262.618,65.591 262.618,63.767 260.79,62.869 	"/>
	<polygon points="262.618,65.594 264.446,66.49 264.446,64.66 262.618,63.765 	"/>
	<polygon points="251.646,62.053 253.477,62.946 253.477,61.119 251.646,60.218 	"/>
	<polygon points="253.477,62.949 255.305,63.84 255.305,62.013 253.477,61.115 	"/>
	<polygon points="253.477,61.119 255.305,62.01 255.305,60.185 253.477,59.289 	"/>
	<polygon points="255.305,63.843 257.133,64.736 257.133,62.909 255.305,62.008 	"/>
	<polygon points="258.962,65.632 260.79,66.528 260.79,64.7 258.962,63.801 	"/>
	<polygon points="260.79,66.532 262.618,67.422 262.618,65.595 260.79,64.697 	"/>
	<polygon points="262.618,67.425 264.446,68.318 264.446,66.491 262.618,65.591 	"/>
	<polygon points="264.446,68.321 266.274,69.215 266.274,67.388 264.446,66.49 	"/>
	<polygon points="251.646,63.881 253.477,64.772 253.477,62.948 251.646,62.05 	"/>
	<polygon points="255.305,65.672 257.133,66.562 257.133,64.738 255.305,63.84 	"/>
	<polygon points="257.133,66.565 258.962,67.458 258.962,65.634 257.133,64.736 	"/>
	<polygon points="258.962,67.462 260.79,68.355 260.79,66.528 258.962,65.63 	"/>
	<polygon points="251.646,65.71 253.477,66.602 253.477,64.774 251.646,63.878 	"/>
	<polygon points="253.477,66.604 255.305,67.497 255.305,65.67 253.477,64.77 	"/>
	<polygon points="257.133,68.396 258.962,69.287 258.962,67.462 257.133,66.562 	"/>
	<polygon points="260.79,70.186 262.618,71.082 262.618,69.252 260.79,68.354 	"/>
	<polygon points="264.446,71.978 266.274,72.869 266.274,71.044 264.446,70.144 	"/>
	<polygon points="251.646,67.539 253.477,68.432 253.477,66.605 251.646,65.707 	"/>
	<polygon points="258.962,71.119 260.79,72.012 260.79,70.187 258.962,69.287 	"/>
	<polygon points="262.618,72.909 264.446,73.802 264.446,71.975 262.618,71.082 	"/>
	<polygon points="251.646,69.367 253.477,70.26 253.477,68.436 251.646,67.535 	"/>
	<polygon points="253.477,70.264 255.305,71.155 255.305,69.33 253.477,68.432 	"/>
	<polygon points="255.305,71.157 257.133,72.05 257.133,70.223 255.305,69.325 	"/>
	<polygon points="257.133,72.054 258.962,72.945 258.962,71.12 257.133,70.222 	"/>
	<polygon points="258.962,72.947 260.79,73.84 260.79,72.017 258.962,71.115 	"/>
	<polygon points="260.79,73.844 262.618,74.737 262.618,72.91 260.79,72.012 	"/>
	<polygon points="262.618,74.739 264.446,75.632 264.446,73.805 262.618,72.905 	"/>
	<polygon points="264.446,75.636 266.274,76.529 266.274,74.702 264.446,73.802 	"/>
	<g>
		<path fill="#FFFFFF" d="M20.843,101.218V60.256h9.012v40.962H20.843z"/>
		<path fill="#FFFFFF" d="M57.184,101.862c-11.001,0-17.73-6.144-17.73-18.199V60.256h9.012v23.173
			c0,6.671,3.335,10.123,8.836,10.123s8.836-3.335,8.836-9.831V60.256h9.012v23.115C75.149,95.776,68.186,101.862,57.184,101.862z"
			/>
		<path fill="#FFFFFF" d="M116.351,101.218V74.476l-11.528,17.497h-0.234L93.177,74.651v26.567h-8.836V60.256h9.714l10.767,17.321
			l10.768-17.321h9.714v40.962H116.351z"/>
	</g>
	<g>
		<path d="M84.202,130.669l-4.04-5.303v5.303h-1.812v-8.342h1.692l3.909,5.136v-5.136h1.812v8.342H84.202z"/>
		<path d="M89.07,125.926c-1.049,0-1.823-0.798-1.823-1.823s0.798-1.835,1.847-1.835c1.048,0,1.823,0.798,1.823,1.823
			S90.119,125.926,89.07,125.926z M87.366,127.368v-0.786h3.432v0.786H87.366z M89.07,123.126c-0.524,0-0.846,0.441-0.846,0.965
			s0.346,0.977,0.87,0.977c0.524,0,0.846-0.441,0.846-0.965S89.595,123.126,89.07,123.126z"/>
		<path d="M98.944,130.789c-1.263,0-2.538-0.441-3.539-1.334l1.084-1.299c0.75,0.62,1.537,1.013,2.49,1.013
			c0.751,0,1.204-0.298,1.204-0.787v-0.024c0-0.465-0.286-0.703-1.681-1.061c-1.68-0.429-2.765-0.894-2.765-2.55v-0.024
			c0-1.513,1.215-2.514,2.92-2.514c1.215,0,2.252,0.381,3.098,1.061l-0.953,1.382c-0.739-0.513-1.466-0.822-2.169-0.822
			s-1.073,0.322-1.073,0.727v0.023c0,0.548,0.357,0.727,1.8,1.097c1.692,0.441,2.646,1.049,2.646,2.502v0.024
			C102.007,129.859,100.744,130.789,98.944,130.789z"/>
		<path d="M103.6,130.669v-8.342h6.292v1.632h-4.47v1.692h3.934v1.633h-3.934v1.751h4.529v1.633H103.6z"/>
		<path d="M116.643,130.669L114.855,128h-1.442v2.669h-1.835v-8.342h3.813c1.967,0,3.146,1.037,3.146,2.752v0.024
			c0,1.347-0.728,2.193-1.788,2.586l2.038,2.979H116.643z M116.679,125.176c0-0.787-0.548-1.192-1.442-1.192h-1.823v2.396h1.859
			c0.894,0,1.406-0.477,1.406-1.18V125.176z"/>
		<path d="M120.272,130.669v-8.342h1.836v8.342H120.272z"/>
		<path d="M130.399,130.669l-0.763-1.871h-3.527l-0.763,1.871h-1.871l3.575-8.401h1.692l3.575,8.401H130.399z M127.873,124.473
			l-1.108,2.705h2.217L127.873,124.473z"/>
		<path d="M133.6,130.669v-8.342h1.835v6.673h4.159v1.668H133.6z"/>
		<path d="M140.77,126.188v-1.907h1.931v1.907H140.77z M140.77,130.669v-1.907h1.931v1.907H140.77z"/>
	</g>
	<g>
		<path d="M80.186,137.095v1.775h3.98v1.669h-3.98v3.229h-1.835v-8.342h6.352v1.668H80.186z"/>
	</g>
	<g>
		<path d="M91.431,143.769l-0.763-1.871h-3.527l-0.763,1.871h-1.871l3.575-8.401h1.692l3.575,8.401H91.431z M88.904,137.572
			l-1.108,2.705h2.216L88.904,137.572z"/>
		<path d="M98.599,143.769H94.63v-8.342h3.873c1.704,0,2.753,0.846,2.753,2.156v0.024c0,0.941-0.5,1.466-1.096,1.8
			c0.965,0.369,1.561,0.93,1.561,2.049v0.024C101.721,143.006,100.482,143.769,98.599,143.769z M99.433,137.894
			c0-0.549-0.429-0.858-1.204-0.858h-1.812v1.765h1.692c0.81,0,1.323-0.263,1.323-0.883V137.894z M99.898,141.23
			c0-0.56-0.417-0.904-1.359-0.904h-2.121v1.835h2.181c0.811,0,1.299-0.286,1.299-0.906V141.23z"/>
		<path d="M108.294,143.769l-1.788-2.67h-1.441v2.67h-1.836v-8.342h3.814c1.966,0,3.146,1.037,3.146,2.752v0.024
			c0,1.347-0.727,2.192-1.787,2.586l2.037,2.979H108.294z M108.33,138.275c0-0.786-0.549-1.191-1.442-1.191h-1.823v2.396h1.859
			c0.894,0,1.406-0.477,1.406-1.18V138.275z"/>
		<path d="M111.923,143.769v-8.342h1.836v8.342H111.923z"/>
		<path d="M119.75,143.912c-2.455,0-4.278-1.895-4.278-4.289v-0.024c0-2.372,1.787-4.313,4.35-4.313
			c1.573,0,2.515,0.523,3.289,1.287l-1.168,1.346c-0.644-0.584-1.299-0.941-2.133-0.941c-1.406,0-2.42,1.168-2.42,2.598v0.024
			c0,1.431,0.989,2.622,2.42,2.622c0.953,0,1.537-0.382,2.192-0.978l1.168,1.18C122.312,143.34,121.358,143.912,119.75,143.912z"/>
	</g>
	<g>
		<path d="M130.841,143.769l-0.763-1.871h-3.527l-0.763,1.871h-1.871l3.575-8.401h1.692l3.575,8.401H130.841z M128.314,137.572
			l-1.108,2.705h2.217L128.314,137.572z"/>
	</g>
	<g>
		<path d="M133.147,139.61c0-2.384,1.787-4.325,4.35-4.325c1.573,0,2.515,0.523,3.289,1.287l-1.168,1.346
			c-0.644-0.584-1.299-0.941-2.133-0.941c-1.406,0-2.42,1.168-2.42,2.609c0,1.443,0.989,2.635,2.42,2.635
			c0.953,0,1.537-0.382,2.192-0.978l1.168,1.18c-0.799,0.858-1.681,1.406-3.11,1.478l-0.774,1.931l-1.514-0.632l0.953-1.406
			C134.482,143.352,133.147,141.671,133.147,139.61z"/>
	</g>
	<g>
		<path d="M148.515,143.769l-0.763-1.871h-3.527l-0.763,1.871h-1.871l3.575-8.401h1.692l3.575,8.401H148.515z M146.989,134.771
			c-0.739,0-1.358-0.465-1.788-0.465c-0.369,0-0.512,0.203-0.679,0.584l-0.966-0.297c0.274-1.002,0.644-1.645,1.479-1.645
			c0.738,0,1.358,0.465,1.787,0.465c0.369,0,0.513-0.203,0.68-0.584l0.965,0.297C148.192,134.128,147.823,134.771,146.989,134.771z
			 M145.988,137.572l-1.108,2.705h2.217L145.988,137.572z"/>
	</g>
	<g>
		<path d="M155.242,143.912c-2.574,0-4.421-1.918-4.421-4.289v-0.024c0-2.372,1.871-4.313,4.445-4.313
			c2.573,0,4.421,1.918,4.421,4.289v0.024C159.688,141.969,157.816,143.912,155.242,143.912z M157.769,139.598
			c0-1.431-1.049-2.622-2.526-2.622s-2.503,1.168-2.503,2.598v0.024c0,1.431,1.049,2.622,2.527,2.622
			c1.478,0,2.502-1.168,2.502-2.598V139.598z"/>
		<path d="M161.111,139.289v-1.907h1.931v1.907H161.111z M161.111,143.769v-1.906h1.931v1.906H161.111z"/>
	</g>
	<g>
		<path d="M81.604,156.871h-3.253v-8.342h3.253c2.622,0,4.433,1.799,4.433,4.146v0.024
			C86.037,155.047,84.226,156.871,81.604,156.871z M84.119,152.7c0-1.478-1.013-2.515-2.515-2.515h-1.418v5.029h1.418
			c1.501,0,2.515-1.014,2.515-2.491V152.7z"/>
	</g>
	<g>
		<path d="M93.276,156.871L92.514,155h-3.527l-0.763,1.871h-1.871l3.575-8.401h1.692l3.575,8.401H93.276z M90.75,150.673
			l-1.108,2.705h2.216L90.75,150.673z"/>
		<path d="M99.182,150.221v6.649h-1.835v-6.649h-2.538v-1.692h6.912v1.692H99.182z"/>
	</g>
	<g>
		<path d="M108.259,156.871L107.496,155h-3.527l-0.763,1.871h-1.871l3.575-8.401h1.691l3.576,8.401H108.259z M105.732,150.673
			l-1.108,2.705h2.216L105.732,150.673z"/>
		<path d="M118.285,156.871h-3.254v-8.342h3.254c2.621,0,4.433,1.799,4.433,4.146v0.024
			C122.718,155.047,120.906,156.871,118.285,156.871z M120.799,152.7c0-1.478-1.013-2.515-2.514-2.515h-1.419v5.029h1.419
			c1.501,0,2.514-1.014,2.514-2.491V152.7z"/>
		<path d="M124.345,156.871v-8.342h6.292v1.633h-4.469v1.691h3.933v1.633h-3.933v1.752h4.528v1.633H124.345z"/>
	</g>
	<g>
		<path d="M140.176,156.93h-1.621l-3.372-8.401h2.025l2.182,5.875l2.181-5.875h1.978L140.176,156.93z"/>
	</g>
	<g>
		<path d="M149.849,156.871L149.086,155h-3.527l-0.763,1.871h-1.871l3.575-8.401h1.692l3.575,8.401H149.849z M147.322,150.673
			l-1.108,2.705h2.217L147.322,150.673z"/>
		<path d="M153.048,156.871v-8.342h1.835v6.674h4.159v1.668H153.048z"/>
		<path d="M160.503,156.871v-8.342h1.836v8.342H160.503z"/>
	</g>
	<g>
		<path d="M167.675,156.871h-3.254v-8.342h3.254c2.621,0,4.433,1.799,4.433,4.146v0.024
			C172.107,155.047,170.296,156.871,167.675,156.871z M170.188,152.7c0-1.478-1.013-2.515-2.514-2.515h-1.419v5.029h1.419
			c1.501,0,2.514-1.014,2.514-2.491V152.7z"/>
	</g>
	<g>
		<path d="M179.349,156.871L178.586,155h-3.527l-0.763,1.871h-1.871l3.575-8.401h1.692l3.575,8.401H179.349z M176.822,150.673
			l-1.108,2.705h2.217L176.822,150.673z"/>
		<path d="M185.802,156.871h-3.254v-8.342h3.254c2.621,0,4.433,1.799,4.433,4.146v0.024
			C190.234,155.047,188.423,156.871,185.802,156.871z M188.315,152.7c0-1.478-1.013-2.515-2.514-2.515h-1.419v5.029h1.419
			c1.501,0,2.514-1.014,2.514-2.491V152.7z"/>
		<path d="M191.861,156.871v-8.342h6.292v1.633h-4.469v1.691h3.933v1.633h-3.933v1.752h4.528v1.633H191.861z"/>
		<path d="M199.639,152.39v-1.907h1.931v1.907H199.639z M199.639,156.871v-1.906h1.931v1.906H199.639z"/>
	</g>
	<g>
		<path d="M84.202,169.972l-4.04-5.303v5.303h-1.812v-8.342h1.692l3.909,5.136v-5.136h1.812v8.342H84.202z"/>
		<path d="M89.07,165.229c-1.049,0-1.823-0.798-1.823-1.823c0-1.024,0.798-1.835,1.847-1.835c1.048,0,1.823,0.798,1.823,1.823
			C90.917,164.418,90.119,165.229,89.07,165.229z M87.366,166.671v-0.787h3.432v0.787H87.366z M89.07,162.428
			c-0.524,0-0.846,0.441-0.846,0.966s0.346,0.978,0.87,0.978c0.524,0,0.846-0.441,0.846-0.966S89.595,162.428,89.07,162.428z"/>
	</g>
	<g>
		<path d="M95.976,169.972v-8.342h1.835v6.674h4.159v1.668H95.976z"/>
	</g>
	<g>
		<path d="M106.936,170.115c-2.574,0-4.421-1.918-4.421-4.29v-0.023c0-2.372,1.87-4.314,4.444-4.314s4.422,1.919,4.422,4.29v0.024
			C111.381,168.172,109.51,170.115,106.936,170.115z M109.462,165.801c0-1.43-1.049-2.622-2.526-2.622s-2.502,1.168-2.502,2.598
			v0.024c0,1.43,1.049,2.622,2.525,2.622c1.479,0,2.503-1.168,2.503-2.599V165.801z"/>
	</g>
	<g>
		<path d="M116.438,163.323v6.649h-1.835v-6.649h-2.538v-1.692h6.912v1.692H116.438z"/>
		<path d="M120.379,169.972v-8.342h6.292v1.633h-4.469v1.691h3.933v1.633h-3.933v1.752h4.528v1.633H120.379z"/>
		<path d="M128.156,165.492v-1.907h1.931v1.907H128.156z M128.156,169.972v-1.906h1.931v1.906H128.156z"/>
	</g>
	<rect x="11.244" y="12.226" fill="none" width="494.679" height="167.366"/>
	<g>
		<path fill="#FFFFFF" d="M591.416,424.118v-1.987c-0.219,0.293-0.46,0.573-0.727,0.841c-0.266,0.268-0.563,0.503-0.89,0.707
			s-0.692,0.363-1.095,0.478c-0.402,0.115-0.849,0.172-1.339,0.172c-0.642,0-1.262-0.114-1.862-0.344
			c-0.6-0.229-1.139-0.563-1.615-1.003c-0.478-0.44-0.859-0.979-1.146-1.615s-0.43-1.363-0.43-2.179s0.144-1.542,0.43-2.179
			s0.668-1.176,1.146-1.615c0.477-0.439,1.016-0.776,1.615-1.013c0.601-0.235,1.221-0.354,1.862-0.354c0.49,0,0.94,0.058,1.35,0.172
			c0.409,0.115,0.777,0.268,1.104,0.459c0.327,0.19,0.624,0.414,0.89,0.669s0.501,0.522,0.706,0.803v-5.963h1.575v13.951H591.416z
			 M591.16,417.609c-0.212-0.47-0.498-0.868-0.859-1.198s-0.771-0.586-1.227-0.771c-0.457-0.184-0.932-0.275-1.422-0.275
			c-0.519,0-1.003,0.086-1.452,0.257c-0.45,0.171-0.843,0.418-1.177,0.741s-0.6,0.723-0.798,1.198
			c-0.197,0.476-0.296,1.011-0.296,1.606c0,0.584,0.099,1.109,0.296,1.579c0.198,0.469,0.468,0.871,0.809,1.207
			s0.736,0.593,1.187,0.771c0.449,0.178,0.927,0.266,1.432,0.266c0.49,0,0.965-0.092,1.422-0.275c0.456-0.184,0.865-0.44,1.227-0.77
			c0.361-0.33,0.647-0.732,0.859-1.208c0.211-0.476,0.317-0.998,0.317-1.569C591.478,418.597,591.371,418.078,591.16,417.609z"/>
		<path fill="#FFFFFF" d="M606.674,421.165c-0.279,0.631-0.664,1.183-1.155,1.653c-0.491,0.472-1.077,0.845-1.759,1.118
			c-0.683,0.273-1.419,0.411-2.209,0.411c-0.791,0-1.521-0.138-2.189-0.411s-1.247-0.644-1.738-1.108s-0.873-1.01-1.146-1.634
			c-0.273-0.624-0.409-1.287-0.409-1.988c0-0.7,0.136-1.366,0.409-1.997c0.272-0.63,0.654-1.182,1.146-1.652
			c0.491-0.472,1.074-0.845,1.749-1.118c0.675-0.274,1.414-0.411,2.219-0.411c0.791,0,1.524,0.137,2.199,0.411
			c0.675,0.273,1.258,0.644,1.749,1.108s0.872,1.01,1.146,1.634c0.272,0.624,0.409,1.287,0.409,1.987
			C607.094,419.869,606.953,420.535,606.674,421.165z M605.181,417.69c-0.197-0.47-0.474-0.88-0.828-1.229
			c-0.354-0.349-0.771-0.626-1.248-0.829s-0.995-0.305-1.554-0.305c-0.573,0-1.099,0.099-1.575,0.295
			c-0.478,0.197-0.884,0.471-1.218,0.82s-0.597,0.756-0.787,1.22c-0.191,0.464-0.286,0.963-0.286,1.497
			c0,0.533,0.099,1.035,0.296,1.506c0.198,0.471,0.471,0.877,0.818,1.22c0.348,0.344,0.761,0.616,1.238,0.82
			c0.477,0.203,0.995,0.305,1.554,0.305c0.573,0,1.098-0.099,1.575-0.295c0.478-0.197,0.887-0.468,1.228-0.811
			c0.341-0.344,0.606-0.747,0.798-1.211c0.19-0.464,0.286-0.963,0.286-1.496C605.478,418.663,605.379,418.161,605.181,417.69z"/>
		<path fill="#FFFFFF" d="M616.482,422.598c-0.197,0.363-0.464,0.672-0.798,0.927s-0.729,0.449-1.186,0.583
			c-0.457,0.134-0.951,0.201-1.483,0.201c-0.764,0-1.534-0.131-2.312-0.392c-0.777-0.262-1.466-0.615-2.065-1.062l0.798-1.051
			c0.572,0.408,1.169,0.72,1.789,0.937c0.621,0.217,1.244,0.325,1.872,0.325c0.641,0,1.166-0.141,1.575-0.421
			s0.613-0.662,0.613-1.146v-0.038c0-0.242-0.071-0.452-0.215-0.631s-0.338-0.335-0.583-0.469s-0.528-0.251-0.849-0.354
			c-0.32-0.102-0.651-0.197-0.992-0.286c-0.409-0.115-0.821-0.239-1.237-0.373s-0.791-0.303-1.125-0.506
			c-0.335-0.204-0.607-0.459-0.818-0.765c-0.212-0.306-0.317-0.688-0.317-1.146v-0.039c0-0.42,0.089-0.806,0.267-1.156
			c0.177-0.35,0.426-0.649,0.746-0.897c0.32-0.249,0.702-0.439,1.146-0.573s0.924-0.201,1.442-0.201
			c0.654,0,1.315,0.099,1.983,0.296c0.668,0.198,1.275,0.462,1.821,0.794l-0.716,1.108c-0.491-0.293-1.006-0.526-1.545-0.698
			s-1.067-0.258-1.585-0.258c-0.628,0-1.125,0.138-1.493,0.411c-0.368,0.274-0.553,0.615-0.553,1.022v0.038
			c0,0.229,0.075,0.43,0.226,0.603c0.149,0.172,0.351,0.321,0.604,0.448c0.252,0.128,0.542,0.242,0.869,0.345
			c0.327,0.102,0.668,0.204,1.022,0.306c0.409,0.114,0.814,0.242,1.217,0.382c0.402,0.141,0.768,0.318,1.095,0.535
			s0.59,0.478,0.787,0.784c0.198,0.306,0.297,0.682,0.297,1.127v0.038C616.779,421.818,616.681,422.235,616.482,422.598z"/>
		<path fill="#FFFFFF" d="M627.134,410.74v13.378h-1.616V410.74H627.134z"/>
		<path fill="#FFFFFF" d="M642.871,418.404c0,0.98-0.144,1.841-0.43,2.579c-0.287,0.739-0.692,1.357-1.218,1.854
			c-0.524,0.497-1.152,0.869-1.882,1.118c-0.729,0.248-1.544,0.372-2.444,0.372c-0.886,0-1.694-0.124-2.424-0.372
			c-0.729-0.249-1.356-0.618-1.882-1.108c-0.524-0.491-0.931-1.1-1.217-1.825c-0.286-0.727-0.43-1.561-0.43-2.504v-7.778h1.616
			v7.683c0,1.452,0.385,2.567,1.155,3.345s1.845,1.166,3.222,1.166c1.323,0,2.373-0.37,3.15-1.108
			c0.777-0.739,1.166-1.842,1.166-3.307v-7.778h1.616V418.404z"/>
		<path fill="#FFFFFF" d="M653.838,420.449h-0.081l-5.217-7.148v10.817h-1.574V410.74h1.636l5.216,7.301l5.217-7.301h1.636v13.378
			h-1.615v-10.836L653.838,420.449z"/>
		<path fill="#FFFFFF" d="M664.884,413.75c0.219-0.261,0.307-0.596,0.267-1.003h-0.736v-2.007h1.882v1.72
			c0,0.777-0.185,1.366-0.553,1.768s-0.94,0.686-1.718,0.851l-0.246-0.669C664.298,414.231,664.666,414.011,664.884,413.75z"/>
		<path fill="#FFFFFF" d="M670.968,414.93c0.108,0.255,0.307,0.488,0.593,0.698c0.287,0.211,0.682,0.402,1.187,0.574
			c0.505,0.173,1.152,0.335,1.943,0.488c1.596,0.332,2.771,0.791,3.528,1.378s1.136,1.397,1.136,2.431
			c0,0.574-0.122,1.098-0.364,1.57c-0.242,0.472-0.576,0.874-1.002,1.205c-0.426,0.332-0.938,0.588-1.539,0.766
			c-0.6,0.179-1.255,0.269-1.963,0.269c-1.146,0-2.192-0.173-3.141-0.519c-0.947-0.345-1.851-0.88-2.71-1.604l1.002-1.108
			c0.75,0.638,1.507,1.112,2.271,1.424c0.764,0.313,1.644,0.469,2.639,0.469c0.969,0,1.742-0.211,2.322-0.632
			c0.579-0.421,0.869-0.977,0.869-1.665c0-0.319-0.055-0.603-0.164-0.852s-0.301-0.476-0.574-0.68s-0.652-0.389-1.138-0.555
			c-0.485-0.167-1.104-0.326-1.855-0.479c-0.82-0.165-1.535-0.356-2.143-0.574c-0.609-0.217-1.111-0.479-1.508-0.784
			c-0.396-0.307-0.69-0.663-0.882-1.072c-0.191-0.408-0.286-0.894-0.286-1.455c0-0.535,0.115-1.026,0.348-1.474
			c0.231-0.446,0.559-0.832,0.981-1.157c0.423-0.326,0.921-0.581,1.493-0.766c0.573-0.186,1.2-0.278,1.882-0.278
			c1.05,0,1.967,0.136,2.751,0.405c0.784,0.271,1.545,0.677,2.281,1.22l-0.941,1.165c-0.668-0.509-1.34-0.879-2.015-1.108
			c-0.675-0.229-1.381-0.344-2.117-0.344c-0.464,0-0.883,0.058-1.258,0.173c-0.375,0.114-0.695,0.268-0.961,0.459
			c-0.267,0.191-0.471,0.421-0.614,0.689c-0.143,0.268-0.215,0.555-0.215,0.86C670.804,414.387,670.858,414.675,670.968,414.93z"/>
		<path fill="#FFFFFF" d="M695.153,423.804c-0.676,0.362-1.511,0.543-2.506,0.543c-0.777,0-1.497-0.138-2.158-0.411
			c-0.662-0.273-1.234-0.644-1.719-1.108c-0.483-0.465-0.862-1.01-1.135-1.634c-0.273-0.624-0.409-1.287-0.409-1.988
			c0-0.7,0.136-1.366,0.409-1.997c0.272-0.63,0.651-1.182,1.135-1.652c0.484-0.472,1.057-0.845,1.719-1.118
			c0.661-0.274,1.381-0.411,2.158-0.411c0.504,0,0.961,0.045,1.37,0.134s0.784,0.214,1.125,0.373s0.654,0.347,0.941,0.563
			c0.286,0.217,0.552,0.446,0.797,0.688l-1.043,1.032c-0.423-0.407-0.883-0.758-1.381-1.051s-1.107-0.439-1.83-0.439
			c-0.532,0-1.03,0.099-1.493,0.295c-0.464,0.197-0.866,0.471-1.207,0.82s-0.607,0.756-0.798,1.22
			c-0.191,0.464-0.286,0.963-0.286,1.497c0,0.533,0.099,1.035,0.296,1.506c0.198,0.471,0.471,0.88,0.818,1.229
			s0.757,0.623,1.228,0.82c0.471,0.196,0.985,0.295,1.544,0.295c0.683,0,1.285-0.14,1.811-0.421c0.525-0.279,0.999-0.63,1.422-1.051
			l1.002,0.879C696.432,422.98,695.828,423.442,695.153,423.804z"/>
		<path fill="#FFFFFF" d="M708.628,421.165c-0.279,0.631-0.664,1.183-1.155,1.653c-0.491,0.472-1.077,0.845-1.759,1.118
			c-0.683,0.273-1.419,0.411-2.209,0.411c-0.791,0-1.521-0.138-2.189-0.411s-1.247-0.644-1.738-1.108s-0.873-1.01-1.146-1.634
			c-0.273-0.624-0.409-1.287-0.409-1.988c0-0.7,0.136-1.366,0.409-1.997c0.272-0.63,0.654-1.182,1.146-1.652
			c0.491-0.472,1.074-0.845,1.749-1.118c0.675-0.274,1.414-0.411,2.219-0.411c0.791,0,1.524,0.137,2.199,0.411
			c0.675,0.273,1.258,0.644,1.749,1.108s0.872,1.01,1.146,1.634c0.272,0.624,0.409,1.287,0.409,1.987
			C709.048,419.869,708.907,420.535,708.628,421.165z M707.135,417.69c-0.197-0.47-0.474-0.88-0.828-1.229
			c-0.354-0.349-0.771-0.626-1.248-0.829s-0.995-0.305-1.554-0.305c-0.573,0-1.099,0.099-1.575,0.295
			c-0.478,0.197-0.884,0.471-1.218,0.82s-0.597,0.756-0.787,1.22c-0.191,0.464-0.286,0.963-0.286,1.497
			c0,0.533,0.099,1.035,0.296,1.506c0.198,0.471,0.471,0.877,0.818,1.22c0.348,0.344,0.761,0.616,1.238,0.82
			c0.477,0.203,0.995,0.305,1.554,0.305c0.573,0,1.098-0.099,1.575-0.295c0.478-0.197,0.887-0.468,1.228-0.811
			c0.341-0.344,0.606-0.747,0.798-1.211c0.19-0.464,0.286-0.963,0.286-1.496C707.432,418.663,707.333,418.161,707.135,417.69z"/>
		<path fill="#FFFFFF" d="M711.616,424.118v-13.951h1.575v13.951H711.616z"/>
		<path fill="#FFFFFF" d="M717.639,421.146c0.218,0.414,0.497,0.765,0.838,1.051c0.341,0.287,0.723,0.504,1.146,0.65
			s0.866,0.22,1.33,0.22c0.736,0,1.367-0.128,1.892-0.383c0.525-0.255,1.006-0.592,1.442-1.013l0.981,0.822
			c-0.531,0.561-1.139,1.01-1.82,1.347c-0.682,0.338-1.527,0.507-2.536,0.507c-0.723,0-1.404-0.124-2.046-0.373
			c-0.641-0.248-1.201-0.599-1.682-1.051s-0.862-0.997-1.146-1.634c-0.283-0.638-0.425-1.338-0.425-2.103
			c0-0.714,0.126-1.386,0.379-2.017c0.252-0.631,0.603-1.178,1.053-1.644c0.45-0.465,0.985-0.831,1.606-1.099
			c0.62-0.268,1.299-0.401,2.035-0.401c0.777,0,1.473,0.137,2.086,0.411c0.613,0.273,1.132,0.646,1.555,1.118
			c0.423,0.471,0.743,1.025,0.961,1.662c0.219,0.638,0.328,1.319,0.328,2.045c0,0.064,0,0.134,0,0.21
			c0,0.077-0.008,0.16-0.021,0.249h-8.366C717.283,420.257,717.42,420.732,717.639,421.146z M724,418.632
			c-0.041-0.445-0.14-0.872-0.295-1.28c-0.156-0.407-0.373-0.765-0.65-1.07c-0.278-0.306-0.617-0.551-1.017-0.735
			c-0.4-0.185-0.864-0.277-1.394-0.277c-0.461,0-0.888,0.086-1.28,0.258c-0.394,0.172-0.739,0.408-1.037,0.707
			c-0.298,0.3-0.542,0.653-0.731,1.061c-0.19,0.408-0.313,0.854-0.366,1.338H724z"/>
		<path fill="#FFFFFF" d="M730.191,421.308c0,0.611,0.163,1.039,0.49,1.28c0.328,0.242,0.757,0.363,1.289,0.363
			c0.272,0,0.528-0.025,0.767-0.076c0.239-0.051,0.494-0.14,0.768-0.268v1.262c-0.273,0.14-0.563,0.245-0.869,0.314
			c-0.307,0.07-0.651,0.105-1.033,0.105c-0.423,0-0.818-0.051-1.187-0.152c-0.368-0.103-0.686-0.265-0.951-0.487
			c-0.266-0.224-0.474-0.513-0.624-0.87c-0.15-0.356-0.225-0.783-0.225-1.28v-5.963h-1.473v-1.3h1.473v-2.981h1.575v2.981h3.354v1.3
			h-3.354V421.308z"/>
		<path fill="#FFFFFF" d="M737.976,415.604c-0.511,0.133-1.013,0.309-1.503,0.525l-0.471-1.204c0.586-0.255,1.18-0.456,1.779-0.603
			c0.601-0.146,1.289-0.22,2.066-0.22c1.445,0,2.557,0.335,3.334,1.004s1.166,1.659,1.166,2.972v6.039h-1.514v-1.49
			c-0.368,0.445-0.863,0.841-1.483,1.185s-1.401,0.516-2.342,0.516c-0.491,0-0.972-0.063-1.442-0.19
			c-0.47-0.128-0.893-0.322-1.268-0.583c-0.376-0.262-0.676-0.583-0.9-0.966c-0.225-0.382-0.338-0.834-0.338-1.356
			s0.109-0.984,0.328-1.386c0.218-0.401,0.528-0.735,0.931-1.003c0.401-0.268,0.879-0.472,1.432-0.612
			c0.552-0.14,1.162-0.21,1.83-0.21c0.683,0,1.275,0.038,1.78,0.115c0.504,0.076,0.995,0.178,1.473,0.306v-0.345
			c0-0.892-0.276-1.563-0.828-2.016c-0.553-0.452-1.327-0.679-2.322-0.679C739.057,415.403,738.487,415.47,737.976,415.604z
			 M737.472,419.665c-0.53,0.37-0.795,0.873-0.795,1.51c0,0.318,0.071,0.6,0.214,0.841c0.143,0.242,0.337,0.449,0.581,0.621
			c0.245,0.172,0.526,0.303,0.847,0.393c0.319,0.089,0.655,0.133,1.009,0.133c0.489,0,0.948-0.066,1.376-0.2
			c0.429-0.134,0.802-0.318,1.122-0.555c0.319-0.235,0.57-0.516,0.754-0.841c0.184-0.324,0.275-0.685,0.275-1.079v-0.956
			c-0.395-0.102-0.847-0.197-1.356-0.286c-0.51-0.09-1.091-0.134-1.743-0.134C738.764,419.111,738.002,419.295,737.472,419.665z"/>
		<path fill="#FFFFFF" d="M756.144,424.118v-1.987c-0.219,0.293-0.46,0.573-0.727,0.841c-0.266,0.268-0.563,0.503-0.89,0.707
			s-0.692,0.363-1.095,0.478c-0.402,0.115-0.849,0.172-1.339,0.172c-0.642,0-1.262-0.114-1.862-0.344
			c-0.6-0.229-1.139-0.563-1.615-1.003c-0.478-0.44-0.859-0.979-1.146-1.615s-0.43-1.363-0.43-2.179s0.144-1.542,0.43-2.179
			s0.668-1.176,1.146-1.615c0.477-0.439,1.016-0.776,1.615-1.013c0.601-0.235,1.221-0.354,1.862-0.354c0.49,0,0.94,0.058,1.35,0.172
			c0.409,0.115,0.777,0.268,1.104,0.459c0.327,0.19,0.624,0.414,0.89,0.669s0.501,0.522,0.706,0.803v-5.963h1.575v13.951H756.144z
			 M755.888,417.609c-0.212-0.47-0.498-0.868-0.859-1.198s-0.771-0.586-1.227-0.771c-0.457-0.184-0.932-0.275-1.422-0.275
			c-0.519,0-1.003,0.086-1.452,0.257c-0.45,0.171-0.843,0.418-1.177,0.741s-0.6,0.723-0.798,1.198
			c-0.197,0.476-0.296,1.011-0.296,1.606c0,0.584,0.099,1.109,0.296,1.579c0.198,0.469,0.468,0.871,0.809,1.207
			s0.736,0.593,1.187,0.771c0.449,0.178,0.927,0.266,1.432,0.266c0.49,0,0.965-0.092,1.422-0.275c0.456-0.184,0.865-0.44,1.227-0.77
			c0.361-0.33,0.647-0.732,0.859-1.208c0.211-0.476,0.317-0.998,0.317-1.569C756.205,418.597,756.099,418.078,755.888,417.609z"/>
		<path fill="#FFFFFF" d="M771.4,421.165c-0.279,0.631-0.664,1.183-1.155,1.653c-0.491,0.472-1.077,0.845-1.759,1.118
			c-0.683,0.273-1.419,0.411-2.209,0.411c-0.791,0-1.521-0.138-2.189-0.411s-1.247-0.644-1.738-1.108s-0.873-1.01-1.146-1.634
			c-0.273-0.624-0.409-1.287-0.409-1.988c0-0.7,0.136-1.366,0.409-1.997c0.272-0.63,0.654-1.182,1.146-1.652
			c0.491-0.472,1.074-0.845,1.749-1.118c0.675-0.274,1.414-0.411,2.219-0.411c0.791,0,1.524,0.137,2.199,0.411
			c0.675,0.273,1.258,0.644,1.749,1.108s0.872,1.01,1.146,1.634c0.272,0.624,0.409,1.287,0.409,1.987
			C771.82,419.869,771.68,420.535,771.4,421.165z M769.907,417.69c-0.197-0.47-0.474-0.88-0.828-1.229
			c-0.354-0.349-0.771-0.626-1.248-0.829s-0.995-0.305-1.554-0.305c-0.573,0-1.099,0.099-1.575,0.295
			c-0.478,0.197-0.884,0.471-1.218,0.82s-0.597,0.756-0.787,1.22c-0.191,0.464-0.286,0.963-0.286,1.497
			c0,0.533,0.099,1.035,0.296,1.506c0.198,0.471,0.471,0.877,0.818,1.22c0.348,0.344,0.761,0.616,1.238,0.82
			c0.477,0.203,0.995,0.305,1.554,0.305c0.573,0,1.098-0.099,1.575-0.295c0.478-0.197,0.887-0.468,1.228-0.811
			c0.341-0.344,0.606-0.747,0.798-1.211c0.19-0.464,0.286-0.963,0.286-1.496C770.204,418.663,770.105,418.161,769.907,417.69z"/>
		<path fill="#FFFFFF" d="M781.21,422.598c-0.197,0.363-0.464,0.672-0.798,0.927s-0.729,0.449-1.186,0.583
			c-0.457,0.134-0.951,0.201-1.483,0.201c-0.764,0-1.534-0.131-2.312-0.392c-0.777-0.262-1.466-0.615-2.065-1.062l0.798-1.051
			c0.572,0.408,1.169,0.72,1.789,0.937c0.621,0.217,1.244,0.325,1.872,0.325c0.641,0,1.166-0.141,1.575-0.421
			s0.613-0.662,0.613-1.146v-0.038c0-0.242-0.071-0.452-0.215-0.631s-0.338-0.335-0.583-0.469s-0.528-0.251-0.849-0.354
			c-0.32-0.102-0.651-0.197-0.992-0.286c-0.409-0.115-0.821-0.239-1.237-0.373s-0.791-0.303-1.125-0.506
			c-0.335-0.204-0.607-0.459-0.818-0.765c-0.212-0.306-0.317-0.688-0.317-1.146v-0.039c0-0.42,0.089-0.806,0.267-1.156
			c0.177-0.35,0.426-0.649,0.746-0.897c0.32-0.249,0.702-0.439,1.146-0.573s0.924-0.201,1.442-0.201
			c0.654,0,1.315,0.099,1.983,0.296c0.668,0.198,1.275,0.462,1.821,0.794l-0.716,1.108c-0.491-0.293-1.006-0.526-1.545-0.698
			s-1.067-0.258-1.585-0.258c-0.628,0-1.125,0.138-1.493,0.411c-0.368,0.274-0.553,0.615-0.553,1.022v0.038
			c0,0.229,0.075,0.43,0.226,0.603c0.149,0.172,0.351,0.321,0.604,0.448c0.252,0.128,0.542,0.242,0.869,0.345
			c0.327,0.102,0.668,0.204,1.022,0.306c0.409,0.114,0.814,0.242,1.217,0.382c0.402,0.141,0.768,0.318,1.095,0.535
			s0.59,0.478,0.787,0.784c0.198,0.306,0.297,0.682,0.297,1.127v0.038C781.507,421.818,781.408,422.235,781.21,422.598z"/>
		<path fill="#FFFFFF" d="M783.856,424.118v-2.007h1.882v2.007H783.856z"/>
	</g>
	<g>
		<g>
			<path fill="#FFFFFF" d="M620.479,314.632h-1.738l-1.678-3.535h-7.793l-1.698,3.535h-1.656l6.525-13.474h1.514L620.479,314.632z
				 M613.177,302.936l-3.273,6.823h6.525L613.177,302.936z"/>
			<path fill="#FFFFFF" d="M624.247,314.632h-1.575v-9.881h1.575v2.58c0.191-0.407,0.43-0.783,0.716-1.127
				c0.286-0.345,0.614-0.641,0.982-0.889c0.368-0.249,0.77-0.437,1.206-0.564c0.437-0.127,0.907-0.185,1.412-0.172v1.586h-0.123
				c-0.572,0-1.115,0.096-1.626,0.287c-0.512,0.191-0.958,0.478-1.34,0.86c-0.382,0.382-0.683,0.856-0.9,1.424
				c-0.218,0.566-0.327,1.22-0.327,1.959V314.632z"/>
			<path fill="#FFFFFF" d="M639.498,305.746c0.238-0.242,0.508-0.452,0.808-0.631c0.3-0.178,0.638-0.318,1.013-0.42
				c0.375-0.103,0.794-0.153,1.258-0.153c1.228,0,2.188,0.354,2.885,1.061c0.695,0.707,1.043,1.679,1.043,2.915v6.115h-1.575v-5.771
				c0-0.956-0.242-1.691-0.727-2.208c-0.483-0.516-1.155-0.773-2.015-0.773c-0.396,0-0.771,0.066-1.125,0.2
				s-0.665,0.332-0.931,0.593c-0.266,0.262-0.478,0.583-0.634,0.965c-0.157,0.383-0.235,0.815-0.235,1.3v5.695h-1.555v-5.81
				c0-0.931-0.242-1.653-0.726-2.17c-0.484-0.516-1.149-0.773-1.995-0.773c-0.423,0-0.812,0.076-1.166,0.229
				c-0.354,0.152-0.664,0.369-0.931,0.649c-0.266,0.28-0.474,0.608-0.623,0.984c-0.15,0.376-0.226,0.793-0.226,1.252v5.638h-1.575
				v-9.881h1.575v1.663c0.177-0.242,0.371-0.478,0.583-0.707c0.211-0.229,0.453-0.431,0.727-0.603
				c0.272-0.172,0.579-0.309,0.92-0.41c0.341-0.103,0.736-0.153,1.187-0.153c0.859,0,1.568,0.188,2.127,0.563
				c0.56,0.376,0.982,0.845,1.269,1.405C639.044,306.243,639.259,305.988,639.498,305.746z"/>
			<path fill="#FFFFFF" d="M651.38,306.119c-0.511,0.133-1.013,0.309-1.503,0.525l-0.471-1.204c0.586-0.255,1.18-0.456,1.779-0.603
				c0.601-0.146,1.289-0.22,2.066-0.22c1.445,0,2.557,0.335,3.334,1.004s1.166,1.659,1.166,2.972v6.039h-1.514v-1.49
				c-0.368,0.445-0.863,0.841-1.483,1.185s-1.401,0.516-2.342,0.516c-0.491,0-0.972-0.063-1.442-0.19
				c-0.47-0.128-0.893-0.322-1.268-0.583c-0.376-0.262-0.676-0.583-0.9-0.966c-0.225-0.382-0.338-0.834-0.338-1.356
				s0.109-0.984,0.328-1.386c0.218-0.401,0.528-0.735,0.931-1.003c0.401-0.268,0.879-0.472,1.432-0.612
				c0.552-0.14,1.162-0.21,1.83-0.21c0.683,0,1.275,0.038,1.78,0.115c0.504,0.076,0.995,0.178,1.473,0.306v-0.345
				c0-0.892-0.276-1.563-0.828-2.016c-0.553-0.452-1.327-0.679-2.322-0.679C652.461,305.917,651.892,305.985,651.38,306.119z
				 M650.876,310.179c-0.53,0.37-0.795,0.873-0.795,1.51c0,0.318,0.071,0.6,0.214,0.841c0.143,0.242,0.337,0.449,0.581,0.621
				c0.245,0.172,0.526,0.303,0.847,0.393c0.319,0.089,0.655,0.133,1.009,0.133c0.489,0,0.948-0.066,1.376-0.2
				c0.429-0.134,0.802-0.318,1.122-0.555c0.319-0.235,0.57-0.516,0.754-0.841c0.184-0.324,0.275-0.685,0.275-1.079v-0.956
				c-0.395-0.102-0.847-0.197-1.356-0.286c-0.51-0.09-1.091-0.134-1.743-0.134C652.168,309.625,651.406,309.81,650.876,310.179z"/>
			<path fill="#FFFFFF" d="M660.689,305.994v-1.242h8.919v0.937l-7.037,7.702h7.037v1.242h-9.164v-0.937l7.016-7.702H660.689z"/>
			<path fill="#FFFFFF" d="M673.225,311.661c0.218,0.414,0.497,0.765,0.838,1.051c0.341,0.287,0.723,0.504,1.146,0.65
				s0.866,0.22,1.33,0.22c0.736,0,1.367-0.128,1.892-0.383c0.525-0.255,1.006-0.592,1.442-1.013l0.981,0.822
				c-0.531,0.561-1.139,1.01-1.82,1.347c-0.682,0.338-1.527,0.507-2.536,0.507c-0.723,0-1.404-0.124-2.046-0.373
				c-0.641-0.248-1.201-0.599-1.682-1.051s-0.862-0.997-1.146-1.634c-0.283-0.638-0.425-1.338-0.425-2.103
				c0-0.714,0.126-1.386,0.379-2.017c0.252-0.631,0.603-1.178,1.053-1.644c0.45-0.465,0.985-0.831,1.606-1.099
				c0.62-0.268,1.299-0.401,2.035-0.401c0.777,0,1.473,0.137,2.086,0.411c0.613,0.273,1.132,0.646,1.555,1.118
				c0.423,0.471,0.743,1.025,0.961,1.662c0.219,0.638,0.328,1.319,0.328,2.045c0,0.064,0,0.134,0,0.21
				c0,0.077-0.008,0.16-0.021,0.249h-8.366C672.869,310.772,673.006,311.247,673.225,311.661z M679.586,309.147
				c-0.041-0.445-0.14-0.872-0.295-1.28c-0.156-0.407-0.373-0.765-0.65-1.07c-0.278-0.306-0.617-0.551-1.017-0.735
				c-0.4-0.185-0.864-0.277-1.394-0.277c-0.461,0-0.888,0.086-1.28,0.258c-0.394,0.172-0.739,0.408-1.037,0.707
				c-0.298,0.3-0.542,0.653-0.731,1.061c-0.19,0.408-0.313,0.854-0.366,1.338H679.586z"/>
			<path fill="#FFFFFF" d="M685.224,314.632h-1.575v-9.881h1.575v1.721c0.354-0.535,0.818-0.991,1.391-1.367
				c0.573-0.375,1.316-0.563,2.23-0.563c0.641,0,1.21,0.096,1.708,0.287c0.497,0.19,0.92,0.462,1.268,0.812
				c0.348,0.351,0.614,0.768,0.798,1.252c0.185,0.484,0.276,1.02,0.276,1.605v6.135h-1.575v-5.771c0-0.918-0.253-1.644-0.757-2.179
				c-0.505-0.535-1.228-0.803-2.168-0.803c-0.45,0-0.869,0.073-1.258,0.22s-0.727,0.356-1.013,0.631
				c-0.286,0.273-0.509,0.602-0.665,0.984c-0.157,0.382-0.235,0.803-0.235,1.261V314.632z"/>
			<path fill="#FFFFFF" d="M698.562,306.119c-0.511,0.133-1.013,0.309-1.503,0.525l-0.471-1.204c0.586-0.255,1.18-0.456,1.779-0.603
				c0.601-0.146,1.289-0.22,2.066-0.22c1.445,0,2.557,0.335,3.334,1.004s1.166,1.659,1.166,2.972v6.039h-1.514v-1.49
				c-0.368,0.445-0.863,0.841-1.483,1.185s-1.401,0.516-2.342,0.516c-0.491,0-0.972-0.063-1.442-0.19
				c-0.47-0.128-0.893-0.322-1.268-0.583c-0.376-0.262-0.676-0.583-0.9-0.966c-0.225-0.382-0.338-0.834-0.338-1.356
				s0.109-0.984,0.328-1.386c0.218-0.401,0.528-0.735,0.931-1.003c0.401-0.268,0.879-0.472,1.432-0.612
				c0.552-0.14,1.162-0.21,1.83-0.21c0.683,0,1.275,0.038,1.78,0.115c0.504,0.076,0.995,0.178,1.473,0.306v-0.345
				c0-0.892-0.276-1.563-0.828-2.016c-0.553-0.452-1.327-0.679-2.322-0.679C699.643,305.917,699.073,305.985,698.562,306.119z
				 M698.058,310.179c-0.53,0.37-0.795,0.873-0.795,1.51c0,0.318,0.071,0.6,0.214,0.841c0.143,0.242,0.337,0.449,0.581,0.621
				c0.245,0.172,0.526,0.303,0.847,0.393c0.319,0.089,0.655,0.133,1.009,0.133c0.489,0,0.948-0.066,1.376-0.2
				c0.429-0.134,0.802-0.318,1.122-0.555c0.319-0.235,0.57-0.516,0.754-0.841c0.184-0.324,0.275-0.685,0.275-1.079v-0.956
				c-0.395-0.102-0.847-0.197-1.356-0.286c-0.51-0.09-1.091-0.134-1.743-0.134C699.35,309.625,698.588,309.81,698.058,310.179z"/>
			<path fill="#FFFFFF" d="M717.271,305.746c0.238-0.242,0.508-0.452,0.808-0.631c0.3-0.178,0.638-0.318,1.013-0.42
				c0.375-0.103,0.794-0.153,1.258-0.153c1.228,0,2.188,0.354,2.885,1.061c0.695,0.707,1.043,1.679,1.043,2.915v6.115h-1.575v-5.771
				c0-0.956-0.242-1.691-0.727-2.208c-0.483-0.516-1.155-0.773-2.015-0.773c-0.396,0-0.771,0.066-1.125,0.2
				s-0.665,0.332-0.931,0.593c-0.266,0.262-0.478,0.583-0.634,0.965c-0.157,0.383-0.235,0.815-0.235,1.3v5.695h-1.555v-5.81
				c0-0.931-0.242-1.653-0.726-2.17c-0.484-0.516-1.149-0.773-1.995-0.773c-0.423,0-0.812,0.076-1.166,0.229
				c-0.354,0.152-0.664,0.369-0.931,0.649c-0.266,0.28-0.474,0.608-0.623,0.984c-0.15,0.376-0.226,0.793-0.226,1.252v5.638h-1.575
				v-9.881h1.575v1.663c0.177-0.242,0.371-0.478,0.583-0.707c0.211-0.229,0.453-0.431,0.727-0.603
				c0.272-0.172,0.579-0.309,0.92-0.41c0.341-0.103,0.736-0.153,1.187-0.153c0.859,0,1.568,0.188,2.127,0.563
				c0.56,0.376,0.982,0.845,1.269,1.405C716.816,306.243,717.031,305.988,717.271,305.746z"/>
			<path fill="#FFFFFF" d="M728.406,311.661c0.218,0.414,0.497,0.765,0.838,1.051c0.341,0.287,0.723,0.504,1.146,0.65
				s0.866,0.22,1.33,0.22c0.736,0,1.367-0.128,1.892-0.383c0.525-0.255,1.006-0.592,1.442-1.013l0.981,0.822
				c-0.531,0.561-1.139,1.01-1.82,1.347c-0.682,0.338-1.527,0.507-2.536,0.507c-0.723,0-1.404-0.124-2.046-0.373
				c-0.641-0.248-1.201-0.599-1.682-1.051s-0.862-0.997-1.146-1.634c-0.283-0.638-0.425-1.338-0.425-2.103
				c0-0.714,0.126-1.386,0.379-2.017c0.252-0.631,0.603-1.178,1.053-1.644c0.45-0.465,0.985-0.831,1.606-1.099
				c0.62-0.268,1.299-0.401,2.035-0.401c0.777,0,1.473,0.137,2.086,0.411c0.613,0.273,1.132,0.646,1.555,1.118
				c0.423,0.471,0.743,1.025,0.961,1.662c0.219,0.638,0.328,1.319,0.328,2.045c0,0.064,0,0.134,0,0.21
				c0,0.077-0.008,0.16-0.021,0.249h-8.366C728.051,310.772,728.188,311.247,728.406,311.661z M734.768,309.147
				c-0.041-0.445-0.14-0.872-0.295-1.28c-0.156-0.407-0.373-0.765-0.65-1.07c-0.278-0.306-0.617-0.551-1.017-0.735
				c-0.4-0.185-0.864-0.277-1.394-0.277c-0.461,0-0.888,0.086-1.28,0.258c-0.394,0.172-0.739,0.408-1.037,0.707
				c-0.298,0.3-0.542,0.653-0.731,1.061c-0.19,0.408-0.313,0.854-0.366,1.338H734.768z"/>
			<path fill="#FFFFFF" d="M740.405,314.632h-1.575v-9.881h1.575v1.721c0.354-0.535,0.818-0.991,1.391-1.367
				c0.573-0.375,1.316-0.563,2.23-0.563c0.641,0,1.21,0.096,1.708,0.287c0.497,0.19,0.92,0.462,1.268,0.812
				c0.348,0.351,0.614,0.768,0.798,1.252c0.185,0.484,0.276,1.02,0.276,1.605v6.135h-1.575v-5.771c0-0.918-0.253-1.644-0.757-2.179
				c-0.505-0.535-1.228-0.803-2.168-0.803c-0.45,0-0.869,0.073-1.258,0.22s-0.727,0.356-1.013,0.631
				c-0.286,0.273-0.509,0.602-0.665,0.984c-0.157,0.382-0.235,0.803-0.235,1.261V314.632z"/>
			<path fill="#FFFFFF" d="M753.754,311.823c0,0.611,0.163,1.039,0.49,1.28c0.328,0.242,0.757,0.363,1.289,0.363
				c0.272,0,0.528-0.025,0.767-0.076c0.239-0.051,0.494-0.14,0.768-0.268v1.262c-0.273,0.14-0.563,0.245-0.869,0.314
				c-0.307,0.07-0.651,0.105-1.033,0.105c-0.423,0-0.818-0.051-1.187-0.152c-0.368-0.103-0.686-0.265-0.951-0.487
				c-0.266-0.224-0.474-0.513-0.624-0.87c-0.15-0.356-0.225-0.783-0.225-1.28v-5.963h-1.473v-1.3h1.473v-2.981h1.575v2.981h3.354
				v1.3h-3.354V311.823z"/>
			<path fill="#FFFFFF" d="M769.373,311.679c-0.279,0.631-0.664,1.183-1.155,1.653c-0.491,0.472-1.077,0.845-1.759,1.118
				c-0.683,0.273-1.419,0.411-2.209,0.411c-0.791,0-1.521-0.138-2.189-0.411s-1.247-0.644-1.738-1.108s-0.873-1.01-1.146-1.634
				c-0.273-0.624-0.409-1.287-0.409-1.988c0-0.7,0.136-1.366,0.409-1.997c0.272-0.63,0.654-1.182,1.146-1.652
				c0.491-0.472,1.074-0.845,1.749-1.118c0.675-0.274,1.414-0.411,2.219-0.411c0.791,0,1.524,0.137,2.199,0.411
				c0.675,0.273,1.258,0.644,1.749,1.108s0.872,1.01,1.146,1.634c0.272,0.624,0.409,1.287,0.409,1.987
				C769.793,310.383,769.652,311.049,769.373,311.679z M767.88,308.205c-0.197-0.47-0.474-0.88-0.828-1.229
				c-0.354-0.349-0.771-0.626-1.248-0.829s-0.995-0.305-1.554-0.305c-0.573,0-1.099,0.099-1.575,0.295
				c-0.478,0.197-0.884,0.471-1.218,0.82s-0.597,0.756-0.787,1.22c-0.191,0.464-0.286,0.963-0.286,1.497
				c0,0.533,0.099,1.035,0.296,1.506c0.198,0.471,0.471,0.877,0.818,1.22c0.348,0.344,0.761,0.616,1.238,0.82
				c0.477,0.203,0.995,0.305,1.554,0.305c0.573,0,1.098-0.099,1.575-0.295c0.478-0.197,0.887-0.468,1.228-0.811
				c0.341-0.344,0.606-0.747,0.798-1.211c0.19-0.464,0.286-0.963,0.286-1.496C768.177,309.177,768.078,308.675,767.88,308.205z"/>
			<path fill="#FFFFFF" d="M786.502,314.632v-1.987c-0.219,0.293-0.46,0.573-0.727,0.841c-0.266,0.268-0.563,0.503-0.89,0.707
				s-0.692,0.363-1.095,0.478c-0.402,0.115-0.849,0.172-1.339,0.172c-0.642,0-1.262-0.114-1.862-0.344
				c-0.6-0.229-1.139-0.563-1.615-1.003c-0.478-0.44-0.859-0.979-1.146-1.615s-0.43-1.363-0.43-2.179s0.144-1.542,0.43-2.179
				s0.668-1.176,1.146-1.615c0.477-0.439,1.016-0.776,1.615-1.013c0.601-0.235,1.221-0.354,1.862-0.354
				c0.49,0,0.94,0.058,1.35,0.172c0.409,0.115,0.777,0.268,1.104,0.459c0.327,0.19,0.624,0.414,0.89,0.669s0.501,0.522,0.706,0.803
				v-5.963h1.575v13.951H786.502z M786.246,308.124c-0.212-0.47-0.498-0.868-0.859-1.198s-0.771-0.586-1.227-0.771
				c-0.457-0.184-0.932-0.275-1.422-0.275c-0.519,0-1.003,0.086-1.452,0.257c-0.45,0.171-0.843,0.418-1.177,0.741
				s-0.6,0.723-0.798,1.198c-0.197,0.476-0.296,1.011-0.296,1.606c0,0.584,0.099,1.109,0.296,1.579
				c0.198,0.469,0.468,0.871,0.809,1.207s0.736,0.593,1.187,0.771c0.449,0.178,0.927,0.266,1.432,0.266
				c0.49,0,0.965-0.092,1.422-0.275c0.456-0.184,0.865-0.44,1.227-0.77c0.361-0.33,0.647-0.732,0.859-1.208
				c0.211-0.476,0.317-0.998,0.317-1.569C786.563,309.112,786.457,308.592,786.246,308.124z"/>
			<path fill="#FFFFFF" d="M793.179,311.661c0.218,0.414,0.497,0.765,0.838,1.051c0.341,0.287,0.723,0.504,1.146,0.65
				s0.866,0.22,1.33,0.22c0.736,0,1.367-0.128,1.892-0.383c0.525-0.255,1.006-0.592,1.442-1.013l0.981,0.822
				c-0.531,0.561-1.139,1.01-1.82,1.347c-0.682,0.338-1.527,0.507-2.536,0.507c-0.723,0-1.404-0.124-2.046-0.373
				c-0.641-0.248-1.201-0.599-1.682-1.051s-0.862-0.997-1.146-1.634c-0.283-0.638-0.425-1.338-0.425-2.103
				c0-0.714,0.126-1.386,0.379-2.017c0.252-0.631,0.603-1.178,1.053-1.644c0.45-0.465,0.985-0.831,1.606-1.099
				c0.62-0.268,1.299-0.401,2.035-0.401c0.777,0,1.473,0.137,2.086,0.411c0.613,0.273,1.132,0.646,1.555,1.118
				c0.423,0.471,0.743,1.025,0.961,1.662c0.219,0.638,0.328,1.319,0.328,2.045c0,0.064,0,0.134,0,0.21
				c0,0.077-0.008,0.16-0.021,0.249h-8.366C792.823,310.772,792.96,311.247,793.179,311.661z M799.54,309.147
				c-0.041-0.445-0.14-0.872-0.295-1.28c-0.156-0.407-0.373-0.765-0.65-1.07c-0.278-0.306-0.617-0.551-1.017-0.735
				c-0.4-0.185-0.864-0.277-1.394-0.277c-0.461,0-0.888,0.086-1.28,0.258c-0.394,0.172-0.739,0.408-1.037,0.707
				c-0.298,0.3-0.542,0.653-0.731,1.061c-0.19,0.408-0.313,0.854-0.366,1.338H799.54z"/>
		</g>
		<g>
			<path fill="#FFFFFF" d="M615.683,324.448h5.369v33.682h-7.772v-26.229l-6.238,1.434l-1.636-6.021L615.683,324.448z"/>
			<path fill="#FFFFFF" d="M644.278,358.703c-9.562,0-15.852-7.501-15.852-17.247s6.392-17.342,15.954-17.342
				c9.562,0,15.851,7.5,15.851,17.246S653.84,358.703,644.278,358.703z M644.278,330.754c-4.756,0-7.772,4.442-7.772,10.605
				s3.119,10.702,7.875,10.702c4.755,0,7.771-4.491,7.771-10.606S649.033,330.754,644.278,330.754z"/>
			<path fill="#FFFFFF" d="M696.176,358.129v-2.771c-1.892,1.958-4.499,3.248-8.283,3.248c-5.164,0-9.408-2.771-9.408-7.835v-0.096
				c0-5.59,4.551-8.169,11.045-8.169c2.761,0,4.755,0.43,6.698,1.051v-0.43c0-3.011-1.994-4.683-5.881-4.683
				c-2.966,0-5.062,0.525-7.567,1.386l-1.943-5.542c3.018-1.242,5.983-2.055,10.636-2.055c8.488,0,12.221,4.109,12.221,11.036
				v14.858H696.176z M696.329,347.81c-1.329-0.573-3.067-0.956-4.96-0.956c-3.323,0-5.368,1.242-5.368,3.536v0.096
				c0,1.958,1.738,3.104,4.244,3.104c3.63,0,6.084-1.863,6.084-4.49V347.81z"/>
			<path fill="#FFFFFF" d="M726.942,358.129v-14.285c0-3.439-1.738-5.207-4.704-5.207s-4.857,1.768-4.857,5.207v14.285h-7.772
				v-25.607h7.772v3.631c1.79-2.15,4.091-4.108,8.027-4.108c5.881,0,9.307,3.631,9.307,9.507v16.578H726.942z"/>
			<path fill="#FFFFFF" d="M754.546,358.703c-8.488,0-14.777-5.876-14.777-13.233v-0.096c0-7.357,6.341-13.329,14.88-13.329
				c8.487,0,14.777,5.876,14.777,13.233v0.096C769.426,352.731,763.085,358.703,754.546,358.703z M761.756,345.374
				c0-3.774-2.915-7.071-7.21-7.071c-4.448,0-7.107,3.201-7.107,6.976v0.096c0,3.774,2.914,7.07,7.21,7.07
				c4.448,0,7.107-3.2,7.107-6.975V345.374z"/>
			<path fill="#FFFFFF" d="M784.199,358.607c-3.835,0-8.13-1.194-11.761-3.869l3.324-4.778c2.966,2.007,6.084,3.058,8.641,3.058
				c2.25,0,3.272-0.764,3.272-1.911v-0.095c0-1.577-2.658-2.103-5.675-2.963c-3.835-1.051-8.182-2.723-8.182-7.691v-0.096
				c0-5.207,4.5-8.121,10.021-8.121c3.478,0,7.262,1.099,10.227,2.962l-2.965,5.016c-2.711-1.48-5.421-2.389-7.415-2.389
				c-1.892,0-2.863,0.765-2.863,1.768v0.096c0,1.434,2.608,2.103,5.573,3.058c3.835,1.194,8.284,2.915,8.284,7.597v0.096
				C794.682,356.027,790.131,358.607,784.199,358.607z"/>
		</g>
		<rect x="605.118" y="300.681" fill="none" width="207.859" height="81.826"/>
	</g>
	<g>
		<g>
			<path fill="#FFFFFF" d="M284.619,169.972h-1.723l-1.662-3.75h-7.723l-1.682,3.75h-1.643l6.466-14.289h1.5L284.619,169.972z
				 M277.384,157.568l-3.243,7.234h6.466L277.384,157.568z"/>
			<path fill="#FFFFFF" d="M288.713,169.972h-1.561v-10.479h1.561v2.736c0.189-0.434,0.426-0.832,0.71-1.197
				c0.283-0.365,0.607-0.678,0.973-0.941c0.364-0.264,0.763-0.463,1.195-0.598c0.433-0.137,0.898-0.197,1.398-0.184v1.682h-0.121
				c-0.567,0-1.104,0.102-1.611,0.305s-0.949,0.508-1.328,0.912c-0.378,0.406-0.676,0.908-0.892,1.51s-0.324,1.295-0.324,2.078
				V169.972z"/>
			<path fill="#FFFFFF" d="M304.31,160.546c0.236-0.256,0.504-0.479,0.801-0.668s0.632-0.338,1.004-0.447
				c0.371-0.107,0.786-0.162,1.246-0.162c1.216,0,2.169,0.375,2.858,1.125c0.688,0.75,1.033,1.781,1.033,3.092v6.486h-1.561v-6.121
				c0-1.014-0.24-1.795-0.72-2.342s-1.146-0.82-1.996-0.82c-0.393,0-0.764,0.07-1.115,0.213c-0.352,0.141-0.658,0.352-0.922,0.627
				c-0.264,0.277-0.474,0.619-0.629,1.025c-0.155,0.404-0.232,0.863-0.232,1.377v6.041h-1.541v-6.162c0-0.986-0.24-1.754-0.72-2.301
				s-1.138-0.82-1.976-0.82c-0.419,0-0.805,0.08-1.155,0.242c-0.352,0.162-0.659,0.393-0.923,0.689
				c-0.263,0.297-0.469,0.646-0.618,1.045c-0.148,0.398-0.223,0.84-0.223,1.326v5.98h-1.561v-10.479h1.561v1.762
				c0.176-0.256,0.368-0.506,0.578-0.75c0.209-0.242,0.448-0.455,0.719-0.637c0.271-0.184,0.574-0.328,0.912-0.438
				c0.338-0.107,0.73-0.162,1.176-0.162c0.852,0,1.554,0.201,2.108,0.6c0.554,0.398,0.973,0.895,1.257,1.488
				C303.86,161.074,304.073,160.804,304.31,160.546z"/>
			<path fill="#FFFFFF" d="M316.734,160.943c-0.507,0.141-1.003,0.326-1.489,0.557l-0.467-1.277c0.581-0.27,1.169-0.482,1.764-0.639
				c0.595-0.154,1.277-0.232,2.047-0.232c1.433,0,2.534,0.354,3.304,1.064c0.771,0.709,1.155,1.76,1.155,3.15v6.406h-1.5v-1.582
				c-0.364,0.475-0.854,0.893-1.469,1.258c-0.615,0.365-1.389,0.547-2.321,0.547c-0.486,0-0.963-0.068-1.429-0.203
				s-0.885-0.342-1.257-0.617c-0.372-0.277-0.669-0.619-0.892-1.023c-0.223-0.406-0.335-0.887-0.335-1.439
				c0-0.555,0.108-1.045,0.325-1.471c0.216-0.426,0.523-0.779,0.922-1.063c0.398-0.285,0.871-0.5,1.419-0.65
				c0.547-0.148,1.151-0.223,1.813-0.223c0.676,0,1.264,0.041,1.764,0.123c0.5,0.08,0.986,0.189,1.459,0.324v-0.365
				c0-0.945-0.273-1.658-0.82-2.139s-1.314-0.719-2.301-0.719C317.806,160.73,317.241,160.8,316.734,160.943z M316.235,165.25
				c-0.525,0.393-0.788,0.926-0.788,1.602c0,0.338,0.07,0.635,0.212,0.891c0.142,0.258,0.334,0.477,0.576,0.658
				c0.242,0.184,0.521,0.322,0.838,0.416c0.316,0.096,0.65,0.143,1.001,0.143c0.484,0,0.938-0.07,1.363-0.213
				c0.424-0.143,0.794-0.338,1.111-0.588c0.316-0.25,0.565-0.547,0.747-0.893c0.182-0.344,0.272-0.725,0.272-1.145v-1.014
				c-0.391-0.107-0.839-0.209-1.343-0.305c-0.506-0.094-1.081-0.141-1.728-0.141C317.515,164.662,316.761,164.857,316.235,165.25z"
				/>
			<path fill="#FFFFFF" d="M326.007,160.81v-1.316h8.838v0.992l-6.973,8.168h6.973v1.318h-9.081v-0.994l6.952-8.168H326.007z"/>
			<path fill="#FFFFFF" d="M338.696,166.82c0.216,0.439,0.492,0.811,0.831,1.115c0.337,0.303,0.716,0.533,1.135,0.689
				c0.419,0.154,0.857,0.232,1.317,0.232c0.729,0,1.354-0.135,1.875-0.406c0.52-0.27,0.996-0.627,1.429-1.074l0.973,0.873
				c-0.526,0.594-1.128,1.07-1.804,1.428c-0.676,0.359-1.514,0.537-2.514,0.537c-0.716,0-1.392-0.131-2.026-0.395
				c-0.636-0.264-1.191-0.635-1.667-1.115c-0.477-0.479-0.854-1.057-1.135-1.732c-0.281-0.676-0.421-1.42-0.421-2.23
				c0-0.756,0.125-1.469,0.375-2.139c0.25-0.668,0.598-1.248,1.044-1.742c0.445-0.492,0.976-0.881,1.591-1.166
				c0.614-0.283,1.287-0.426,2.017-0.426c0.771,0,1.459,0.146,2.067,0.436c0.608,0.291,1.121,0.688,1.541,1.188
				c0.418,0.5,0.736,1.088,0.952,1.762c0.216,0.676,0.324,1.398,0.324,2.17c0,0.068,0,0.141,0,0.223s-0.007,0.17-0.021,0.264h-8.29
				C338.345,165.876,338.479,166.38,338.696,166.82z M344.999,164.154c-0.04-0.473-0.138-0.924-0.292-1.357
				c-0.154-0.432-0.369-0.811-0.645-1.135s-0.611-0.584-1.007-0.781c-0.396-0.195-0.856-0.293-1.381-0.293
				c-0.456,0-0.88,0.092-1.27,0.273c-0.389,0.182-0.731,0.434-1.027,0.75c-0.295,0.318-0.537,0.693-0.725,1.125
				c-0.188,0.432-0.31,0.906-0.363,1.418H344.999z"/>
			<path fill="#FFFFFF" d="M350.897,169.972h-1.561v-10.479h1.561v1.824c0.352-0.568,0.811-1.051,1.378-1.449
				c0.568-0.398,1.305-0.6,2.21-0.6c0.635,0,1.199,0.102,1.692,0.305s0.912,0.49,1.257,0.861c0.344,0.371,0.607,0.814,0.79,1.328
				s0.273,1.08,0.273,1.703v6.506h-1.561v-6.121c0-0.973-0.25-1.744-0.75-2.311c-0.5-0.568-1.216-0.852-2.148-0.852
				c-0.445,0-0.861,0.078-1.246,0.232c-0.386,0.156-0.72,0.379-1.004,0.67c-0.283,0.289-0.503,0.639-0.658,1.043
				c-0.155,0.406-0.233,0.852-0.233,1.338V169.972z"/>
			<path fill="#FFFFFF" d="M363.92,160.943c-0.507,0.141-1.003,0.326-1.489,0.557l-0.467-1.277c0.581-0.27,1.169-0.482,1.764-0.639
				c0.595-0.154,1.277-0.232,2.047-0.232c1.433,0,2.534,0.354,3.304,1.064c0.771,0.709,1.155,1.76,1.155,3.15v6.406h-1.5v-1.582
				c-0.364,0.475-0.854,0.893-1.469,1.258c-0.615,0.365-1.389,0.547-2.321,0.547c-0.486,0-0.963-0.068-1.429-0.203
				s-0.885-0.342-1.257-0.617c-0.372-0.277-0.669-0.619-0.892-1.023c-0.223-0.406-0.335-0.887-0.335-1.439
				c0-0.555,0.108-1.045,0.325-1.471c0.216-0.426,0.523-0.779,0.922-1.063c0.398-0.285,0.871-0.5,1.419-0.65
				c0.547-0.148,1.151-0.223,1.813-0.223c0.676,0,1.264,0.041,1.764,0.123c0.5,0.08,0.986,0.189,1.459,0.324v-0.365
				c0-0.945-0.273-1.658-0.82-2.139s-1.314-0.719-2.301-0.719C364.991,160.73,364.427,160.8,363.92,160.943z M363.421,165.25
				c-0.525,0.393-0.788,0.926-0.788,1.602c0,0.338,0.07,0.635,0.212,0.891c0.142,0.258,0.334,0.477,0.576,0.658
				c0.242,0.184,0.521,0.322,0.838,0.416c0.316,0.096,0.65,0.143,1.001,0.143c0.484,0,0.938-0.07,1.363-0.213
				c0.424-0.143,0.794-0.338,1.111-0.588c0.316-0.25,0.565-0.547,0.747-0.893c0.182-0.344,0.272-0.725,0.272-1.145v-1.014
				c-0.391-0.107-0.839-0.209-1.343-0.305c-0.506-0.094-1.081-0.141-1.728-0.141C364.7,164.662,363.946,164.857,363.421,165.25z"/>
			<path fill="#FFFFFF" d="M382.506,160.546c0.236-0.256,0.504-0.479,0.801-0.668s0.632-0.338,1.004-0.447
				c0.371-0.107,0.786-0.162,1.246-0.162c1.216,0,2.169,0.375,2.858,1.125c0.688,0.75,1.033,1.781,1.033,3.092v6.486h-1.561v-6.121
				c0-1.014-0.24-1.795-0.72-2.342s-1.146-0.82-1.996-0.82c-0.393,0-0.764,0.07-1.115,0.213c-0.352,0.141-0.658,0.352-0.922,0.627
				c-0.264,0.277-0.474,0.619-0.629,1.025c-0.155,0.404-0.232,0.863-0.232,1.377v6.041h-1.541v-6.162c0-0.986-0.24-1.754-0.72-2.301
				s-1.138-0.82-1.976-0.82c-0.419,0-0.805,0.08-1.155,0.242c-0.352,0.162-0.659,0.393-0.923,0.689
				c-0.263,0.297-0.469,0.646-0.618,1.045c-0.148,0.398-0.223,0.84-0.223,1.326v5.98h-1.561v-10.479h1.561v1.762
				c0.176-0.256,0.368-0.506,0.578-0.75c0.209-0.242,0.448-0.455,0.719-0.637c0.271-0.184,0.574-0.328,0.912-0.438
				c0.338-0.107,0.73-0.162,1.176-0.162c0.852,0,1.554,0.201,2.108,0.6c0.554,0.398,0.973,0.895,1.257,1.488
				C382.057,161.074,382.27,160.804,382.506,160.546z"/>
			<path fill="#FFFFFF" d="M394.191,166.82c0.216,0.439,0.492,0.811,0.831,1.115c0.337,0.303,0.716,0.533,1.135,0.689
				c0.419,0.154,0.857,0.232,1.317,0.232c0.729,0,1.354-0.135,1.875-0.406c0.52-0.27,0.996-0.627,1.429-1.074l0.973,0.873
				c-0.526,0.594-1.128,1.07-1.804,1.428c-0.676,0.359-1.514,0.537-2.514,0.537c-0.716,0-1.392-0.131-2.026-0.395
				c-0.636-0.264-1.191-0.635-1.667-1.115c-0.477-0.479-0.854-1.057-1.135-1.732c-0.281-0.676-0.421-1.42-0.421-2.23
				c0-0.756,0.125-1.469,0.375-2.139c0.25-0.668,0.598-1.248,1.044-1.742c0.445-0.492,0.976-0.881,1.591-1.166
				c0.614-0.283,1.287-0.426,2.017-0.426c0.771,0,1.459,0.146,2.067,0.436c0.608,0.291,1.121,0.688,1.541,1.188
				c0.418,0.5,0.736,1.088,0.952,1.762c0.216,0.676,0.324,1.398,0.324,2.17c0,0.068,0,0.141,0,0.223s-0.007,0.17-0.021,0.264h-8.29
				C393.84,165.876,393.975,166.38,394.191,166.82z M400.494,164.154c-0.04-0.473-0.138-0.924-0.292-1.357
				c-0.154-0.432-0.369-0.811-0.645-1.135s-0.611-0.584-1.007-0.781c-0.396-0.195-0.856-0.293-1.381-0.293
				c-0.456,0-0.88,0.092-1.27,0.273c-0.389,0.182-0.731,0.434-1.027,0.75c-0.295,0.318-0.537,0.693-0.725,1.125
				c-0.188,0.432-0.31,0.906-0.363,1.418H400.494z"/>
			<path fill="#FFFFFF" d="M406.393,169.972h-1.561v-10.479h1.561v1.824c0.352-0.568,0.811-1.051,1.378-1.449
				c0.568-0.398,1.305-0.6,2.21-0.6c0.635,0,1.199,0.102,1.692,0.305s0.912,0.49,1.257,0.861c0.344,0.371,0.607,0.814,0.79,1.328
				s0.273,1.08,0.273,1.703v6.506h-1.561v-6.121c0-0.973-0.25-1.744-0.75-2.311c-0.5-0.568-1.216-0.852-2.148-0.852
				c-0.445,0-0.861,0.078-1.246,0.232c-0.386,0.156-0.72,0.379-1.004,0.67c-0.283,0.289-0.503,0.639-0.658,1.043
				c-0.155,0.406-0.233,0.852-0.233,1.338V169.972z"/>
			<path fill="#FFFFFF" d="M419.425,166.992c0,0.648,0.163,1.102,0.487,1.359c0.324,0.256,0.75,0.385,1.276,0.385
				c0.271,0,0.523-0.027,0.761-0.082c0.235-0.053,0.489-0.148,0.76-0.283v1.338c-0.271,0.148-0.558,0.26-0.861,0.334
				c-0.305,0.074-0.646,0.111-1.023,0.111c-0.419,0-0.812-0.055-1.176-0.162c-0.365-0.107-0.68-0.279-0.942-0.518
				c-0.264-0.234-0.47-0.543-0.618-0.922c-0.149-0.377-0.224-0.83-0.224-1.357v-6.324h-1.459v-1.377h1.459v-3.162h1.561v3.162h3.324
				v1.377h-3.324V166.992z"/>
			<path fill="#FFFFFF" d="M435.063,166.839c-0.276,0.67-0.658,1.254-1.145,1.754s-1.068,0.895-1.743,1.186
				c-0.676,0.291-1.405,0.436-2.189,0.436c-0.783,0-1.507-0.145-2.169-0.436s-1.236-0.682-1.723-1.176
				c-0.486-0.492-0.864-1.07-1.135-1.732s-0.405-1.365-0.405-2.107c0-0.744,0.135-1.449,0.405-2.119
				c0.271-0.668,0.648-1.252,1.135-1.752s1.064-0.896,1.733-1.188c0.669-0.289,1.401-0.436,2.199-0.436
				c0.783,0,1.51,0.146,2.179,0.436c0.669,0.291,1.246,0.684,1.732,1.176c0.487,0.494,0.865,1.072,1.136,1.734
				c0.27,0.662,0.405,1.365,0.405,2.107C435.479,165.466,435.34,166.171,435.063,166.839z M433.583,163.156
				c-0.196-0.5-0.47-0.934-0.82-1.305c-0.352-0.371-0.764-0.664-1.236-0.879c-0.474-0.217-0.987-0.324-1.541-0.324
				c-0.567,0-1.088,0.105-1.561,0.314s-0.875,0.498-1.206,0.869c-0.331,0.369-0.591,0.801-0.78,1.293s-0.284,1.021-0.284,1.588
				s0.099,1.098,0.294,1.598c0.196,0.498,0.467,0.93,0.812,1.293c0.344,0.365,0.753,0.654,1.226,0.869
				c0.473,0.217,0.986,0.324,1.541,0.324c0.567,0,1.087-0.104,1.561-0.314c0.473-0.209,0.878-0.494,1.216-0.859
				c0.338-0.363,0.602-0.791,0.791-1.283c0.188-0.492,0.283-1.021,0.283-1.586C433.877,164.187,433.779,163.654,433.583,163.156z"/>
			<path fill="#FFFFFF" d="M452.787,169.972v-2.109c-0.216,0.313-0.456,0.609-0.719,0.893c-0.264,0.283-0.558,0.533-0.882,0.75
				s-0.687,0.385-1.085,0.508c-0.398,0.121-0.841,0.182-1.327,0.182c-0.636,0-1.25-0.121-1.845-0.365
				c-0.595-0.242-1.128-0.598-1.602-1.064c-0.473-0.465-0.851-1.037-1.135-1.713c-0.283-0.674-0.426-1.445-0.426-2.311
				c0-0.863,0.143-1.635,0.426-2.311c0.284-0.676,0.662-1.246,1.135-1.713c0.474-0.465,1.007-0.824,1.602-1.074
				s1.209-0.375,1.845-0.375c0.486,0,0.933,0.063,1.338,0.184s0.77,0.283,1.094,0.486c0.325,0.203,0.618,0.439,0.882,0.709
				c0.264,0.271,0.497,0.555,0.699,0.852v-6.324h1.562v14.797H452.787z M452.534,163.068c-0.21-0.496-0.493-0.92-0.852-1.27
				s-0.764-0.621-1.216-0.816c-0.453-0.195-0.922-0.293-1.409-0.293c-0.514,0-0.993,0.09-1.438,0.271
				c-0.446,0.182-0.835,0.443-1.166,0.787c-0.331,0.342-0.595,0.766-0.79,1.27c-0.196,0.506-0.294,1.072-0.294,1.705
				c0,0.619,0.098,1.176,0.294,1.674c0.195,0.498,0.463,0.924,0.801,1.281c0.337,0.355,0.729,0.629,1.176,0.816
				c0.445,0.188,0.918,0.281,1.418,0.281c0.487,0,0.956-0.096,1.409-0.291c0.452-0.195,0.857-0.467,1.216-0.816
				s0.642-0.777,0.852-1.281c0.209-0.504,0.314-1.059,0.314-1.664S452.743,163.566,452.534,163.068z"/>
			<path fill="#FFFFFF" d="M459.192,166.82c0.216,0.439,0.492,0.811,0.831,1.115c0.337,0.303,0.716,0.533,1.135,0.689
				c0.419,0.154,0.857,0.232,1.317,0.232c0.729,0,1.354-0.135,1.875-0.406c0.52-0.27,0.996-0.627,1.429-1.074l0.973,0.873
				c-0.526,0.594-1.128,1.07-1.804,1.428c-0.676,0.359-1.514,0.537-2.514,0.537c-0.716,0-1.392-0.131-2.026-0.395
				c-0.636-0.264-1.191-0.635-1.667-1.115c-0.477-0.479-0.854-1.057-1.135-1.732c-0.281-0.676-0.421-1.42-0.421-2.23
				c0-0.756,0.125-1.469,0.375-2.139c0.25-0.668,0.598-1.248,1.044-1.742c0.445-0.492,0.976-0.881,1.591-1.166
				c0.614-0.283,1.287-0.426,2.017-0.426c0.771,0,1.459,0.146,2.067,0.436c0.608,0.291,1.121,0.688,1.541,1.188
				c0.418,0.5,0.736,1.088,0.952,1.762c0.216,0.676,0.324,1.398,0.324,2.17c0,0.068,0,0.141,0,0.223s-0.007,0.17-0.021,0.264h-8.29
				C458.841,165.876,458.976,166.38,459.192,166.82z M465.495,164.154c-0.04-0.473-0.138-0.924-0.292-1.357
				c-0.154-0.432-0.369-0.811-0.645-1.135s-0.611-0.584-1.007-0.781c-0.396-0.195-0.856-0.293-1.381-0.293
				c-0.456,0-0.88,0.092-1.27,0.273c-0.389,0.182-0.731,0.434-1.027,0.75c-0.295,0.318-0.537,0.693-0.725,1.125
				c-0.188,0.432-0.31,0.906-0.363,1.418H465.495z"/>
		</g>
		<g>
			<path fill="#FFFFFF" d="M270.639,181.719l10.438-3.116h5.447v36.583h-7.879V186.71l-6.334,1.545L270.639,181.719z"/>
			<path fill="#FFFFFF" d="M294.099,197.123v-0.102c0-2.635,0.389-5.092,1.166-7.372s1.876-4.265,3.296-5.953
				c1.42-1.689,3.122-3.02,5.109-3.99c1.985-0.972,4.195-1.457,6.63-1.457c2.383,0,4.567,0.473,6.554,1.419s3.681,2.259,5.084,3.939
				c1.402,1.681,2.492,3.661,3.271,5.94c0.777,2.28,1.166,4.738,1.166,7.373v0.101c0,2.635-0.389,5.093-1.166,7.373
				c-0.778,2.279-1.877,4.269-3.296,5.966c-1.42,1.697-3.128,3.032-5.122,4.003s-4.2,1.457-6.617,1.457s-4.619-0.478-6.604-1.432
				c-1.986-0.954-3.681-2.271-5.084-3.952c-1.402-1.681-2.484-3.661-3.245-5.941C294.479,202.215,294.099,199.757,294.099,197.123z
				 M302.307,196.958c0,1.657,0.189,3.196,0.568,4.616c0.38,1.421,0.915,2.643,1.606,3.665s1.53,1.83,2.518,2.422
				c0.986,0.592,2.086,0.888,3.301,0.888c1.214,0,2.301-0.287,3.263-0.862c0.961-0.574,1.787-1.374,2.479-2.396
				c0.691-1.023,1.219-2.231,1.581-3.627c0.362-1.395,0.544-2.93,0.544-4.604v-0.102c0-1.656-0.19-3.187-0.569-4.59
				s-0.923-2.625-1.632-3.665c-0.708-1.04-1.556-1.855-2.542-2.447s-2.069-0.888-3.25-0.888c-1.214,0-2.302,0.288-3.263,0.862
				c-0.961,0.575-1.779,1.374-2.454,2.396c-0.674,1.023-1.201,2.236-1.581,3.64c-0.379,1.403-0.568,2.934-0.568,4.591V196.958z"/>
			<path fill="#FFFFFF" d="M346.592,207.206v-0.102c0-1.52,0.274-2.837,0.823-3.952c0.549-1.114,1.317-2.035,2.306-2.761
				c0.987-0.727,2.166-1.271,3.534-1.635c1.367-0.362,2.879-0.544,4.534-0.544c1.419,0,2.656,0.105,3.712,0.316
				c1.055,0.211,2.081,0.485,3.078,0.823v-0.46c0-1.671-0.499-2.944-1.495-3.822s-2.482-1.316-4.459-1.316
				c-1.52,0-2.858,0.133-4.016,0.397c-1.156,0.265-2.377,0.645-3.66,1.14l-1.977-6.013c1.521-0.653,3.112-1.186,4.775-1.597
				c1.664-0.411,3.67-0.616,6.018-0.616c2.179,0,4.036,0.266,5.573,0.798s2.813,1.305,3.825,2.318c1.03,1.03,1.786,2.297,2.268,3.8
				c0.481,1.504,0.723,3.192,0.723,5.067v16.138h-7.626v-3.015c-0.963,1.063-2.115,1.917-3.458,2.559s-2.985,0.963-4.928,0.963
				c-1.317,0-2.555-0.182-3.712-0.545c-1.156-0.363-2.17-0.907-3.04-1.634s-1.554-1.613-2.052-2.66S346.592,208.59,346.592,207.206z
				 M354.217,206.876c0,1.063,0.397,1.892,1.191,2.482c0.793,0.592,1.832,0.887,3.116,0.887c1.874,0,3.369-0.447,4.483-1.343
				c1.115-0.895,1.673-2.068,1.673-3.521v-1.394c-0.693-0.304-1.462-0.553-2.306-0.747c-0.845-0.193-1.748-0.291-2.711-0.291
				c-1.689,0-3.02,0.325-3.99,0.976c-0.972,0.65-1.457,1.6-1.457,2.85V206.876z"/>
			<path fill="#FFFFFF" d="M378.943,215.186v-27.817h7.879v3.938c0.457-0.589,0.952-1.148,1.486-1.679
				c0.533-0.53,1.126-1.006,1.777-1.427c0.652-0.421,1.381-0.749,2.185-0.985c0.805-0.235,1.706-0.354,2.705-0.354
				c3.008,0,5.335,0.917,6.982,2.749c1.647,1.833,2.472,4.354,2.472,7.563v18.013h-7.879v-15.523c0-1.877-0.419-3.292-1.258-4.248
				c-0.838-0.955-2.02-1.434-3.543-1.434c-1.524,0-2.727,0.479-3.607,1.434c-0.88,0.956-1.32,2.371-1.32,4.248v15.523H378.943z"/>
			<path fill="#FFFFFF" d="M409.901,201.429v-0.101c0-2.01,0.38-3.885,1.14-5.625c0.761-1.739,1.815-3.268,3.167-4.585
				s2.943-2.356,4.775-3.116c1.833-0.76,3.839-1.141,6.018-1.141c2.145,0,4.133,0.372,5.966,1.115
				c1.832,0.743,3.416,1.761,4.75,3.053s2.382,2.813,3.142,4.561s1.141,3.627,1.141,5.637v0.102c0,2.01-0.381,3.889-1.141,5.637
				s-1.815,3.276-3.167,4.585c-1.352,1.31-2.942,2.348-4.775,3.116s-3.838,1.153-6.017,1.153c-2.146,0-4.134-0.372-5.967-1.115
				c-1.832-0.743-3.416-1.765-4.75-3.065c-1.334-1.3-2.381-2.824-3.142-4.573C410.281,205.318,409.901,203.44,409.901,201.429z
				 M417.679,201.341c0,1.028,0.173,2.002,0.52,2.921c0.346,0.919,0.849,1.732,1.508,2.44c0.658,0.709,1.427,1.27,2.305,1.683
				c0.879,0.413,1.875,0.619,2.99,0.619c1.148,0,2.161-0.198,3.04-0.594c0.878-0.396,1.63-0.94,2.255-1.632
				c0.624-0.691,1.102-1.492,1.431-2.402c0.33-0.911,0.494-1.889,0.494-2.935v-0.101c0-1.029-0.173-2.003-0.52-2.922
				c-0.346-0.919-0.849-1.732-1.507-2.44c-0.659-0.708-1.44-1.269-2.344-1.682s-1.888-0.62-2.951-0.62
				c-1.148,0-2.162,0.198-3.04,0.595c-0.879,0.396-1.63,0.939-2.255,1.631s-1.103,1.496-1.432,2.416
				c-0.329,0.919-0.494,1.893-0.494,2.921V201.341z"/>
			<path fill="#FFFFFF" d="M443.495,211.286l3.369-5.169c1.521,1.072,3.036,1.872,4.548,2.4c1.512,0.527,2.917,0.791,4.218,0.791
				c1.148,0,1.993-0.182,2.534-0.548c0.54-0.365,0.811-0.849,0.811-1.45v-0.098c0-0.405-0.156-0.759-0.469-1.06
				s-0.739-0.557-1.279-0.768c-0.541-0.211-1.157-0.418-1.85-0.621s-1.419-0.422-2.179-0.657c-0.963-0.268-1.938-0.603-2.926-1.005
				c-0.988-0.402-1.88-0.917-2.673-1.546c-0.795-0.629-1.44-1.407-1.938-2.338s-0.747-2.065-0.747-3.406v-0.101
				c0-1.407,0.266-2.651,0.798-3.732s1.258-1.999,2.179-2.753c0.92-0.754,1.992-1.319,3.218-1.697
				c1.224-0.376,2.546-0.565,3.965-0.565c1.756,0,3.542,0.298,5.357,0.892s3.492,1.423,5.029,2.486l-3.015,5.492
				c-1.386-0.764-2.736-1.368-4.054-1.815c-1.317-0.446-2.475-0.67-3.471-0.67c-0.963,0-1.689,0.175-2.179,0.523
				c-0.49,0.35-0.734,0.784-0.734,1.304v0.098c0,0.374,0.155,0.702,0.469,0.986c0.312,0.284,0.726,0.549,1.241,0.793
				c0.515,0.243,1.11,0.482,1.786,0.719c0.675,0.235,1.393,0.467,2.153,0.694c0.963,0.292,1.946,0.657,2.951,1.094
				c1.005,0.438,1.908,0.967,2.711,1.588c0.802,0.622,1.461,1.378,1.976,2.269c0.516,0.891,0.773,1.976,0.773,3.252v0.102
				c0,1.546-0.267,2.878-0.799,3.995c-0.531,1.118-1.283,2.038-2.254,2.761c-0.972,0.723-2.107,1.265-3.408,1.626
				s-2.694,0.542-4.18,0.542c-1.977,0-3.99-0.353-6.042-1.055C447.333,213.934,445.37,212.817,443.495,211.286z"/>
		</g>
		<g>
			<path fill="#FFFFFF" d="M279.553,236.943v-2.107c-0.217,0.311-0.457,0.607-0.721,0.891c-0.264,0.285-0.557,0.535-0.881,0.75
				c-0.324,0.217-0.686,0.386-1.084,0.508c-0.399,0.121-0.842,0.182-1.328,0.182c-0.635,0-1.25-0.121-1.845-0.365
				c-0.595-0.242-1.128-0.598-1.601-1.063c-0.474-0.466-0.852-1.036-1.136-1.713c-0.284-0.675-0.425-1.445-0.425-2.311
				c0-0.864,0.141-1.635,0.425-2.311c0.284-0.675,0.662-1.247,1.136-1.713c0.473-0.466,1.006-0.823,1.601-1.074
				c0.595-0.249,1.21-0.375,1.845-0.375c0.486,0,0.932,0.062,1.338,0.183c0.405,0.121,0.77,0.283,1.094,0.486
				s0.619,0.439,0.883,0.709c0.263,0.271,0.496,0.555,0.699,0.852v-6.324h1.561v14.797H279.553z M279.299,230.04
				c-0.21-0.497-0.494-0.921-0.852-1.271s-0.764-0.621-1.216-0.816c-0.453-0.195-0.923-0.293-1.409-0.293
				c-0.514,0-0.992,0.091-1.438,0.272s-0.835,0.444-1.165,0.786c-0.332,0.344-0.596,0.767-0.791,1.271
				c-0.196,0.504-0.294,1.072-0.294,1.703c0,0.619,0.098,1.177,0.294,1.674c0.195,0.498,0.463,0.926,0.801,1.281
				c0.338,0.356,0.729,0.629,1.176,0.816c0.445,0.188,0.918,0.283,1.418,0.283c0.486,0,0.956-0.098,1.409-0.293
				c0.452-0.195,0.858-0.467,1.216-0.816s0.642-0.777,0.852-1.281c0.209-0.504,0.314-1.059,0.314-1.664
				C279.613,231.088,279.508,230.537,279.299,230.04z"/>
			<path fill="#FFFFFF" d="M294.459,233.812c-0.277,0.668-0.658,1.253-1.145,1.752c-0.486,0.5-1.068,0.896-1.744,1.187
				s-1.404,0.436-2.188,0.436s-1.507-0.146-2.169-0.436s-1.236-0.683-1.723-1.176s-0.865-1.071-1.135-1.733
				c-0.271-0.662-0.405-1.364-0.405-2.107s0.135-1.449,0.405-2.118c0.27-0.669,0.648-1.253,1.135-1.753s1.064-0.896,1.733-1.186
				c0.669-0.291,1.401-0.437,2.198-0.437c0.784,0,1.511,0.146,2.18,0.437c0.669,0.29,1.246,0.682,1.732,1.176
				c0.486,0.492,0.865,1.07,1.135,1.732c0.271,0.662,0.406,1.365,0.406,2.107C294.875,232.437,294.736,233.142,294.459,233.812z
				 M292.979,230.126c-0.196-0.498-0.47-0.934-0.821-1.305c-0.352-0.37-0.763-0.663-1.236-0.879
				c-0.473-0.216-0.986-0.324-1.54-0.324c-0.567,0-1.088,0.105-1.561,0.314c-0.474,0.209-0.875,0.498-1.206,0.869
				s-0.592,0.802-0.78,1.294c-0.189,0.492-0.284,1.021-0.284,1.587s0.098,1.099,0.295,1.598c0.195,0.498,0.466,0.93,0.811,1.294
				c0.344,0.364,0.753,0.653,1.227,0.869c0.473,0.216,0.985,0.323,1.539,0.323c0.568,0,1.088-0.104,1.562-0.313
				c0.473-0.209,0.878-0.496,1.216-0.859c0.338-0.365,0.602-0.793,0.791-1.285c0.188-0.491,0.283-1.02,0.283-1.586
				S293.176,230.625,292.979,230.126z"/>
			<path fill="#FFFFFF" d="M304.594,235.332c-0.195,0.385-0.459,0.713-0.791,0.982c-0.33,0.271-0.723,0.477-1.175,0.619
				c-0.453,0.142-0.942,0.213-1.47,0.213c-0.757,0-1.52-0.139-2.29-0.416s-1.453-0.652-2.048-1.125l0.791-1.115
				c0.567,0.434,1.158,0.764,1.773,0.994c0.615,0.229,1.232,0.344,1.854,0.344c0.636,0,1.155-0.148,1.562-0.445
				c0.404-0.297,0.607-0.703,0.607-1.217v-0.04c0-0.257-0.07-0.479-0.213-0.669s-0.334-0.354-0.578-0.496
				c-0.242-0.143-0.523-0.268-0.841-0.375c-0.317-0.108-0.646-0.209-0.983-0.305c-0.404-0.121-0.814-0.253-1.226-0.395
				c-0.413-0.143-0.784-0.321-1.114-0.537c-0.332-0.217-0.602-0.486-0.812-0.811s-0.313-0.73-0.313-1.217v-0.041
				c0-0.445,0.087-0.854,0.263-1.226s0.423-0.689,0.739-0.952c0.318-0.264,0.696-0.467,1.136-0.609
				c0.438-0.141,0.915-0.212,1.429-0.212c0.648,0,1.305,0.104,1.967,0.313c0.662,0.21,1.263,0.49,1.803,0.842l-0.709,1.176
				c-0.486-0.311-0.996-0.558-1.529-0.74c-0.535-0.183-1.059-0.273-1.571-0.273c-0.622,0-1.115,0.145-1.479,0.436
				c-0.365,0.291-0.548,0.652-0.548,1.084v0.041c0,0.243,0.074,0.456,0.224,0.639c0.148,0.182,0.348,0.342,0.598,0.477
				s0.537,0.256,0.861,0.364s0.662,0.216,1.014,0.324c0.405,0.122,0.807,0.257,1.205,0.405s0.761,0.338,1.085,0.568
				c0.324,0.229,0.585,0.506,0.78,0.83s0.294,0.724,0.294,1.196v0.04C304.888,234.503,304.789,234.947,304.594,235.332z"/>
			<path fill="#FFFFFF" d="M315.873,222.755v14.188h-1.602v-14.188H315.873z"/>
			<path fill="#FFFFFF" d="M331.621,230.882c0,1.041-0.142,1.953-0.426,2.736c-0.283,0.784-0.686,1.439-1.205,1.967
				c-0.521,0.526-1.143,0.922-1.865,1.186s-1.53,0.395-2.422,0.395c-0.879,0-1.68-0.131-2.402-0.395s-1.344-0.656-1.864-1.176
				s-0.923-1.166-1.206-1.936c-0.284-0.771-0.426-1.655-0.426-2.656v-8.248h1.602v8.147c0,1.54,0.381,2.724,1.145,3.547
				c0.764,0.825,1.828,1.236,3.192,1.236c1.311,0,2.352-0.392,3.122-1.175c0.77-0.784,1.154-1.953,1.154-3.508v-8.248h1.602V230.882
				z"/>
			<path fill="#FFFFFF" d="M342.222,233.051h-0.081l-5.168-7.581v11.473h-1.561v-14.188h1.621l5.168,7.742l5.169-7.742h1.622v14.188
				h-1.602v-11.492L342.222,233.051z"/>
			<path fill="#FFFFFF" d="M359.643,235.332c-0.195,0.385-0.459,0.713-0.791,0.982c-0.33,0.271-0.723,0.477-1.175,0.619
				c-0.453,0.142-0.942,0.213-1.47,0.213c-0.757,0-1.52-0.139-2.29-0.416s-1.453-0.652-2.048-1.125l0.791-1.115
				c0.567,0.434,1.158,0.764,1.773,0.994c0.615,0.229,1.232,0.344,1.854,0.344c0.636,0,1.155-0.148,1.562-0.445
				c0.404-0.297,0.607-0.703,0.607-1.217v-0.04c0-0.257-0.07-0.479-0.213-0.669s-0.334-0.354-0.578-0.496
				c-0.242-0.143-0.523-0.268-0.841-0.375c-0.317-0.108-0.646-0.209-0.983-0.305c-0.404-0.121-0.814-0.253-1.226-0.395
				c-0.413-0.143-0.784-0.321-1.114-0.537c-0.332-0.217-0.602-0.486-0.812-0.811s-0.313-0.73-0.313-1.217v-0.041
				c0-0.445,0.087-0.854,0.263-1.226s0.423-0.689,0.739-0.952c0.318-0.264,0.696-0.467,1.136-0.609
				c0.438-0.141,0.915-0.212,1.429-0.212c0.648,0,1.305,0.104,1.967,0.313c0.662,0.21,1.263,0.49,1.803,0.842l-0.709,1.176
				c-0.486-0.311-0.996-0.558-1.529-0.74c-0.535-0.183-1.059-0.273-1.571-0.273c-0.622,0-1.115,0.145-1.479,0.436
				c-0.365,0.291-0.548,0.652-0.548,1.084v0.041c0,0.243,0.074,0.456,0.224,0.639c0.148,0.182,0.348,0.342,0.598,0.477
				s0.537,0.256,0.861,0.364s0.662,0.216,1.014,0.324c0.405,0.122,0.807,0.257,1.205,0.405s0.761,0.338,1.085,0.568
				c0.324,0.229,0.585,0.506,0.78,0.83s0.294,0.724,0.294,1.196v0.04C359.937,234.503,359.838,234.947,359.643,235.332z"/>
			<path fill="#FFFFFF" d="M376.121,236.611c-0.67,0.383-1.497,0.575-2.483,0.575c-0.771,0-1.483-0.146-2.139-0.436
				s-1.223-0.683-1.702-1.176c-0.48-0.493-0.855-1.071-1.125-1.733c-0.271-0.662-0.405-1.364-0.405-2.107s0.135-1.449,0.405-2.118
				c0.27-0.669,0.645-1.253,1.125-1.753c0.479-0.5,1.047-0.896,1.702-1.186c0.655-0.291,1.368-0.437,2.139-0.437
				c0.499,0,0.952,0.048,1.358,0.142c0.404,0.096,0.776,0.227,1.114,0.396c0.338,0.168,0.648,0.367,0.933,0.598
				c0.283,0.229,0.547,0.473,0.79,0.729l-1.034,1.096c-0.418-0.433-0.875-0.805-1.367-1.115c-0.494-0.311-1.098-0.467-1.814-0.467
				c-0.527,0-1.02,0.105-1.479,0.314s-0.858,0.498-1.196,0.869s-0.602,0.802-0.79,1.294c-0.189,0.492-0.284,1.021-0.284,1.587
				s0.098,1.099,0.295,1.598c0.195,0.498,0.466,0.934,0.811,1.305c0.344,0.369,0.75,0.66,1.216,0.869s0.976,0.313,1.53,0.313
				c0.676,0,1.273-0.148,1.794-0.445s0.989-0.67,1.409-1.115l0.992,0.933C377.387,235.736,376.789,236.226,376.121,236.611z"/>
			<path fill="#FFFFFF" d="M390.045,233.812c-0.277,0.668-0.658,1.253-1.145,1.752c-0.486,0.5-1.068,0.896-1.744,1.187
				s-1.404,0.436-2.188,0.436s-1.507-0.146-2.169-0.436s-1.236-0.683-1.723-1.176s-0.865-1.071-1.135-1.733
				c-0.271-0.662-0.405-1.364-0.405-2.107s0.135-1.449,0.405-2.118c0.27-0.669,0.648-1.253,1.135-1.753s1.064-0.896,1.733-1.186
				c0.669-0.291,1.401-0.437,2.198-0.437c0.784,0,1.511,0.146,2.18,0.437c0.669,0.29,1.246,0.682,1.732,1.176
				c0.486,0.492,0.865,1.07,1.135,1.732c0.271,0.662,0.406,1.365,0.406,2.107C390.461,232.437,390.322,233.142,390.045,233.812z
				 M388.565,230.126c-0.196-0.498-0.47-0.934-0.821-1.305c-0.352-0.37-0.763-0.663-1.236-0.879
				c-0.473-0.216-0.986-0.324-1.54-0.324c-0.567,0-1.088,0.105-1.561,0.314c-0.474,0.209-0.875,0.498-1.206,0.869
				s-0.592,0.802-0.78,1.294c-0.189,0.492-0.284,1.021-0.284,1.587s0.098,1.099,0.295,1.598c0.195,0.498,0.466,0.93,0.811,1.294
				c0.344,0.364,0.753,0.653,1.227,0.869c0.473,0.216,0.985,0.323,1.539,0.323c0.568,0,1.088-0.104,1.562-0.313
				c0.473-0.209,0.878-0.496,1.216-0.859c0.338-0.365,0.602-0.793,0.791-1.285c0.188-0.491,0.283-1.02,0.283-1.586
				S388.762,230.625,388.565,230.126z"/>
			<path fill="#FFFFFF" d="M393.42,236.943v-14.797h1.561v14.797H393.42z"/>
			<path fill="#FFFFFF" d="M399.967,233.791c0.215,0.439,0.492,0.812,0.83,1.115c0.338,0.305,0.717,0.534,1.136,0.689
				s0.858,0.232,1.317,0.232c0.729,0,1.354-0.135,1.875-0.404c0.52-0.271,0.996-0.629,1.429-1.074l0.973,0.871
				c-0.526,0.595-1.128,1.07-1.804,1.429s-1.514,0.537-2.514,0.537c-0.716,0-1.392-0.132-2.026-0.396
				c-0.636-0.264-1.19-0.635-1.667-1.114s-0.854-1.058-1.135-1.733c-0.281-0.676-0.421-1.418-0.421-2.229
				c0-0.757,0.124-1.47,0.375-2.138c0.249-0.67,0.598-1.25,1.044-1.744c0.445-0.492,0.976-0.881,1.591-1.165
				c0.614-0.284,1.287-0.426,2.017-0.426c0.771,0,1.459,0.146,2.067,0.437c0.608,0.29,1.122,0.686,1.54,1.186
				c0.419,0.5,0.736,1.088,0.953,1.764c0.216,0.676,0.324,1.398,0.324,2.168c0,0.068,0,0.143,0,0.223c0,0.082-0.007,0.17-0.02,0.264
				h-8.291C399.615,232.849,399.75,233.352,399.967,233.791z M406.27,231.126c-0.04-0.474-0.137-0.926-0.292-1.359
				c-0.154-0.432-0.369-0.811-0.645-1.135s-0.611-0.584-1.007-0.779c-0.396-0.196-0.857-0.295-1.381-0.295
				c-0.457,0-0.879,0.092-1.27,0.273c-0.389,0.184-0.731,0.434-1.027,0.75c-0.295,0.318-0.537,0.693-0.725,1.125
				c-0.188,0.434-0.309,0.906-0.363,1.42H406.27z"/>
			<path fill="#FFFFFF" d="M412.715,233.963c0,0.648,0.162,1.102,0.486,1.358c0.324,0.256,0.75,0.385,1.277,0.385
				c0.271,0,0.523-0.027,0.76-0.081s0.49-0.148,0.761-0.284v1.338c-0.271,0.148-0.558,0.261-0.862,0.334
				c-0.303,0.074-0.645,0.112-1.023,0.112c-0.418,0-0.811-0.054-1.175-0.162c-0.365-0.108-0.679-0.28-0.942-0.517
				s-0.471-0.545-0.619-0.923s-0.223-0.831-0.223-1.358v-6.323h-1.459v-1.378h1.459v-3.162h1.561v3.162h3.324v1.378h-3.324V233.963z
				"/>
			<path fill="#FFFFFF" d="M420.894,227.914c-0.507,0.142-1.003,0.327-1.489,0.557l-0.467-1.277c0.581-0.27,1.169-0.482,1.764-0.638
				c0.594-0.155,1.277-0.233,2.047-0.233c1.432,0,2.533,0.355,3.305,1.064c0.77,0.709,1.154,1.76,1.154,3.152v6.404h-1.5v-1.581
				c-0.364,0.474-0.854,0.892-1.469,1.257c-0.615,0.365-1.389,0.547-2.32,0.547c-0.487,0-0.963-0.067-1.43-0.202
				c-0.467-0.136-0.885-0.341-1.257-0.618s-0.669-0.619-0.892-1.023c-0.223-0.406-0.334-0.885-0.334-1.439
				c0-0.554,0.107-1.044,0.324-1.47c0.216-0.425,0.523-0.78,0.922-1.063c0.398-0.284,0.871-0.5,1.419-0.648
				c0.547-0.148,1.151-0.224,1.813-0.224c0.676,0,1.264,0.04,1.764,0.122c0.5,0.08,0.986,0.189,1.459,0.324v-0.365
				c0-0.945-0.273-1.658-0.82-2.139c-0.547-0.479-1.314-0.719-2.301-0.719C421.965,227.701,421.4,227.771,420.894,227.914z
				 M420.395,232.22c-0.525,0.393-0.788,0.926-0.788,1.602c0,0.338,0.071,0.635,0.212,0.892c0.142,0.257,0.334,0.476,0.576,0.659
				c0.242,0.182,0.521,0.32,0.838,0.415s0.65,0.142,1,0.142c0.485,0,0.939-0.07,1.363-0.213c0.426-0.142,0.795-0.338,1.111-0.588
				s0.566-0.547,0.748-0.892s0.272-0.726,0.272-1.146v-1.014c-0.391-0.107-0.839-0.209-1.343-0.303
				c-0.506-0.095-1.082-0.143-1.728-0.143C421.674,231.632,420.92,231.829,420.395,232.22z"/>
			<path fill="#FFFFFF" d="M438.943,236.943v-2.107c-0.217,0.311-0.457,0.607-0.721,0.891c-0.264,0.285-0.557,0.535-0.881,0.75
				c-0.324,0.217-0.686,0.386-1.084,0.508c-0.399,0.121-0.842,0.182-1.328,0.182c-0.635,0-1.25-0.121-1.845-0.365
				c-0.595-0.242-1.128-0.598-1.601-1.063c-0.474-0.466-0.852-1.036-1.136-1.713c-0.284-0.675-0.425-1.445-0.425-2.311
				c0-0.864,0.141-1.635,0.425-2.311c0.284-0.675,0.662-1.247,1.136-1.713c0.473-0.466,1.006-0.823,1.601-1.074
				c0.595-0.249,1.21-0.375,1.845-0.375c0.486,0,0.932,0.062,1.338,0.183c0.405,0.121,0.77,0.283,1.094,0.486
				s0.619,0.439,0.883,0.709c0.263,0.271,0.496,0.555,0.699,0.852v-6.324h1.561v14.797H438.943z M438.689,230.04
				c-0.21-0.497-0.494-0.921-0.852-1.271s-0.764-0.621-1.216-0.816c-0.453-0.195-0.923-0.293-1.409-0.293
				c-0.514,0-0.992,0.091-1.438,0.272s-0.835,0.444-1.165,0.786c-0.332,0.344-0.596,0.767-0.791,1.271
				c-0.196,0.504-0.294,1.072-0.294,1.703c0,0.619,0.098,1.177,0.294,1.674c0.195,0.498,0.463,0.926,0.801,1.281
				c0.338,0.356,0.729,0.629,1.176,0.816c0.445,0.188,0.918,0.283,1.418,0.283c0.486,0,0.956-0.098,1.409-0.293
				c0.452-0.195,0.858-0.467,1.216-0.816s0.642-0.777,0.852-1.281c0.209-0.504,0.314-1.059,0.314-1.664
				C439.004,231.088,438.898,230.537,438.689,230.04z"/>
			<path fill="#FFFFFF" d="M453.85,233.812c-0.277,0.668-0.658,1.253-1.145,1.752c-0.486,0.5-1.068,0.896-1.744,1.187
				s-1.404,0.436-2.188,0.436s-1.507-0.146-2.169-0.436s-1.236-0.683-1.723-1.176s-0.865-1.071-1.135-1.733
				c-0.271-0.662-0.405-1.364-0.405-2.107s0.135-1.449,0.405-2.118c0.27-0.669,0.648-1.253,1.135-1.753s1.064-0.896,1.733-1.186
				c0.669-0.291,1.401-0.437,2.198-0.437c0.784,0,1.511,0.146,2.18,0.437c0.669,0.29,1.246,0.682,1.732,1.176
				c0.486,0.492,0.865,1.07,1.135,1.732c0.271,0.662,0.406,1.365,0.406,2.107C454.266,232.437,454.127,233.142,453.85,233.812z
				 M452.37,230.126c-0.196-0.498-0.47-0.934-0.821-1.305c-0.352-0.37-0.763-0.663-1.236-0.879c-0.473-0.216-0.986-0.324-1.54-0.324
				c-0.567,0-1.088,0.105-1.561,0.314c-0.474,0.209-0.875,0.498-1.206,0.869s-0.592,0.802-0.78,1.294
				c-0.189,0.492-0.284,1.021-0.284,1.587s0.098,1.099,0.295,1.598c0.195,0.498,0.466,0.93,0.811,1.294
				c0.344,0.364,0.753,0.653,1.227,0.869c0.473,0.216,0.985,0.323,1.539,0.323c0.568,0,1.088-0.104,1.562-0.313
				c0.473-0.209,0.878-0.496,1.216-0.859c0.338-0.365,0.602-0.793,0.791-1.285c0.188-0.491,0.283-1.02,0.283-1.586
				S452.566,230.625,452.37,230.126z"/>
			<path fill="#FFFFFF" d="M463.984,235.332c-0.195,0.385-0.459,0.713-0.791,0.982c-0.33,0.271-0.723,0.477-1.175,0.619
				c-0.453,0.142-0.942,0.213-1.47,0.213c-0.757,0-1.52-0.139-2.29-0.416s-1.453-0.652-2.048-1.125l0.791-1.115
				c0.567,0.434,1.158,0.764,1.773,0.994c0.615,0.229,1.232,0.344,1.854,0.344c0.636,0,1.155-0.148,1.562-0.445
				c0.404-0.297,0.607-0.703,0.607-1.217v-0.04c0-0.257-0.07-0.479-0.213-0.669s-0.334-0.354-0.578-0.496
				c-0.242-0.143-0.523-0.268-0.841-0.375c-0.317-0.108-0.646-0.209-0.983-0.305c-0.404-0.121-0.814-0.253-1.226-0.395
				c-0.413-0.143-0.784-0.321-1.114-0.537c-0.332-0.217-0.602-0.486-0.812-0.811s-0.313-0.73-0.313-1.217v-0.041
				c0-0.445,0.087-0.854,0.263-1.226s0.423-0.689,0.739-0.952c0.318-0.264,0.696-0.467,1.136-0.609
				c0.438-0.141,0.915-0.212,1.429-0.212c0.648,0,1.305,0.104,1.967,0.313c0.662,0.21,1.263,0.49,1.803,0.842l-0.709,1.176
				c-0.486-0.311-0.996-0.558-1.529-0.74c-0.535-0.183-1.059-0.273-1.571-0.273c-0.622,0-1.115,0.145-1.479,0.436
				c-0.365,0.291-0.548,0.652-0.548,1.084v0.041c0,0.243,0.074,0.456,0.224,0.639c0.148,0.182,0.348,0.342,0.598,0.477
				s0.537,0.256,0.861,0.364s0.662,0.216,1.014,0.324c0.405,0.122,0.807,0.257,1.205,0.405s0.761,0.338,1.085,0.568
				c0.324,0.229,0.585,0.506,0.78,0.83s0.294,0.724,0.294,1.196v0.04C464.278,234.503,464.18,234.947,463.984,235.332z"/>
			<path fill="#FFFFFF" d="M466.994,236.943v-2.129h1.865v2.129H466.994z"/>
		</g>
	</g>
</g>
</svg>
