<?xml version="1.0" encoding="UTF-8" standalone="no"?>
<!-- Generator: Adobe Illustrator 16.0.0, SVG Export Plug-In . SVG Version: 6.00 Build 0)  -->
<!DOCTYPE svg  PUBLIC '-//W3C//DTD SVG 1.1//EN'  'http://www.w3.org/Graphics/SVG/1.1/DTD/svg11.dtd' [
	<!ENTITY ns_flows "http://ns.adobe.com/Flows/1.0/">
	<!ENTITY ns_extend "http://ns.adobe.com/Extensibility/1.0/">
	<!ENTITY ns_ai "http://ns.adobe.com/AdobeIllustrator/10.0/">
	<!ENTITY ns_graphs "http://ns.adobe.com/Graphs/1.0/">
	<!ENTITY ns_vars "http://ns.adobe.com/Variables/1.0/">
	<!ENTITY ns_imrep "http://ns.adobe.com/ImageReplacement/1.0/">
	<!ENTITY ns_sfw "http://ns.adobe.com/SaveForWeb/1.0/">
	<!ENTITY ns_custom "http://ns.adobe.com/GenericCustomNamespace/1.0/">
	<!ENTITY ns_adobe_xpath "http://ns.adobe.com/XPath/1.0/">
]>
<svg id="Layer_1" xmlns="http://www.w3.org/2000/svg" enable-background="new 0 0 500 265" xml:space="preserve" height="265px" viewBox="0 0 500 265" width="500px" version="1.1" y="0px" x="0px" xmlns:xlink="http://www.w3.org/1999/xlink">
<metadata>
<x:xmpmeta x:xmptk="Adobe XMP Core 5.3-c011 66.145661, 2012/02/06-14:56:27        " xmlns:x="adobe:ns:meta/">
   <rdf:RDF xmlns:rdf="http://www.w3.org/1999/02/22-rdf-syntax-ns#">
      <rdf:Description xmlns:stRef="http://ns.adobe.com/xap/1.0/sType/ResourceRef#" rdf:about="" xmlns:xmpMM="http://ns.adobe.com/xap/1.0/mm/" xmlns:stEvt="http://ns.adobe.com/xap/1.0/sType/ResourceEvent#">
         <xmpMM:RenditionClass>proof:pdf</xmpMM:RenditionClass>
         <xmpMM:DocumentID>xmp.did:E5159BA717D6E4119E99A07D891805A6</xmpMM:DocumentID>
         <xmpMM:InstanceID>xmp.iid:E5159BA717D6E4119E99A07D891805A6</xmpMM:InstanceID>
         <xmpMM:OriginalDocumentID>uuid:7f097150-671c-4fe9-9501-1edacf5521dc</xmpMM:OriginalDocumentID>
         <xmpMM:DerivedFrom rdf:parseType="Resource">
            <stRef:instanceID>uuid:a3fa3b81-ee4e-4796-8b33-8cee89a08e76</stRef:instanceID>
            <stRef:documentID>xmp.did:73EBC59611D6E411B7B98D0612E3B34A</stRef:documentID>
            <stRef:originalDocumentID>uuid:7f097150-671c-4fe9-9501-1edacf5521dc</stRef:originalDocumentID>
            <stRef:renditionClass>proof:pdf</stRef:renditionClass>
         </xmpMM:DerivedFrom>
         <xmpMM:History>
            <rdf:Seq>
               <rdf:li rdf:parseType="Resource">
                  <stEvt:action>saved</stEvt:action>
                  <stEvt:instanceID>xmp.iid:73EBC59611D6E411B7B98D0612E3B34A</stEvt:instanceID>
                  <stEvt:when>2015-03-29T09:56:09-03:00</stEvt:when>
                  <stEvt:softwareAgent>Adobe Illustrator CS6 (Windows)</stEvt:softwareAgent>
                  <stEvt:changed>/</stEvt:changed>
               </rdf:li>
               <rdf:li rdf:parseType="Resource">
                  <stEvt:action>saved</stEvt:action>
                  <stEvt:instanceID>xmp.iid:E5159BA717D6E4119E99A07D891805A6</stEvt:instanceID>
                  <stEvt:when>2015-03-29T10:49:03-03:00</stEvt:when>
                  <stEvt:softwareAgent>Adobe Illustrator CS6 (Windows)</stEvt:softwareAgent>
                  <stEvt:changed>/</stEvt:changed>
               </rdf:li>
            </rdf:Seq>
         </xmpMM:History>
      </rdf:Description>
      <rdf:Description xmlns:xmpGImg="http://ns.adobe.com/xap/1.0/g/img/" rdf:about="" xmlns:xmp="http://ns.adobe.com/xap/1.0/">
         <xmp:CreateDate>2015-03-29T10:49:02-03:00</xmp:CreateDate>
         <xmp:CreatorTool>Adobe Illustrator CS6 (Windows)</xmp:CreatorTool>
         <xmp:ModifyDate>2015-03-29T10:49:03-03:00</xmp:ModifyDate>
         <xmp:MetadataDate>2015-03-29T10:49:03-03:00</xmp:MetadataDate>
         <xmp:Thumbnails>
            <rdf:Alt>
               <rdf:li rdf:parseType="Resource">
                  <xmpGImg:width>256</xmpGImg:width>
                  <xmpGImg:height>116</xmpGImg:height>
                  <xmpGImg:format>JPEG</xmpGImg:format>
                  <xmpGImg:image>/9j/4AAQSkZJRgABAgEASABIAAD/7QAsUGhvdG9zaG9wIDMuMAA4QklNA+0AAAAAABAASAAAAAEA
AQBIAAAAAQAB/+4ADkFkb2JlAGTAAAAAAf/bAIQABgQEBAUEBgUFBgkGBQYJCwgGBggLDAoKCwoK
DBAMDAwMDAwQDA4PEA8ODBMTFBQTExwbGxscHx8fHx8fHx8fHwEHBwcNDA0YEBAYGhURFRofHx8f
Hx8fHx8fHx8fHx8fHx8fHx8fHx8fHx8fHx8fHx8fHx8fHx8fHx8fHx8fHx8f/8AAEQgAdAEAAwER
AAIRAQMRAf/EAaIAAAAHAQEBAQEAAAAAAAAAAAQFAwIGAQAHCAkKCwEAAgIDAQEBAQEAAAAAAAAA
AQACAwQFBgcICQoLEAACAQMDAgQCBgcDBAIGAnMBAgMRBAAFIRIxQVEGE2EicYEUMpGhBxWxQiPB
UtHhMxZi8CRygvElQzRTkqKyY3PCNUQnk6OzNhdUZHTD0uIIJoMJChgZhJRFRqS0VtNVKBry4/PE
1OT0ZXWFlaW1xdXl9WZ2hpamtsbW5vY3R1dnd4eXp7fH1+f3OEhYaHiImKi4yNjo+Ck5SVlpeYmZ
qbnJ2en5KjpKWmp6ipqqusra6voRAAICAQIDBQUEBQYECAMDbQEAAhEDBCESMUEFURNhIgZxgZEy
obHwFMHR4SNCFVJicvEzJDRDghaSUyWiY7LCB3PSNeJEgxdUkwgJChgZJjZFGidkdFU38qOzwygp
0+PzhJSktMTU5PRldYWVpbXF1eX1RlZmdoaWprbG1ub2R1dnd4eXp7fH1+f3OEhYaHiImKi4yNjo
+DlJWWl5iZmpucnZ6fkqOkpaanqKmqq6ytrq+v/aAAwDAQACEQMRAD8A9U4q7FXYq7FXYq7FXYq7
FXYq7FXYq7FXYq7FXYq7FXYqhrrULa32dqv/ACLuf7MVYt5k89afpcBkv7pLOMj4Iwayv/qqPiP0
DL8OnnkNRFtGbUQxC5mlDy55w07UofW0m9WdRvJCT8S1/njNGHzxzaeeM1IUuHUQyi4G2UWutW8l
FmHpP4/s/f2yhvTEEEAg1B6EYq7FXYq7FXYq7FXYq7FXYq7FXYq7FXYq7FXYq7FXYq7FXYq7FXYq
7FXYq7FXYq7FUNdahbW+ztV/5F3OKsd1/wA2R2FjLeXLm3s4hVyis7f8KCcsxYpTlwx5teXLGETK
XIPG/Mn5x6hc84NEi+qQmo+tS0aYjxC7qn45v9P2REb5DZ7ujzuq7bkdsYrzLBYodY1q/IjWa/vp
jVj8Ujn3JNdvnm0Jhij0jF1AjkzS6yk9H8o/lLqEE8V/qt49nKhDJBaPSUf60o2H+xr8802r7ViQ
YwF+/wDU73RdkSiRKcqPcP1vU1HFQNzQUqdzmid+r217c25/dv8AD3Q7r92Kpva61byUWYek/j+z
9/bAlMQQQCDUHoRirsVdirsVdirsVdirsVdiqRf4Vf8A6vWqf8j1/wCqeU+D/Sl83Yfnx/qeP/S/
td/hV/8Aq9ap/wAj1/6p4+D/AEpfNfz4/wBTx/6X9rv8Kv8A9XrVP+R6/wDVPHwf6Uvmv58f6nj/
ANL+13+FX/6vWqf8j1/6p4+D/Sl81/Pj/U8f+l/a7/Cr/wDV61T/AJHr/wBU8fB/pS+a/nx/qeP/
AEv7Xf4Vf/q9ap/yPX/qnj4P9KXzX8+P9Tx/6X9rv8Kv/wBXrVP+R6/9U8fB/pS+a/nx/qeP/S/t
d/hV/wDq9ap/yPX/AKp4+D/Sl81/Pj/U8f8Apf2p3DH6cKR82k4KF5uas1BSrHxOWgODI2SV2Fi7
FXYq7FXYq7FWO6zrekW+pRWOoNFHLcs0doC3pyMUWItR2pGTyuFAVmHtXpirT6eJFZrVxOgFWjIK
yKD05IaHcdPHChhGs/lh5V1K7Fw9u1pKGrMtsRGr+IZaED5rQ5n4e0s0BV373X5uzMOQ2RR8uqfa
VoulaTbi3062S2i7hBu1O7MfiY/M5iZc08huRtzMWGGMVEUEblbY7FXYq7FUNfebLHQI/UurtYgd
1gPxM3yQb/Tl2LTzyGohoz6rHhFzNIPR/wA8PKN5dfVb8vprluMcso5RkduTLXh9O3vmXk7KyxFj
1ODg7ZwzNG4+96DBcQXEKT28izQyDlHLGwZWB6EMKgjNcQQaLtQQRYX4EuxV2KuxV2KuxV2KuxV2
KuxV2KuxV2KuxV2KuxV2KuxV2KuxV2KvHPzy8v63qMllc6bHIfqZvGlaJXduE1tAo/dxfvXRvSZH
MasVG9OmFWCeRvOuueXfI19cwXUF8tne2MFlbs1w6xJMk8bW6FnEsRIt0osTM/Hjyj5FgVXpnk/8
3fL3mllsruCS31MhwIWozM0SNJIsU6BY3ZUUsY5BG6qN0OBWaXWizx1aE+qnh+0Po74ql5BBIIoR
1BwoaxVL9X1/SdIi9S/uFiJFUj6u3+qo3y7Dp55DUQ0ajVY8IuZp5v5k/Nu6k5QaWn1WPp6po0x/
41T8c3Wn7JA3nv8Ac89qe25y2xjhHeebzu91W9vJWlmkZnc1d2Ysx+bHfNvDHGIoOllIyNk2UJli
E+8r+dfM/ly4DaRduiM1XtG/eQufeM7VPiKH3zG1Glx5R6h8XL02sy4j6D8Oj6M/LzztdeaNPme8
sDYXlr6YmUNyR/U5UZAfiX7B+Funic5jWaUYpbGwXq9DrPHibFEMszDc52KuxV2KuxV2KuxV2Kux
V2KuxV2KuxV2KuxV2KuxV2KuxVRvY7uS1kSzlWC5YUjldeYU+PGowSBrZsxGIkDIXFibalqul2ot
9eieQhj/AKeQJraWpqA/FVMZH7NRlEchhtP5uxy6WGY8WAj+ryP7Ut1nyr5R80addwSosLaiYnub
iJgkkjQBxGWnAb1Avqv8MyuDWmXiQPJ1k4SiaIoptL5T8qI8Op/Ulh17T7OSGG8p6M0iC3aIiQxk
JMvE1oeQU7ihwsWXYqoXNlbXA/eJ8XZxsw+nFXkH5l+adZ0a/uNO07ikcXBWn6ykvGJPhr8K0Bp4
5uNBo4TAlLd5/tPtHJjkYQoefV43f6nfXUzvO7mRj8bOSXJ/ymO+dBDHGI2eckTI2TZQeWIcqszB
VBLHYAbk4pATrT/K15PR7g/V4j2O7n6O305jz1AHLdtji72S2Ok2Nkv7iMc+8jbsfpzEnklLm2gA
cnqX5Qf9Lb/o3/5m5qe0f4fj+h3vY38fw/S9FzWO8dirsVdirsVdirsVdirsVdirsVdirsVdirsV
dirsVdirsVSS8802wnNnpcTapfjYxQH92nvJL9hRlMswuo7lz8eglXFkPhw8+fwHNRHl/U9TIfX7
rlDWo021qkP/AD0f7b4PDMvqPwZ/m8eLbDHf+dLn8OgQ+reS4FBudFY2NyN2hTeJ6eMZ2r8sJw1v
HZjHXmQ4co8SP2j3FLtOuNYjWSO/MMsDUH1XgXj26k8/HJQ4v4mnUHDsMYl7yyiz1y1mosv7mT3+
yfp/rljipkCCKjcHocVeC/nB/wApLe/8ZIP+odc6Hs36B8fveP7Z/vZfD7nnssMUoo6g+B7j6c2g
NOnEqasPLv1uZqTcYUpy2q29dh27dcE8/CG/GBJk1jpNjZL+4jHPvI27H6cxJ5JS5uQAByRmVpbV
GdgqAszGgUCpJxJSATsHp/5Y6Ze6al617GYDd+l6KN9r4Odajt9vvmo1uWMyAOj0XZennjEjIVdf
pZ3mC7V2KuxV2KuxV2KuxVJJdD1l5XddcnjVmJCLFFRQTWgqO2UnHL+c58dViArw4/MrP0Brf/V/
uP8AkVF/TB4Uv5yfzeL/AFKPzLv0Brf/AFf7j/kVF/THwpfzl/N4v9Sj8y79Aa3/ANX+4/5FRf0x
8KX85fzeL/Uo/Mu/QGt/9X+4/wCRUX9MfCl/OX83i/1KPzLv0Brf/V/uP+RUX9MfCl/OX83i/wBS
j8y79Aa3/wBX+4/5FRf0x8KX85fzeL/Uo/Mu/QGt/wDV/uP+RUX9MfCl/OX83i/1KPzLv0Brf/V/
uP8AkVF/THwpfzl/N4v9Sj8y79Aa3/1f7j/kVF/THwpfzl/N4v8AUo/Mu/QGt/8AV/uP+RUX9MfC
l/OX83i/1KPzLT+Vrm5pHqOrXN3a1q9t8MSv7MUAJHtj4JPMkhI18Y7whGMu/n96c2dlaWcAgtIU
ghXoiAAfPbvl0YgbBwcmWUzcjZVsLB2KpRrGk+oDc26/vOsiDv7j3xVIMUoq01G7tT+7eqd423X/
AD+WKHn/AOZeiarqV5NqlrAZklaNnijqzrwiCE8e427Zuez9VCIESaLzfa+gySkZxHEPt5PMiCCQ
RQjYg5u3mk30D/d/+w/42zHz9HJ0/VOFVnYKoLMxoFAqScoJckAnYMl0jyLqV3xkvD9UhO/EishH
+r2+n7swsuujHaO5dpp+ypz3n6R9rNtJ8vaXpij6tCBJShmb4pD/ALLt9Ga3LnlPmXd4NLjxfSPj
1TVUylyEwtrg0CSfQ39cVRWKuxV2KuxV43558061pv8AzkB5W00apcWmgT2CyXtry4WjOWuhylJY
LX4F6jsMVS/zZ5t80fl/rOp6vqepy67o3mozxeXba0mZlsaGokPIcQB6g+xhVhnk/wDM/wA4a35c
TyK+q3tj5n1K4e4g8030rRRwRRL6hikb4nXksLKPdhir2L8o/wAw5fMUdzoF1bXBv/LsEFtearM3
KO9lQGJ54m6kO0Rep8cCoPzd5W873vnaS803XRZaVNJYrPYtOVpFCrtLPEqsjI6HqKgOp8VGFCO1
ny95okl8pwaZrH1i202EnUJ2vJYPrKCLiszRRktKTSoLSlPFSNwpYDpP5e/mXFBpkz6sYDYSNPeS
DVbiRpQs1mZPTYzsgPpRzf3itH8VCgLBgqncXlj81/Vs3TUoWhXS59PjsvrbGS4+sRu7XivUqWil
khAPXiu32sUMw8veYbu0/Rx8wP8AVfrkNvp1lHHcpexTXcbSB2T0ovUDstC7M5WnYEElSzKK5tpn
kSKVJHhPGZUYMUbrRgOh+eBVTFXYq7FXYq7FXYq7FXYqkusaT9q5t136yoP+JDFUkCk4qqKmKpXr
Xk3Q9aBa6g4XB6XMXwyfSejf7IHMnBrMmLkdu5wtV2fizfUN+8c2OaX+VtzaXsqveo9k/Eq4UiTa
tRx3Udetcz8naYlEbep1WLsMxkbl6ftZvpXl/TNNX/RoR6lKGZvic/Sen0Zrcuec+Zd1g0uPF9I+
PVNFTKXIVlTFVVUxVVVMVRETECh6dsVVcVdirsVfK3/OTegav5g/OHRNH0iD6zqV5pES28HNI+RW
4unPxSMiD4VPU4pDH7fW9PuLePyd+Ys0umHyWvo6JFYqryNfn7UVw6i4Rk5J1Xj88UIPUPK/5tfn
Bcf4xtdIivAyizllglt7aMPB+yEnmD/ZZd+mKX0R+SkX5r2WmnR/O2l2+n6fpdpa2ujtC8MjusKm
NvUMU024VF7DFCE84eV/K+q+ddUt5tfhsfMOswW1lawFAZI4jG6zBCw3llhZ/Towod98KsTh8j+W
7jXPL0sXnS2uLeC1bT9H427PLJHFcXiRIJVb0gEFwYn+H7K7U64q0fyr8rQ+TI79fNdoNCnEyw6m
sBaOaWZrEcJFjZUdPU0xkZVAqrb/ABAkqpuPJmkeYNUsE0/zZawXX1B7awttEtDb2i2l9HO100ah
5QjOsxZP3mzIpIriqAtvK+nPoWgx3PmzSdHuNJaG9sl0u0FvC99JIltaTXPJqyFvqrox+AtVx0GK
pl5V/L/RvKOqvrUvmO0khjunsKiGa3eR4JpL6cXUkMy+vcxpGyhmXjxU1VumKvTrPz35OvI7aS21
e2kW7ujYW4D0ZroDl6PE0YPTehH6xgVDL+ZnkNjMq61bs8EiwyxqWLh3LBRwA5GpjbcDtirILS8t
byBZ7WVZom6Mpr2rQ+B9jiqtirsVdirsVdirsVSXVNLCEzwD4Tu6Dt7jFUAseKVVUxQqqmKqqpiq
qqYqqqmKqqpiqoqYqqquKrsVdirsVfNP59aZe6h+evlyC11ZvL7yaVGq62HaIW5E12a+orR8eX2f
tDrilF+cfyv8lX/lzSXj816S2u6UJLnWNS9SKS41SVQGX1G9XmXNCKsWO+FCS6N52GmQr+Y2ildH
0mxma3b8sbe8aNLh5I/RNzxVVXrKJK/Vz9jr3AV6p+S8GqXD6h5gvfNba0muRQXsWhtcPcHS/X5S
+gQ0j8eHqen9hPs9O2KpZ+YA/LmXz1dWusatq9pq0i2jCytDEsDSGOSKC4irGzvJAJSaFjSoPE4V
VbXyv+W1npsFta3eq6Vptxpd9r0KNKGFraG1hs7s85hPKjenKrceRo1SKdMVSmwv/IMmg/4e0a28
y6fFJqlte2lqgg+s2s9xF6tsYmvGlPpXIieReZY8uVeOwxVNvyu078u5dYtNQ8tXd/G1mhsY7S4+
pTrIY45OXqOiTXETUYuQ0sdTTYjbFU+vvyO8kX0l8bg3npX93PfTW8dwYkWadGQcPTCsFjMsronL
jykfkGBoAqq/5QaTKkkVzrOq3FtJczXv1eSS2Ki4uLea2lkBFur1ZLljux3p8iqhP+VE+VXJludR
1W6vPVNzHeyXSrKl0TFxnAijjjLILaMIrIUFPs13xVbN+Q3labm0uo6lJP6ivbzSPayegiyyTejH
G9u0RjMk7MeaM3TfFWb+X9Di0Ww+px3El1VzI00ywI7MwFSRbxwR9v5cVTLFXYq7FXYq7FXYq7FU
vurCFAzqlQewrsT3+QxVb9WhDDY03oa9QFJrX6O2KtpAhAYDYipWtd60xVVEEamlK1JFa9hiq5Yk
IqBvTp9OKqgjWtKYqvCDbbFV4AGKuxV2KuxV2KsF89fkx5I876tDquuxXD3kFutrG0MxjX0kd5AK
AdeUjb4qkI/5xk/K0EEQ3lQUI/0k9YxRO3YYqsb/AJxe/KlgoNveUQUUfWW6VJp08TirKvIP5UeU
PIkt5LoEc6PfLGlwZpTLURFitKjb7ZxVOrzyh5bvNSXU7qwjlv0mguUuG5clmtgywuu+3EOw2698
Vb1bypoGr3tve6ha+vc2qNFE/qSIPTkZWeN1RlV0cxryVwQab4qg9I/LzyXo8SR6bpUVsqXEd4pU
uW9aFDHE3JmLEIjFVWvEeGKq+keS/Lmjyxy6dbSQmIkxIbi4dELBlPGN5GQbOegxVO8VdirsVdir
sVdirsVdirsVdirsVdiriK7HpiqDksTzrH9k9vDFW1tJB4YqvFuw8MVXiEjwxVeEpiq7FXYq7FXY
q7FXYq7FXYq7FXYq7FXYq7FXYq7FXYq7FXYq7FXYq7FXYq7FXYq7FXYq7FXYq7FXYq7FXYq7FXYq
7FXYq7FXYq7FXYq7FXYq7FXYq7FXYq7FXYq7FXYq7FXYq7FXYq7FXYq7FXYq7FXYq7FXYq7FXYq7
FXYq7FXYq7FXYq7FXYq7FXYq7FXYq7FXYq7FXYq7FXYq7FXYq7FXYq7FXYq7FXYq7FXYq7FXYq7F
XYq7FXYq7FXYq7FXYq7FXYq7FXYq7FXYq7FXYq7FXYq7FXYq7FXYq7FXYq7FXYq7FXYq7FXYq7FX
Yq7FXYq7FXYq7FXYq7FXYq//2Q==</xmpGImg:image>
               </rdf:li>
            </rdf:Alt>
         </xmp:Thumbnails>
      </rdf:Description>
      <rdf:Description xmlns:pdf="http://ns.adobe.com/pdf/1.3/" rdf:about="">
         <pdf:Producer>Adobe PDF library 10.01</pdf:Producer>
      </rdf:Description>
      <rdf:Description rdf:about="" xmlns:dc="http://purl.org/dc/elements/1.1/">
         <dc:format>image/svg+xml</dc:format>
         <dc:title>
            <rdf:Alt>
               <rdf:li xml:lang="x-default">gerencia-img1</rdf:li>
            </rdf:Alt>
         </dc:title>
      </rdf:Description>
      <rdf:Description xmlns:xmpG="http://ns.adobe.com/xap/1.0/g/" xmlns:xmpTPg="http://ns.adobe.com/xap/1.0/t/pg/" rdf:about="" xmlns:stDim="http://ns.adobe.com/xap/1.0/sType/Dimensions#">
         <xmpTPg:NPages>1</xmpTPg:NPages>
         <xmpTPg:HasVisibleTransparency>True</xmpTPg:HasVisibleTransparency>
         <xmpTPg:HasVisibleOverprint>True</xmpTPg:HasVisibleOverprint>
         <xmpTPg:MaxPageSize rdf:parseType="Resource">
            <stDim:w>500.000000</stDim:w>
            <stDim:h>264.999512</stDim:h>
            <stDim:unit>Pixels</stDim:unit>
         </xmpTPg:MaxPageSize>
         <xmpTPg:PlateNames>
            <rdf:Seq>
               <rdf:li>Cyan</rdf:li>
               <rdf:li>Magenta</rdf:li>
               <rdf:li>Yellow</rdf:li>
               <rdf:li>Black</rdf:li>
            </rdf:Seq>
         </xmpTPg:PlateNames>
         <xmpTPg:SwatchGroups>
            <rdf:Seq>
               <rdf:li rdf:parseType="Resource">
                  <xmpG:groupName>Default Swatch Group</xmpG:groupName>
                  <xmpG:groupType>0</xmpG:groupType>
               </rdf:li>
            </rdf:Seq>
         </xmpTPg:SwatchGroups>
      </rdf:Description>
   </rdf:RDF>
</x:xmpmeta>
	</metadata>
	<defs>
		<rect id="SVGID_1_" y="12.227" x="11.244" height="167.36" width="494.68"/>
	</defs>
	<clipPath id="SVGID_2_">
		<use overflow="visible" xlink:href="#SVGID_1_"/>
	</clipPath>
	<g opacity=".1" clip-path="url(#SVGID_2_)">
			<defs>
				<rect id="SVGID_3_" y="71.523" x="244.41" height="108.07" width="261.51"/>
			</defs>
			<clipPath id="SVGID_4_">
				<use overflow="visible" xlink:href="#SVGID_3_"/>
			</clipPath>
			<g clip-path="url(#SVGID_4_)">
				<defs>
					<rect id="SVGID_5_" y="71.523" x="244.41" height="108.07" width="261.51"/>
				</defs>
				<clipPath id="SVGID_6_">
					<use overflow="visible" xlink:href="#SVGID_5_"/>
				</clipPath>
				<defs>
					<filter id="Adobe_OpacityMaskFilter" height="108.07" width="261.51" y="71.523" x="244.41" filterUnits="userSpaceOnUse">
						<feColorMatrix values="1 0 0 0 0  0 1 0 0 0  0 0 1 0 0  0 0 0 1 0" type="matrix"/>
					</filter>
				</defs>
				<mask id="SVGID_7_" height="108.069" width="261.509" y="71.523" x="244.414" maskUnits="userSpaceOnUse">
					<g filter="url(#Adobe_OpacityMaskFilter)">
						<rect width="261.51" clip-path="url(#SVGID_6_)" height="108.07" y="71.523" x="244.41"/>
						<g enable-background="new    ">
								<defs>
									<rect id="SVGID_8_" y="71.523" x="244.41" height="108.07" width="261.51"/>
								</defs>
								<clipPath id="SVGID_9_" clip-path="url(#SVGID_6_)">
									<use overflow="visible" xlink:href="#SVGID_8_"/>
								</clipPath>
									<defs>
											<rect id="SVGID_10_" transform="matrix(-.5548 -.832 .832 -.5548 478.87 507.35)" height="277.52" width="235.01" y="-13.203" x="257.67"/>
									</defs>
									<clipPath id="SVGID_11_" clip-path="url(#SVGID_9_)">
										<use overflow="visible" xlink:href="#SVGID_10_"/>
									</clipPath>
										<linearGradient id="SVGID_12_" y2="163.14" gradientUnits="userSpaceOnUse" x2="4.3615" gradientTransform="matrix(24.225 36.324 -36.324 24.225 6233.2 -3928.6)" y1="163.14" x1="1.9795">
										<stop stop-color="#fff" offset="0"/>
										<stop offset=".9139"/>
										<stop offset=".926"/>
										<stop offset="1"/>
									</linearGradient>
									<polygon fill="url(#SVGID_12_)" points="33.2 58.403 305.75 467.08 717.14 192.71 444.59 -215.96" clip-path="url(#SVGID_11_)"/>
						</g>
					</g>
				</mask>
				<g mask="url(#SVGID_7_)" clip-path="url(#SVGID_6_)">
						<defs>
							<rect id="SVGID_13_" y="71.523" x="244.41" height="108.07" width="261.51"/>
						</defs>
						<clipPath id="SVGID_14_">
							<use overflow="visible" xlink:href="#SVGID_13_"/>
						</clipPath>
						<polygon points="343.9 177.21 503.54 173.87 412.15 91.53 246.8 73.908" clip-path="url(#SVGID_14_)"/>
				</g>
			</g>
	</g>
<rect y="116.13" x="11.444" height="62.654" width="209" fill="#fff"/>
<rect y="123.33" x="17.14" height="6.029" width="6.03"/>
<rect y="123.33" x="29.202" height="6.029" width="6.031"/>
<rect y="123.33" x="41.264" height="6.029" width="6.028"/>
<rect y="123.33" x="53.326" height="6.029" width="6.029"/>
<rect y="129.36" x="17.14" height="6.032" width="6.03"/>
<rect y="129.36" x="35.232" height="6.032" width="6.031"/>
<rect y="129.36" x="41.264" height="6.032" width="6.028"/>
<rect y="129.36" x="47.292" height="6.032" width="6.032"/>
<rect y="129.36" x="59.352" height="6.032" width="6.032"/>
<rect y="135.39" x="17.14" height="6.029" width="6.03"/>
<rect y="135.39" x="35.232" height="6.029" width="6.031"/>
<rect y="135.39" x="47.292" height="6.029" width="6.032"/>
<rect y="135.39" x="53.326" height="6.029" width="6.029"/>
<rect y="141.42" x="17.14" height="6.029" width="6.03"/>
<rect y="141.42" x="23.17" height="6.029" width="6.032"/>
<rect y="135.39" x="23.17" height="6.029" width="6.032"/>
<rect y="141.42" x="29.202" height="6.029" width="6.031"/>
<rect y="141.42" x="41.264" height="6.029" width="6.028"/>
<rect y="141.42" x="47.292" height="6.029" width="6.032"/>
<rect y="141.42" x="53.326" height="6.029" width="6.029"/>
<rect y="141.42" x="59.352" height="6.029" width="6.032"/>
<rect y="147.45" x="17.14" height="6.031" width="6.03"/>
<rect y="147.45" x="29.202" height="6.031" width="6.031"/>
<rect y="147.45" x="35.232" height="6.031" width="6.031"/>
<rect y="147.45" x="41.264" height="6.031" width="6.028"/>
<rect y="153.48" x="17.14" height="6.029" width="6.03"/>
<rect y="153.48" x="23.17" height="6.029" width="6.032"/>
<rect y="153.48" x="35.232" height="6.029" width="6.031"/>
<rect y="153.48" x="47.292" height="6.029" width="6.032"/>
<rect y="153.48" x="59.352" height="6.029" width="6.032"/>
<rect y="159.51" x="17.14" height="6.027" width="6.03"/>
<rect y="159.51" x="41.264" height="6.027" width="6.028"/>
<rect y="159.51" x="53.326" height="6.027" width="6.029"/>
<rect y="165.54" x="17.14" height="6.034" width="6.03"/>
<rect y="165.54" x="23.17" height="6.034" width="6.032"/>
<rect y="165.54" x="29.202" height="6.034" width="6.031"/>
<rect y="165.54" x="35.232" height="6.034" width="6.031"/>
<rect y="165.54" x="41.264" height="6.034" width="6.028"/>
<rect y="165.54" x="47.292" height="6.034" width="6.032"/>
<rect y="165.54" x="53.326" height="6.034" width="6.029"/>
<rect y="165.54" x="59.352" height="6.034" width="6.032"/>
<polygon points="260.12 88.176 220.1 108.8 125.7 108.8 44.51 108.8 42.885 111.62 121.81 111.62 220.78 111.62 261.41 90.678" fill="#F37974"/>
<polygon points="11.443 108.8 11.443 111.62 42.885 111.62 41.263 108.8" fill="#fff"/>
<rect y="46.008" x="11.244" height="2.811" width="124.65" fill="#F37974"/>
<polygon points="277.09 99.663 239.02 80.619 245.27 77.078 247.97 78.712 245 80.463 276.93 96.438 280.38 94.279 283.19 95.845" fill="#F37974"/>
<polygon points="307.66 12.226 245.88 43.117 358.64 99.506 420.43 68.613" fill="#DCDDDE"/>
<polygon points="358.64 99.504 358.64 130.21 245.88 73.825 245.88 43.119" fill="#fff"/>
<polygon points="420.65 68.497 358.64 99.504 358.64 130.21 420.65 99.209" fill="#54AFD1"/>
<polygon points="386.4 51.563 324.61 82.458 352.82 96.56 414.6 65.667" fill="#1392C4"/>
<polygon points="392.22 54.507 330.44 85.397 358.64 99.504 420.43 68.61" fill="#0D76BD"/>
<polygon points="324.63 82.47 324.63 113.18 352.82 127.27 352.82 96.562" fill="#54AFD1"/>
<polygon points="330.46 85.412 330.46 116.12 358.64 130.21 358.64 99.504" fill="#1392C4"/>
<polygon points="304.83 22.976 268.82 40.979 285.26 49.195 321.26 31.194" fill="#0D76BD"/>
<polygon points="285.42 71.899 285.42 74.36 268.82 66.064 268.82 63.603"/>
<polygon points="285.42 75.69 285.42 78.152 268.82 69.855 268.82 67.395"/>
<polygon points="274.95 74.301 274.95 76.762 268.82 73.646 268.82 71.188"/>
<polygon points="274.95 78.063 274.95 80.523 268.82 77.409 268.82 74.947"/>
<polygon stroke="#000" stroke-width=".134" stroke-miterlimit="10" points="288.78 69.877 288.78 91.108 248.9 71.159 248.9 49.931" fill="none"/>
<polygon points="251.65 56.565 253.48 57.458 253.48 55.634 251.65 54.736"/>
<polygon points="255.3 58.355 257.13 59.249 257.13 57.424 255.3 56.528"/>
<polygon points="258.96 60.147 260.79 61.041 260.79 59.213 258.96 58.316"/>
<polygon points="262.62 61.94 264.45 62.833 264.45 61.006 262.62 60.11"/>
<polygon points="251.65 58.396 253.48 59.289 253.48 57.462 251.65 56.562"/>
<polygon points="257.13 61.082 258.96 61.975 258.96 60.147 257.13 59.248"/>
<polygon points="258.96 61.978 260.79 62.869 260.79 61.044 258.96 60.144"/>
<polygon points="260.79 62.872 262.62 63.765 262.62 61.938 260.79 61.04"/>
<polygon points="264.45 64.664 266.27 65.555 266.27 63.73 264.45 62.832"/>
<polygon points="251.65 60.222 253.48 61.115 253.48 59.291 251.65 58.393"/>
<polygon points="257.13 62.909 258.96 63.802 258.96 61.977 257.13 61.079"/>
<polygon points="260.79 64.701 262.62 65.591 262.62 63.767 260.79 62.869"/>
<polygon points="262.62 65.594 264.45 66.49 264.45 64.66 262.62 63.765"/>
<polygon points="251.65 62.053 253.48 62.946 253.48 61.119 251.65 60.218"/>
<polygon points="253.48 62.949 255.3 63.84 255.3 62.013 253.48 61.115"/>
<polygon points="253.48 61.119 255.3 62.01 255.3 60.185 253.48 59.289"/>
<polygon points="255.3 63.843 257.13 64.736 257.13 62.909 255.3 62.008"/>
<polygon points="258.96 65.632 260.79 66.528 260.79 64.7 258.96 63.801"/>
<polygon points="260.79 66.532 262.62 67.422 262.62 65.595 260.79 64.697"/>
<polygon points="262.62 67.425 264.45 68.318 264.45 66.491 262.62 65.591"/>
<polygon points="264.45 68.321 266.27 69.215 266.27 67.388 264.45 66.49"/>
<polygon points="251.65 63.881 253.48 64.772 253.48 62.948 251.65 62.05"/>
<polygon points="255.3 65.672 257.13 66.562 257.13 64.738 255.3 63.84"/>
<polygon points="257.13 66.565 258.96 67.458 258.96 65.634 257.13 64.736"/>
<polygon points="258.96 67.462 260.79 68.355 260.79 66.528 258.96 65.63"/>
<polygon points="251.65 65.71 253.48 66.602 253.48 64.774 251.65 63.878"/>
<polygon points="253.48 66.604 255.3 67.497 255.3 65.67 253.48 64.77"/>
<polygon points="257.13 68.396 258.96 69.287 258.96 67.462 257.13 66.562"/>
<polygon points="260.79 70.186 262.62 71.082 262.62 69.252 260.79 68.354"/>
<polygon points="264.45 71.978 266.27 72.869 266.27 71.044 264.45 70.144"/>
<polygon points="251.65 67.539 253.48 68.432 253.48 66.605 251.65 65.707"/>
<polygon points="258.96 71.119 260.79 72.012 260.79 70.187 258.96 69.287"/>
<polygon points="262.62 72.909 264.45 73.802 264.45 71.975 262.62 71.082"/>
<polygon points="251.65 69.367 253.48 70.26 253.48 68.436 251.65 67.535"/>
<polygon points="253.48 70.264 255.3 71.155 255.3 69.33 253.48 68.432"/>
<polygon points="255.3 71.157 257.13 72.05 257.13 70.223 255.3 69.325"/>
<polygon points="257.13 72.054 258.96 72.945 258.96 71.12 257.13 70.222"/>
<polygon points="258.96 72.947 260.79 73.84 260.79 72.017 258.96 71.115"/>
<polygon points="260.79 73.844 262.62 74.737 262.62 72.91 260.79 72.012"/>
<polygon points="262.62 74.739 264.45 75.632 264.45 73.805 262.62 72.905"/>
<polygon points="264.45 75.636 266.27 76.529 266.27 74.702 264.45 73.802"/>
<g fill="#fff">
	<path d="m20.843 101.22v-40.964h9.012v40.962h-9.012z"/>
	<path d="m57.184 101.86c-11.001 0-17.73-6.144-17.73-18.199v-23.405h9.012v23.173c0 6.671 3.335 10.123 8.836 10.123s8.836-3.335 8.836-9.831v-23.465h9.012v23.115c-0.001 12.405-6.964 18.489-17.966 18.489z"/>
	<path d="m116.35 101.22v-26.744l-11.528 17.497h-0.234l-11.413-17.322v26.567h-8.836v-40.964h9.714l10.767 17.321 10.768-17.321h9.714v40.962h-8.95z"/>
</g>
	<path d="m84.202 130.67l-4.04-5.303v5.303h-1.812v-8.342h1.692l3.909 5.136v-5.136h1.812v8.342h-1.561z"/>
	<path d="m89.07 125.93c-1.049 0-1.823-0.798-1.823-1.823s0.798-1.835 1.847-1.835c1.048 0 1.823 0.798 1.823 1.823s-0.798 1.83-1.847 1.83zm-1.704 1.44v-0.786h3.432v0.786h-3.432zm1.704-4.24c-0.524 0-0.846 0.441-0.846 0.965s0.346 0.977 0.87 0.977c0.524 0 0.846-0.441 0.846-0.965s-0.345-0.99-0.87-0.99z"/>
	<path d="m98.944 130.79c-1.263 0-2.538-0.441-3.539-1.334l1.084-1.299c0.75 0.62 1.537 1.013 2.49 1.013 0.751 0 1.204-0.298 1.204-0.787v-0.024c0-0.465-0.286-0.703-1.681-1.061-1.68-0.429-2.765-0.894-2.765-2.55v-0.024c0-1.513 1.215-2.514 2.92-2.514 1.215 0 2.252 0.381 3.098 1.061l-0.953 1.382c-0.739-0.513-1.466-0.822-2.169-0.822s-1.073 0.322-1.073 0.727v0.023c0 0.548 0.357 0.727 1.8 1.097 1.692 0.441 2.646 1.049 2.646 2.502v0.024c0.01 1.65-1.26 2.58-3.056 2.58z"/>
	<path d="m103.6 130.67v-8.342h6.292v1.632h-4.47v1.692h3.934v1.633h-3.934v1.751h4.529v1.633h-6.35z"/>
	<path d="m116.64 130.67l-1.78-2.67h-1.442v2.669h-1.835v-8.342h3.813c1.967 0 3.146 1.037 3.146 2.752v0.024c0 1.347-0.728 2.193-1.788 2.586l2.038 2.979h-2.15zm0.04-5.49c0-0.787-0.548-1.192-1.442-1.192h-1.823v2.396h1.859c0.894 0 1.406-0.477 1.406-1.18v-0.03z"/>
	<path d="m120.27 130.67v-8.342h1.836v8.342h-1.84z"/>
	<path d="m130.4 130.67l-0.763-1.871h-3.527l-0.763 1.871h-1.871l3.575-8.401h1.692l3.575 8.401h-1.92zm-2.53-6.2l-1.108 2.705h2.217l-1.11-2.71z"/>
	<path d="m133.6 130.67v-8.342h1.835v6.673h4.159v1.668h-6z"/>
	<path d="m140.77 126.19v-1.907h1.931v1.907h-1.93zm0 4.48v-1.907h1.931v1.907h-1.93z"/>
	<path d="m80.186 137.1v1.775h3.98v1.669h-3.98v3.229h-1.835v-8.342h6.352v1.668h-4.517z"/>
	<path d="m91.431 143.77l-0.763-1.871h-3.527l-0.763 1.871h-1.871l3.575-8.401h1.692l3.575 8.401h-1.918zm-2.527-6.2l-1.108 2.705h2.216l-1.108-2.71z"/>
	<path d="m98.599 143.77h-3.969v-8.342h3.873c1.704 0 2.753 0.846 2.753 2.156v0.024c0 0.941-0.5 1.466-1.096 1.8 0.965 0.369 1.561 0.93 1.561 2.049v0.024c0 1.53-1.24 2.29-3.121 2.29zm0.834-5.88c0-0.549-0.429-0.858-1.204-0.858h-1.812v1.765h1.692c0.81 0 1.323-0.263 1.323-0.883v-0.03zm0.465 3.34c0-0.56-0.417-0.904-1.359-0.904h-2.121v1.835h2.181c0.811 0 1.299-0.286 1.299-0.906v-0.02z"/>
	<path d="m108.29 143.77l-1.788-2.67h-1.441v2.67h-1.836v-8.342h3.814c1.966 0 3.146 1.037 3.146 2.752v0.024c0 1.347-0.727 2.192-1.787 2.586l2.037 2.979h-2.14zm0.04-5.49c0-0.786-0.549-1.191-1.442-1.191h-1.823v2.396h1.859c0.894 0 1.406-0.477 1.406-1.18v-0.03z"/>
	<path d="m111.92 143.77v-8.342h1.836v8.342h-1.84z"/>
	<path d="m119.75 143.91c-2.455 0-4.278-1.895-4.278-4.289v-0.024c0-2.372 1.787-4.313 4.35-4.313 1.573 0 2.515 0.523 3.289 1.287l-1.168 1.346c-0.644-0.584-1.299-0.941-2.133-0.941-1.406 0-2.42 1.168-2.42 2.598v0.024c0 1.431 0.989 2.622 2.42 2.622 0.953 0 1.537-0.382 2.192-0.978l1.168 1.18c-0.86 0.91-1.81 1.48-3.42 1.48z"/>
	<path d="m130.84 143.77l-0.763-1.871h-3.527l-0.763 1.871h-1.871l3.575-8.401h1.692l3.575 8.401h-1.92zm-2.53-6.2l-1.108 2.705h2.217l-1.11-2.71z"/>
	<path d="m133.15 139.61c0-2.384 1.787-4.325 4.35-4.325 1.573 0 2.515 0.523 3.289 1.287l-1.168 1.346c-0.644-0.584-1.299-0.941-2.133-0.941-1.406 0-2.42 1.168-2.42 2.609 0 1.443 0.989 2.635 2.42 2.635 0.953 0 1.537-0.382 2.192-0.978l1.168 1.18c-0.799 0.858-1.681 1.406-3.11 1.478l-0.774 1.931-1.514-0.632 0.953-1.406c-1.93-0.44-3.26-2.12-3.26-4.18z"/>
	<path d="m148.52 143.77l-0.763-1.871h-3.527l-0.763 1.871h-1.871l3.575-8.401h1.692l3.575 8.401h-1.92zm-1.53-9c-0.739 0-1.358-0.465-1.788-0.465-0.369 0-0.512 0.203-0.679 0.584l-0.966-0.297c0.274-1.002 0.644-1.645 1.479-1.645 0.738 0 1.358 0.465 1.787 0.465 0.369 0 0.513-0.203 0.68-0.584l0.965 0.297c-0.27 1.01-0.64 1.65-1.47 1.65zm-1 2.8l-1.108 2.705h2.217l-1.11-2.71z"/>
	<path d="m155.24 143.91c-2.574 0-4.421-1.918-4.421-4.289v-0.024c0-2.372 1.871-4.313 4.445-4.313 2.573 0 4.421 1.918 4.421 4.289v0.024c0.01 2.37-1.86 4.31-4.44 4.31zm2.53-4.31c0-1.431-1.049-2.622-2.526-2.622s-2.503 1.168-2.503 2.598v0.024c0 1.431 1.049 2.622 2.527 2.622s2.502-1.168 2.502-2.598v-0.02z"/>
	<path d="m161.11 139.29v-1.907h1.931v1.907h-1.93zm0 4.48v-1.906h1.931v1.906h-1.93z"/>
	<path d="m81.604 156.87h-3.253v-8.342h3.253c2.622 0 4.433 1.799 4.433 4.146v0.024c0 2.35-1.811 4.17-4.433 4.17zm2.515-4.17c0-1.478-1.013-2.515-2.515-2.515h-1.418v5.029h1.418c1.501 0 2.515-1.014 2.515-2.491v-0.02z"/>
	<path d="m93.276 156.87l-0.762-1.87h-3.527l-0.763 1.871h-1.871l3.575-8.401h1.692l3.575 8.401h-1.919zm-2.526-6.2l-1.108 2.705h2.216l-1.108-2.71z"/>
	<path d="m99.182 150.22v6.649h-1.835v-6.649h-2.538v-1.692h6.912v1.692h-2.538z"/>
	<path d="m108.26 156.87l-0.76-1.87h-3.527l-0.763 1.871h-1.871l3.575-8.401h1.691l3.576 8.401h-1.93zm-2.53-6.2l-1.108 2.705h2.216l-1.11-2.71z"/>
	<path d="m118.28 156.87h-3.254v-8.342h3.254c2.621 0 4.433 1.799 4.433 4.146v0.024c0.01 2.35-1.8 4.17-4.43 4.17zm2.52-4.17c0-1.478-1.013-2.515-2.514-2.515h-1.419v5.029h1.419c1.501 0 2.514-1.014 2.514-2.491v-0.02z"/>
	<path d="m124.34 156.87v-8.342h6.292v1.633h-4.469v1.691h3.933v1.633h-3.933v1.752h4.528v1.633h-6.35z"/>
	<path d="m140.18 156.93h-1.621l-3.372-8.401h2.025l2.182 5.875 2.181-5.875h1.978l-3.38 8.41z"/>
	<path d="m149.85 156.87l-0.76-1.87h-3.527l-0.763 1.871h-1.871l3.575-8.401h1.692l3.575 8.401h-1.91zm-2.53-6.2l-1.108 2.705h2.217l-1.11-2.71z"/>
	<path d="m153.05 156.87v-8.342h1.835v6.674h4.159v1.668h-5.99z"/>
	<path d="m160.5 156.87v-8.342h1.836v8.342h-1.84z"/>
	<path d="m167.68 156.87h-3.254v-8.342h3.254c2.621 0 4.433 1.799 4.433 4.146v0.024c0 2.35-1.81 4.17-4.43 4.17zm2.51-4.17c0-1.478-1.013-2.515-2.514-2.515h-1.419v5.029h1.419c1.501 0 2.514-1.014 2.514-2.491v-0.02z"/>
	<path d="m179.35 156.87l-0.76-1.87h-3.527l-0.763 1.871h-1.871l3.575-8.401h1.692l3.575 8.401h-1.91zm-2.53-6.2l-1.108 2.705h2.217l-1.11-2.71z"/>
	<path d="m185.8 156.87h-3.254v-8.342h3.254c2.621 0 4.433 1.799 4.433 4.146v0.024c0 2.35-1.81 4.17-4.43 4.17zm2.52-4.17c0-1.478-1.013-2.515-2.514-2.515h-1.419v5.029h1.419c1.501 0 2.514-1.014 2.514-2.491v-0.02z"/>
	<path d="m191.86 156.87v-8.342h6.292v1.633h-4.469v1.691h3.933v1.633h-3.933v1.752h4.528v1.633h-6.35z"/>
	<path d="m199.64 152.39v-1.907h1.931v1.907h-1.93zm0 4.48v-1.906h1.931v1.906h-1.93z"/>
	<path d="m84.202 169.97l-4.04-5.303v5.303h-1.812v-8.342h1.692l3.909 5.136v-5.136h1.812v8.342h-1.561z"/>
	<path d="m89.07 165.23c-1.049 0-1.823-0.798-1.823-1.823 0-1.024 0.798-1.835 1.847-1.835 1.048 0 1.823 0.798 1.823 1.823 0 1.02-0.798 1.83-1.847 1.83zm-1.704 1.44v-0.787h3.432v0.787h-3.432zm1.704-4.24c-0.524 0-0.846 0.441-0.846 0.966s0.346 0.978 0.87 0.978c0.524 0 0.846-0.441 0.846-0.966s-0.345-0.98-0.87-0.98z"/>
	<path d="m95.976 169.97v-8.342h1.835v6.674h4.159v1.668h-5.994z"/>
	<path d="m106.94 170.12c-2.574 0-4.421-1.918-4.421-4.29v-0.023c0-2.372 1.87-4.314 4.444-4.314s4.422 1.919 4.422 4.29v0.024c0 2.36-1.87 4.31-4.44 4.31zm2.52-4.32c0-1.43-1.049-2.622-2.526-2.622s-2.502 1.168-2.502 2.598v0.024c0 1.43 1.049 2.622 2.525 2.622 1.479 0 2.503-1.168 2.503-2.599v-0.02z"/>
	<path d="m116.44 163.32v6.649h-1.835v-6.649h-2.538v-1.692h6.912v1.692h-2.53z"/>
	<path d="m120.38 169.97v-8.342h6.292v1.633h-4.469v1.691h3.933v1.633h-3.933v1.752h4.528v1.633h-6.35z"/>
	<path d="m128.16 165.49v-1.907h1.931v1.907h-1.93zm0 4.48v-1.906h1.931v1.906h-1.93z"/>
<rect y="12.226" x="11.244" height="167.37" width="494.68" fill="none"/>
<g fill="#fff">
	<path d="m284.76 166.2h-1.738l-1.678-3.535h-7.793l-1.698 3.535h-1.656l6.525-13.474h1.514l6.53 13.47zm-7.3-11.7l-3.273 6.823h6.525l-3.26-6.82z"/>
	<path d="m288.53 166.2h-1.575v-9.881h1.575v2.58c0.191-0.407 0.43-0.783 0.716-1.127 0.286-0.345 0.614-0.641 0.982-0.889 0.368-0.249 0.77-0.437 1.206-0.564 0.437-0.127 0.907-0.185 1.412-0.172v1.586h-0.123c-0.572 0-1.115 0.096-1.626 0.287-0.512 0.191-0.958 0.478-1.34 0.86s-0.683 0.856-0.9 1.424c-0.218 0.566-0.327 1.22-0.327 1.959v3.93z"/>
	<path d="m303.78 157.32c0.238-0.242 0.508-0.452 0.808-0.631 0.3-0.178 0.638-0.318 1.013-0.42 0.375-0.103 0.794-0.153 1.258-0.153 1.228 0 2.188 0.354 2.885 1.061 0.695 0.707 1.043 1.679 1.043 2.915v6.115h-1.575v-5.771c0-0.956-0.242-1.691-0.727-2.208-0.483-0.516-1.155-0.773-2.015-0.773-0.396 0-0.771 0.066-1.125 0.2s-0.665 0.332-0.931 0.593c-0.266 0.262-0.478 0.583-0.634 0.965-0.157 0.383-0.235 0.815-0.235 1.3v5.695h-1.555v-5.81c0-0.931-0.242-1.653-0.726-2.17-0.484-0.516-1.149-0.773-1.995-0.773-0.423 0-0.812 0.076-1.166 0.229-0.354 0.152-0.664 0.369-0.931 0.649-0.266 0.28-0.474 0.608-0.623 0.984-0.15 0.376-0.226 0.793-0.226 1.252v5.638h-1.575v-9.881h1.575v1.663c0.177-0.242 0.371-0.478 0.583-0.707 0.211-0.229 0.453-0.431 0.727-0.603 0.272-0.172 0.579-0.309 0.92-0.41 0.341-0.103 0.736-0.153 1.187-0.153 0.859 0 1.568 0.188 2.127 0.563 0.56 0.376 0.982 0.845 1.269 1.405 0.18-0.29 0.4-0.54 0.64-0.78z"/>
	<path d="m315.66 157.69c-0.511 0.133-1.013 0.309-1.503 0.525l-0.471-1.204c0.586-0.255 1.18-0.456 1.779-0.603 0.601-0.146 1.289-0.22 2.066-0.22 1.445 0 2.557 0.335 3.334 1.004s1.166 1.659 1.166 2.972v6.039h-1.514v-1.49c-0.368 0.445-0.863 0.841-1.483 1.185s-1.401 0.516-2.342 0.516c-0.491 0-0.972-0.063-1.442-0.19-0.47-0.128-0.893-0.322-1.268-0.583-0.376-0.262-0.676-0.583-0.9-0.966-0.225-0.382-0.338-0.834-0.338-1.356s0.109-0.984 0.328-1.386c0.218-0.401 0.528-0.735 0.931-1.003 0.401-0.268 0.879-0.472 1.432-0.612 0.552-0.14 1.162-0.21 1.83-0.21 0.683 0 1.275 0.038 1.78 0.115 0.504 0.076 0.995 0.178 1.473 0.306v-0.345c0-0.892-0.276-1.563-0.828-2.016-0.553-0.452-1.327-0.679-2.322-0.679-0.64 0.01-1.21 0.07-1.72 0.21zm-0.5 4.06c-0.53 0.37-0.795 0.873-0.795 1.51 0 0.318 0.071 0.6 0.214 0.841 0.143 0.242 0.337 0.449 0.581 0.621 0.245 0.172 0.526 0.303 0.847 0.393 0.319 0.089 0.655 0.133 1.009 0.133 0.489 0 0.948-0.066 1.376-0.2 0.429-0.134 0.802-0.318 1.122-0.555 0.319-0.235 0.57-0.516 0.754-0.841 0.184-0.324 0.275-0.685 0.275-1.079v-0.956c-0.395-0.102-0.847-0.197-1.356-0.286-0.51-0.09-1.091-0.134-1.743-0.134-0.99 0.02-1.75 0.2-2.28 0.57z"/>
	<path d="m324.97 157.56v-1.242h8.919v0.937l-7.037 7.702h7.037v1.242h-9.164v-0.937l7.016-7.702h-6.78z"/>
	<path d="m337.5 163.23c0.218 0.414 0.497 0.765 0.838 1.051 0.341 0.287 0.723 0.504 1.146 0.65s0.866 0.22 1.33 0.22c0.736 0 1.367-0.128 1.892-0.383s1.006-0.592 1.442-1.013l0.981 0.822c-0.531 0.561-1.139 1.01-1.82 1.347-0.682 0.338-1.527 0.507-2.536 0.507-0.723 0-1.404-0.124-2.046-0.373-0.641-0.248-1.201-0.599-1.682-1.051s-0.862-0.997-1.146-1.634c-0.283-0.638-0.425-1.338-0.425-2.103 0-0.714 0.126-1.386 0.379-2.017 0.252-0.631 0.603-1.178 1.053-1.644 0.45-0.465 0.985-0.831 1.606-1.099 0.62-0.268 1.299-0.401 2.035-0.401 0.777 0 1.473 0.137 2.086 0.411 0.613 0.273 1.132 0.646 1.555 1.118 0.423 0.471 0.743 1.025 0.961 1.662 0.219 0.638 0.328 1.319 0.328 2.045v0.21c0 0.077-0.008 0.16-0.021 0.249h-8.366c0.07 0.52 0.2 1 0.42 1.41zm6.36-2.51c-0.041-0.445-0.14-0.872-0.295-1.28-0.156-0.407-0.373-0.765-0.65-1.07-0.278-0.306-0.617-0.551-1.017-0.735-0.4-0.185-0.864-0.277-1.394-0.277-0.461 0-0.888 0.086-1.28 0.258-0.394 0.172-0.739 0.408-1.037 0.707-0.298 0.3-0.542 0.653-0.731 1.061-0.19 0.408-0.313 0.854-0.366 1.338h6.78z"/>
	<path d="m349.5 166.2h-1.575v-9.881h1.575v1.721c0.354-0.535 0.818-0.991 1.391-1.367 0.573-0.375 1.316-0.563 2.23-0.563 0.641 0 1.21 0.096 1.708 0.287 0.497 0.19 0.92 0.462 1.268 0.812 0.348 0.351 0.614 0.768 0.798 1.252 0.185 0.484 0.276 1.02 0.276 1.605v6.135h-1.575v-5.771c0-0.918-0.253-1.644-0.757-2.179-0.505-0.535-1.228-0.803-2.168-0.803-0.45 0-0.869 0.073-1.258 0.22s-0.727 0.356-1.013 0.631c-0.286 0.273-0.509 0.602-0.665 0.984-0.157 0.382-0.235 0.803-0.235 1.261v5.66z"/>
	<path d="m362.84 157.69c-0.511 0.133-1.013 0.309-1.503 0.525l-0.471-1.204c0.586-0.255 1.18-0.456 1.779-0.603 0.601-0.146 1.289-0.22 2.066-0.22 1.445 0 2.557 0.335 3.334 1.004s1.166 1.659 1.166 2.972v6.039h-1.514v-1.49c-0.368 0.445-0.863 0.841-1.483 1.185s-1.401 0.516-2.342 0.516c-0.491 0-0.972-0.063-1.442-0.19-0.47-0.128-0.893-0.322-1.268-0.583-0.376-0.262-0.676-0.583-0.9-0.966-0.225-0.382-0.338-0.834-0.338-1.356s0.109-0.984 0.328-1.386c0.218-0.401 0.528-0.735 0.931-1.003 0.401-0.268 0.879-0.472 1.432-0.612 0.552-0.14 1.162-0.21 1.83-0.21 0.683 0 1.275 0.038 1.78 0.115 0.504 0.076 0.995 0.178 1.473 0.306v-0.345c0-0.892-0.276-1.563-0.828-2.016-0.553-0.452-1.327-0.679-2.322-0.679-0.64 0.01-1.21 0.07-1.72 0.21zm-0.5 4.06c-0.53 0.37-0.795 0.873-0.795 1.51 0 0.318 0.071 0.6 0.214 0.841 0.143 0.242 0.337 0.449 0.581 0.621 0.245 0.172 0.526 0.303 0.847 0.393 0.319 0.089 0.655 0.133 1.009 0.133 0.489 0 0.948-0.066 1.376-0.2 0.429-0.134 0.802-0.318 1.122-0.555 0.319-0.235 0.57-0.516 0.754-0.841 0.184-0.324 0.275-0.685 0.275-1.079v-0.956c-0.395-0.102-0.847-0.197-1.356-0.286-0.51-0.09-1.091-0.134-1.743-0.134-0.99 0.02-1.75 0.2-2.28 0.57z"/>
	<path d="m381.55 157.32c0.238-0.242 0.508-0.452 0.808-0.631 0.3-0.178 0.638-0.318 1.013-0.42 0.375-0.103 0.794-0.153 1.258-0.153 1.228 0 2.188 0.354 2.885 1.061 0.695 0.707 1.043 1.679 1.043 2.915v6.115h-1.575v-5.771c0-0.956-0.242-1.691-0.727-2.208-0.483-0.516-1.155-0.773-2.015-0.773-0.396 0-0.771 0.066-1.125 0.2s-0.665 0.332-0.931 0.593c-0.266 0.262-0.478 0.583-0.634 0.965-0.157 0.383-0.235 0.815-0.235 1.3v5.695h-1.555v-5.81c0-0.931-0.242-1.653-0.726-2.17-0.484-0.516-1.149-0.773-1.995-0.773-0.423 0-0.812 0.076-1.166 0.229-0.354 0.152-0.664 0.369-0.931 0.649-0.266 0.28-0.474 0.608-0.623 0.984-0.15 0.376-0.226 0.793-0.226 1.252v5.638h-1.575v-9.881h1.575v1.663c0.177-0.242 0.371-0.478 0.583-0.707 0.211-0.229 0.453-0.431 0.727-0.603 0.272-0.172 0.579-0.309 0.92-0.41 0.341-0.103 0.736-0.153 1.187-0.153 0.859 0 1.568 0.188 2.127 0.563 0.56 0.376 0.982 0.845 1.269 1.405 0.18-0.29 0.39-0.54 0.63-0.78z"/>
	<path d="m392.69 163.23c0.218 0.414 0.497 0.765 0.838 1.051 0.341 0.287 0.723 0.504 1.146 0.65s0.866 0.22 1.33 0.22c0.736 0 1.367-0.128 1.892-0.383s1.006-0.592 1.442-1.013l0.981 0.822c-0.531 0.561-1.139 1.01-1.82 1.347-0.682 0.338-1.527 0.507-2.536 0.507-0.723 0-1.404-0.124-2.046-0.373-0.641-0.248-1.201-0.599-1.682-1.051s-0.862-0.997-1.146-1.634c-0.283-0.638-0.425-1.338-0.425-2.103 0-0.714 0.126-1.386 0.379-2.017 0.252-0.631 0.603-1.178 1.053-1.644 0.45-0.465 0.985-0.831 1.606-1.099 0.62-0.268 1.299-0.401 2.035-0.401 0.777 0 1.473 0.137 2.086 0.411 0.613 0.273 1.132 0.646 1.555 1.118 0.423 0.471 0.743 1.025 0.961 1.662 0.219 0.638 0.328 1.319 0.328 2.045v0.21c0 0.077-0.008 0.16-0.021 0.249h-8.366c0.05 0.52 0.19 1 0.41 1.41zm6.36-2.51c-0.041-0.445-0.14-0.872-0.295-1.28-0.156-0.407-0.373-0.765-0.65-1.07-0.278-0.306-0.617-0.551-1.017-0.735-0.4-0.185-0.864-0.277-1.394-0.277-0.461 0-0.888 0.086-1.28 0.258-0.394 0.172-0.739 0.408-1.037 0.707-0.298 0.3-0.542 0.653-0.731 1.061-0.19 0.408-0.313 0.854-0.366 1.338h6.77z"/>
	<path d="m404.68 166.2h-1.575v-9.881h1.575v1.721c0.354-0.535 0.818-0.991 1.391-1.367 0.573-0.375 1.316-0.563 2.23-0.563 0.641 0 1.21 0.096 1.708 0.287 0.497 0.19 0.92 0.462 1.268 0.812 0.348 0.351 0.614 0.768 0.798 1.252 0.185 0.484 0.276 1.02 0.276 1.605v6.135h-1.575v-5.771c0-0.918-0.253-1.644-0.757-2.179-0.505-0.535-1.228-0.803-2.168-0.803-0.45 0-0.869 0.073-1.258 0.22s-0.727 0.356-1.013 0.631c-0.286 0.273-0.509 0.602-0.665 0.984-0.157 0.382-0.235 0.803-0.235 1.261v5.66z"/>
	<path d="m418.03 163.39c0 0.611 0.163 1.039 0.49 1.28 0.328 0.242 0.757 0.363 1.289 0.363 0.272 0 0.528-0.025 0.767-0.076s0.494-0.14 0.768-0.268v1.262c-0.273 0.14-0.563 0.245-0.869 0.314-0.307 0.07-0.651 0.105-1.033 0.105-0.423 0-0.818-0.051-1.187-0.152-0.368-0.103-0.686-0.265-0.951-0.487-0.266-0.224-0.474-0.513-0.624-0.87-0.15-0.356-0.225-0.783-0.225-1.28v-5.963h-1.473v-1.3h1.473v-2.981h1.575v2.981h3.354v1.3h-3.354v5.78z"/>
	<path d="m433.65 163.25c-0.279 0.631-0.664 1.183-1.155 1.653-0.491 0.472-1.077 0.845-1.759 1.118-0.683 0.273-1.419 0.411-2.209 0.411-0.791 0-1.521-0.138-2.189-0.411s-1.247-0.644-1.738-1.108-0.873-1.01-1.146-1.634c-0.273-0.624-0.409-1.287-0.409-1.988 0-0.7 0.136-1.366 0.409-1.997 0.272-0.63 0.654-1.182 1.146-1.652 0.491-0.472 1.074-0.845 1.749-1.118 0.675-0.274 1.414-0.411 2.219-0.411 0.791 0 1.524 0.137 2.199 0.411 0.675 0.273 1.258 0.644 1.749 1.108s0.872 1.01 1.146 1.634c0.272 0.624 0.409 1.287 0.409 1.987-0.01 0.7-0.15 1.37-0.43 2zm-1.49-3.48c-0.197-0.47-0.474-0.88-0.828-1.229s-0.771-0.626-1.248-0.829-0.995-0.305-1.554-0.305c-0.573 0-1.099 0.099-1.575 0.295-0.478 0.197-0.884 0.471-1.218 0.82s-0.597 0.756-0.787 1.22c-0.191 0.464-0.286 0.963-0.286 1.497 0 0.533 0.099 1.035 0.296 1.506 0.198 0.471 0.471 0.877 0.818 1.22 0.348 0.344 0.761 0.616 1.238 0.82 0.477 0.203 0.995 0.305 1.554 0.305 0.573 0 1.098-0.099 1.575-0.295 0.478-0.197 0.887-0.468 1.228-0.811 0.341-0.344 0.606-0.747 0.798-1.211 0.19-0.464 0.286-0.963 0.286-1.496 0-0.53-0.1-1.04-0.3-1.51z"/>
	<path d="m450.78 166.2v-1.987c-0.219 0.293-0.46 0.573-0.727 0.841-0.266 0.268-0.563 0.503-0.89 0.707s-0.692 0.363-1.095 0.478c-0.402 0.115-0.849 0.172-1.339 0.172-0.642 0-1.262-0.114-1.862-0.344-0.6-0.229-1.139-0.563-1.615-1.003-0.478-0.44-0.859-0.979-1.146-1.615s-0.43-1.363-0.43-2.179 0.144-1.542 0.43-2.179 0.668-1.176 1.146-1.615c0.477-0.439 1.016-0.776 1.615-1.013 0.601-0.235 1.221-0.354 1.862-0.354 0.49 0 0.94 0.058 1.35 0.172 0.409 0.115 0.777 0.268 1.104 0.459 0.327 0.19 0.624 0.414 0.89 0.669s0.501 0.522 0.706 0.803v-5.963h1.575v13.951h-1.56zm-0.26-6.51c-0.212-0.47-0.498-0.868-0.859-1.198s-0.771-0.586-1.227-0.771c-0.457-0.184-0.932-0.275-1.422-0.275-0.519 0-1.003 0.086-1.452 0.257-0.45 0.171-0.843 0.418-1.177 0.741s-0.6 0.723-0.798 1.198c-0.197 0.476-0.296 1.011-0.296 1.606 0 0.584 0.099 1.109 0.296 1.579 0.198 0.469 0.468 0.871 0.809 1.207s0.736 0.593 1.187 0.771c0.449 0.178 0.927 0.266 1.432 0.266 0.49 0 0.965-0.092 1.422-0.275 0.456-0.184 0.865-0.44 1.227-0.77 0.361-0.33 0.647-0.732 0.859-1.208 0.211-0.476 0.317-0.998 0.317-1.569 0-0.57-0.1-1.09-0.32-1.56z"/>
	<path d="m457.46 163.23c0.218 0.414 0.497 0.765 0.838 1.051 0.341 0.287 0.723 0.504 1.146 0.65s0.866 0.22 1.33 0.22c0.736 0 1.367-0.128 1.892-0.383s1.006-0.592 1.442-1.013l0.981 0.822c-0.531 0.561-1.139 1.01-1.82 1.347-0.682 0.338-1.527 0.507-2.536 0.507-0.723 0-1.404-0.124-2.046-0.373-0.641-0.248-1.201-0.599-1.682-1.051s-0.862-0.997-1.146-1.634c-0.283-0.638-0.425-1.338-0.425-2.103 0-0.714 0.126-1.386 0.379-2.017 0.252-0.631 0.603-1.178 1.053-1.644 0.45-0.465 0.985-0.831 1.606-1.099 0.62-0.268 1.299-0.401 2.035-0.401 0.777 0 1.473 0.137 2.086 0.411 0.613 0.273 1.132 0.646 1.555 1.118 0.423 0.471 0.743 1.025 0.961 1.662 0.219 0.638 0.328 1.319 0.328 2.045v0.21c0 0.077-0.008 0.16-0.021 0.249h-8.366c0.06 0.52 0.2 1 0.42 1.41zm6.36-2.51c-0.041-0.445-0.14-0.872-0.295-1.28-0.156-0.407-0.373-0.765-0.65-1.07-0.278-0.306-0.617-0.551-1.017-0.735-0.4-0.185-0.864-0.277-1.394-0.277-0.461 0-0.888 0.086-1.28 0.258-0.394 0.172-0.739 0.408-1.037 0.707-0.298 0.3-0.542 0.653-0.731 1.061-0.19 0.408-0.313 0.854-0.366 1.338h6.78z"/>
</g>
<g fill="#fff">
	<path d="m281.53 233.92v-1.987c-0.219 0.293-0.46 0.573-0.727 0.841-0.266 0.268-0.563 0.503-0.89 0.707s-0.692 0.363-1.095 0.478c-0.402 0.115-0.849 0.172-1.339 0.172-0.642 0-1.262-0.114-1.862-0.344-0.6-0.229-1.139-0.563-1.615-1.003-0.478-0.44-0.859-0.979-1.146-1.615s-0.43-1.363-0.43-2.179 0.144-1.542 0.43-2.179 0.668-1.176 1.146-1.615c0.477-0.439 1.016-0.776 1.615-1.013 0.601-0.235 1.221-0.354 1.862-0.354 0.49 0 0.94 0.058 1.35 0.172 0.409 0.115 0.777 0.268 1.104 0.459 0.327 0.19 0.624 0.414 0.89 0.669s0.501 0.522 0.706 0.803v-5.963h1.575v13.951h-1.57zm-0.26-6.51c-0.212-0.47-0.498-0.868-0.859-1.198s-0.771-0.586-1.227-0.771c-0.457-0.184-0.932-0.275-1.422-0.275-0.519 0-1.003 0.086-1.452 0.257-0.45 0.171-0.843 0.418-1.177 0.741s-0.6 0.723-0.798 1.198c-0.197 0.476-0.296 1.011-0.296 1.606 0 0.584 0.099 1.109 0.296 1.579 0.198 0.469 0.468 0.871 0.809 1.207s0.736 0.593 1.187 0.771c0.449 0.178 0.927 0.266 1.432 0.266 0.49 0 0.965-0.092 1.422-0.275 0.456-0.184 0.865-0.44 1.227-0.77 0.361-0.33 0.647-0.732 0.859-1.208 0.211-0.476 0.317-0.998 0.317-1.569 0-0.58-0.11-1.09-0.32-1.56z"/>
	<path d="m296.79 230.96c-0.279 0.631-0.664 1.183-1.155 1.653-0.491 0.472-1.077 0.845-1.759 1.118-0.683 0.273-1.419 0.411-2.209 0.411-0.791 0-1.521-0.138-2.189-0.411s-1.247-0.644-1.738-1.108-0.873-1.01-1.146-1.634c-0.273-0.624-0.409-1.287-0.409-1.988 0-0.7 0.136-1.366 0.409-1.997 0.272-0.63 0.654-1.182 1.146-1.652 0.491-0.472 1.074-0.845 1.749-1.118 0.675-0.274 1.414-0.411 2.219-0.411 0.791 0 1.524 0.137 2.199 0.411 0.675 0.273 1.258 0.644 1.749 1.108s0.872 1.01 1.146 1.634c0.272 0.624 0.409 1.287 0.409 1.987-0.01 0.71-0.15 1.37-0.43 2zm-1.5-3.47c-0.197-0.47-0.474-0.88-0.828-1.229s-0.771-0.626-1.248-0.829-0.995-0.305-1.554-0.305c-0.573 0-1.099 0.099-1.575 0.295-0.478 0.197-0.884 0.471-1.218 0.82s-0.597 0.756-0.787 1.22c-0.191 0.464-0.286 0.963-0.286 1.497 0 0.533 0.099 1.035 0.296 1.506 0.198 0.471 0.471 0.877 0.818 1.22 0.348 0.344 0.761 0.616 1.238 0.82 0.477 0.203 0.995 0.305 1.554 0.305 0.573 0 1.098-0.099 1.575-0.295 0.478-0.197 0.887-0.468 1.228-0.811 0.341-0.344 0.606-0.747 0.798-1.211 0.19-0.464 0.286-0.963 0.286-1.496 0.01-0.54-0.09-1.04-0.29-1.51z"/>
	<path d="m306.6 232.4c-0.197 0.363-0.464 0.672-0.798 0.927s-0.729 0.449-1.186 0.583c-0.457 0.134-0.951 0.201-1.483 0.201-0.764 0-1.534-0.131-2.312-0.392-0.777-0.262-1.466-0.615-2.065-1.062l0.798-1.051c0.572 0.408 1.169 0.72 1.789 0.937 0.621 0.217 1.244 0.325 1.872 0.325 0.641 0 1.166-0.141 1.575-0.421s0.613-0.662 0.613-1.146v-0.038c0-0.242-0.071-0.452-0.215-0.631s-0.338-0.335-0.583-0.469-0.528-0.251-0.849-0.354c-0.32-0.102-0.651-0.197-0.992-0.286-0.409-0.115-0.821-0.239-1.237-0.373s-0.791-0.303-1.125-0.506c-0.335-0.204-0.607-0.459-0.818-0.765-0.212-0.306-0.317-0.688-0.317-1.146v-0.039c0-0.42 0.089-0.806 0.267-1.156 0.177-0.35 0.426-0.649 0.746-0.897 0.32-0.249 0.702-0.439 1.146-0.573s0.924-0.201 1.442-0.201c0.654 0 1.315 0.099 1.983 0.296 0.668 0.198 1.275 0.462 1.821 0.794l-0.716 1.108c-0.491-0.293-1.006-0.526-1.545-0.698s-1.067-0.258-1.585-0.258c-0.628 0-1.125 0.138-1.493 0.411-0.368 0.274-0.553 0.615-0.553 1.022v0.038c0 0.229 0.075 0.43 0.226 0.603 0.149 0.172 0.351 0.321 0.604 0.448 0.252 0.128 0.542 0.242 0.869 0.345 0.327 0.102 0.668 0.204 1.022 0.306 0.409 0.114 0.814 0.242 1.217 0.382 0.402 0.141 0.768 0.318 1.095 0.535s0.59 0.478 0.787 0.784c0.198 0.306 0.297 0.682 0.297 1.127v0.038c-0.04 0.49-0.14 0.9-0.33 1.27z"/>
	<path d="m317.25 220.54v13.378h-1.616v-13.378h1.62z"/>
	<path d="m332.98 228.2c0 0.98-0.144 1.841-0.43 2.579-0.287 0.739-0.692 1.357-1.218 1.854-0.524 0.497-1.152 0.869-1.882 1.118-0.729 0.248-1.544 0.372-2.444 0.372-0.886 0-1.694-0.124-2.424-0.372-0.729-0.249-1.356-0.618-1.882-1.108-0.524-0.491-0.931-1.1-1.217-1.825-0.286-0.727-0.43-1.561-0.43-2.504v-7.778h1.616v7.683c0 1.452 0.385 2.567 1.155 3.345s1.845 1.166 3.222 1.166c1.323 0 2.373-0.37 3.15-1.108 0.777-0.739 1.166-1.842 1.166-3.307v-7.778h1.616v7.67z"/>
	<path d="m343.95 230.25h-0.081l-5.217-7.148v10.817h-1.574v-13.378h1.636l5.216 7.301 5.217-7.301h1.636v13.378h-1.615v-10.836l-5.23 7.17z"/>
	<path d="m355 223.55c0.219-0.261 0.307-0.596 0.267-1.003h-0.736v-2.007h1.882v1.72c0 0.777-0.185 1.366-0.553 1.768s-0.94 0.686-1.718 0.851l-0.246-0.669c0.52-0.18 0.89-0.4 1.11-0.66z"/>
	<path d="m361.08 224.73c0.108 0.255 0.307 0.488 0.593 0.698 0.287 0.211 0.682 0.402 1.187 0.574 0.505 0.173 1.152 0.335 1.943 0.488 1.596 0.332 2.771 0.791 3.528 1.378s1.136 1.397 1.136 2.431c0 0.574-0.122 1.098-0.364 1.57s-0.576 0.874-1.002 1.205c-0.426 0.332-0.938 0.588-1.539 0.766-0.6 0.179-1.255 0.269-1.963 0.269-1.146 0-2.192-0.173-3.141-0.519-0.947-0.345-1.851-0.88-2.71-1.604l1.002-1.108c0.75 0.638 1.507 1.112 2.271 1.424 0.764 0.313 1.644 0.469 2.639 0.469 0.969 0 1.742-0.211 2.322-0.632 0.579-0.421 0.869-0.977 0.869-1.665 0-0.319-0.055-0.603-0.164-0.852s-0.301-0.476-0.574-0.68-0.652-0.389-1.138-0.555c-0.485-0.167-1.104-0.326-1.855-0.479-0.82-0.165-1.535-0.356-2.143-0.574-0.609-0.217-1.111-0.479-1.508-0.784-0.396-0.307-0.69-0.663-0.882-1.072-0.191-0.408-0.286-0.894-0.286-1.455 0-0.535 0.115-1.026 0.348-1.474 0.231-0.446 0.559-0.832 0.981-1.157 0.423-0.326 0.921-0.581 1.493-0.766 0.573-0.186 1.2-0.278 1.882-0.278 1.05 0 1.967 0.136 2.751 0.405 0.784 0.271 1.545 0.677 2.281 1.22l-0.941 1.165c-0.668-0.509-1.34-0.879-2.015-1.108s-1.381-0.344-2.117-0.344c-0.464 0-0.883 0.058-1.258 0.173-0.375 0.114-0.695 0.268-0.961 0.459-0.267 0.191-0.471 0.421-0.614 0.689s-0.215 0.555-0.215 0.86c-0.02 0.31 0.03 0.6 0.14 0.86z"/>
	<path d="m385.27 233.6c-0.676 0.362-1.511 0.543-2.506 0.543-0.777 0-1.497-0.138-2.158-0.411-0.662-0.273-1.234-0.644-1.719-1.108-0.483-0.465-0.862-1.01-1.135-1.634s-0.409-1.287-0.409-1.988c0-0.7 0.136-1.366 0.409-1.997 0.272-0.63 0.651-1.182 1.135-1.652 0.484-0.472 1.057-0.845 1.719-1.118 0.661-0.274 1.381-0.411 2.158-0.411 0.504 0 0.961 0.045 1.37 0.134s0.784 0.214 1.125 0.373 0.654 0.347 0.941 0.563c0.286 0.217 0.552 0.446 0.797 0.688l-1.043 1.032c-0.423-0.407-0.883-0.758-1.381-1.051s-1.107-0.439-1.83-0.439c-0.532 0-1.03 0.099-1.493 0.295-0.464 0.197-0.866 0.471-1.207 0.82s-0.607 0.756-0.798 1.22c-0.191 0.464-0.286 0.963-0.286 1.497 0 0.533 0.099 1.035 0.296 1.506 0.198 0.471 0.471 0.88 0.818 1.229s0.757 0.623 1.228 0.82c0.471 0.196 0.985 0.295 1.544 0.295 0.683 0 1.285-0.14 1.811-0.421 0.525-0.279 0.999-0.63 1.422-1.051l1.002 0.879c-0.54 0.57-1.14 1.03-1.81 1.39z"/>
	<path d="m398.74 230.96c-0.279 0.631-0.664 1.183-1.155 1.653-0.491 0.472-1.077 0.845-1.759 1.118-0.683 0.273-1.419 0.411-2.209 0.411-0.791 0-1.521-0.138-2.189-0.411s-1.247-0.644-1.738-1.108-0.873-1.01-1.146-1.634c-0.273-0.624-0.409-1.287-0.409-1.988 0-0.7 0.136-1.366 0.409-1.997 0.272-0.63 0.654-1.182 1.146-1.652 0.491-0.472 1.074-0.845 1.749-1.118 0.675-0.274 1.414-0.411 2.219-0.411 0.791 0 1.524 0.137 2.199 0.411 0.675 0.273 1.258 0.644 1.749 1.108s0.872 1.01 1.146 1.634c0.272 0.624 0.409 1.287 0.409 1.987 0 0.71-0.14 1.37-0.42 2zm-1.49-3.47c-0.197-0.47-0.474-0.88-0.828-1.229s-0.771-0.626-1.248-0.829-0.995-0.305-1.554-0.305c-0.573 0-1.099 0.099-1.575 0.295-0.478 0.197-0.884 0.471-1.218 0.82s-0.597 0.756-0.787 1.22c-0.191 0.464-0.286 0.963-0.286 1.497 0 0.533 0.099 1.035 0.296 1.506 0.198 0.471 0.471 0.877 0.818 1.22 0.348 0.344 0.761 0.616 1.238 0.82 0.477 0.203 0.995 0.305 1.554 0.305 0.573 0 1.098-0.099 1.575-0.295 0.478-0.197 0.887-0.468 1.228-0.811 0.341-0.344 0.606-0.747 0.798-1.211 0.19-0.464 0.286-0.963 0.286-1.496 0-0.54-0.09-1.04-0.29-1.51z"/>
	<path d="m401.73 233.92v-13.951h1.575v13.951h-1.57z"/>
	<path d="m407.75 230.94c0.218 0.414 0.497 0.765 0.838 1.051 0.341 0.287 0.723 0.504 1.146 0.65s0.866 0.22 1.33 0.22c0.736 0 1.367-0.128 1.892-0.383s1.006-0.592 1.442-1.013l0.981 0.822c-0.531 0.561-1.139 1.01-1.82 1.347-0.682 0.338-1.527 0.507-2.536 0.507-0.723 0-1.404-0.124-2.046-0.373-0.641-0.248-1.201-0.599-1.682-1.051s-0.862-0.997-1.146-1.634c-0.283-0.638-0.425-1.338-0.425-2.103 0-0.714 0.126-1.386 0.379-2.017 0.252-0.631 0.603-1.178 1.053-1.644 0.45-0.465 0.985-0.831 1.606-1.099 0.62-0.268 1.299-0.401 2.035-0.401 0.777 0 1.473 0.137 2.086 0.411 0.613 0.273 1.132 0.646 1.555 1.118 0.423 0.471 0.743 1.025 0.961 1.662 0.219 0.638 0.328 1.319 0.328 2.045v0.21c0 0.077-0.008 0.16-0.021 0.249h-8.366c0.06 0.51 0.19 0.99 0.41 1.4zm6.36-2.51c-0.041-0.445-0.14-0.872-0.295-1.28-0.156-0.407-0.373-0.765-0.65-1.07-0.278-0.306-0.617-0.551-1.017-0.735-0.4-0.185-0.864-0.277-1.394-0.277-0.461 0-0.888 0.086-1.28 0.258-0.394 0.172-0.739 0.408-1.037 0.707-0.298 0.3-0.542 0.653-0.731 1.061-0.19 0.408-0.313 0.854-0.366 1.338h6.77z"/>
	<path d="m420.3 231.1c0 0.611 0.163 1.039 0.49 1.28 0.328 0.242 0.757 0.363 1.289 0.363 0.272 0 0.528-0.025 0.767-0.076s0.494-0.14 0.768-0.268v1.262c-0.273 0.14-0.563 0.245-0.869 0.314-0.307 0.07-0.651 0.105-1.033 0.105-0.423 0-0.818-0.051-1.187-0.152-0.368-0.103-0.686-0.265-0.951-0.487-0.266-0.224-0.474-0.513-0.624-0.87-0.15-0.356-0.225-0.783-0.225-1.28v-5.963h-1.473v-1.3h1.473v-2.981h1.575v2.981h3.354v1.3h-3.354v5.79z"/>
	<path d="m428.09 225.4c-0.511 0.133-1.013 0.309-1.503 0.525l-0.471-1.204c0.586-0.255 1.18-0.456 1.779-0.603 0.601-0.146 1.289-0.22 2.066-0.22 1.445 0 2.557 0.335 3.334 1.004s1.166 1.659 1.166 2.972v6.039h-1.514v-1.49c-0.368 0.445-0.863 0.841-1.483 1.185s-1.401 0.516-2.342 0.516c-0.491 0-0.972-0.063-1.442-0.19-0.47-0.128-0.893-0.322-1.268-0.583-0.376-0.262-0.676-0.583-0.9-0.966-0.225-0.382-0.338-0.834-0.338-1.356s0.109-0.984 0.328-1.386c0.218-0.401 0.528-0.735 0.931-1.003 0.401-0.268 0.879-0.472 1.432-0.612 0.552-0.14 1.162-0.21 1.83-0.21 0.683 0 1.275 0.038 1.78 0.115 0.504 0.076 0.995 0.178 1.473 0.306v-0.345c0-0.892-0.276-1.563-0.828-2.016-0.553-0.452-1.327-0.679-2.322-0.679-0.64 0.02-1.21 0.09-1.72 0.22zm-0.51 4.06c-0.53 0.37-0.795 0.873-0.795 1.51 0 0.318 0.071 0.6 0.214 0.841 0.143 0.242 0.337 0.449 0.581 0.621 0.245 0.172 0.526 0.303 0.847 0.393 0.319 0.089 0.655 0.133 1.009 0.133 0.489 0 0.948-0.066 1.376-0.2 0.429-0.134 0.802-0.318 1.122-0.555 0.319-0.235 0.57-0.516 0.754-0.841 0.184-0.324 0.275-0.685 0.275-1.079v-0.956c-0.395-0.102-0.847-0.197-1.356-0.286-0.51-0.09-1.091-0.134-1.743-0.134-0.98 0.01-1.74 0.19-2.28 0.56z"/>
	<path d="m446.26 233.92v-1.987c-0.219 0.293-0.46 0.573-0.727 0.841-0.266 0.268-0.563 0.503-0.89 0.707s-0.692 0.363-1.095 0.478c-0.402 0.115-0.849 0.172-1.339 0.172-0.642 0-1.262-0.114-1.862-0.344-0.6-0.229-1.139-0.563-1.615-1.003-0.478-0.44-0.859-0.979-1.146-1.615s-0.43-1.363-0.43-2.179 0.144-1.542 0.43-2.179 0.668-1.176 1.146-1.615c0.477-0.439 1.016-0.776 1.615-1.013 0.601-0.235 1.221-0.354 1.862-0.354 0.49 0 0.94 0.058 1.35 0.172 0.409 0.115 0.777 0.268 1.104 0.459 0.327 0.19 0.624 0.414 0.89 0.669s0.501 0.522 0.706 0.803v-5.963h1.575v13.951h-1.56zm-0.26-6.51c-0.212-0.47-0.498-0.868-0.859-1.198s-0.771-0.586-1.227-0.771c-0.457-0.184-0.932-0.275-1.422-0.275-0.519 0-1.003 0.086-1.452 0.257-0.45 0.171-0.843 0.418-1.177 0.741s-0.6 0.723-0.798 1.198c-0.197 0.476-0.296 1.011-0.296 1.606 0 0.584 0.099 1.109 0.296 1.579 0.198 0.469 0.468 0.871 0.809 1.207s0.736 0.593 1.187 0.771c0.449 0.178 0.927 0.266 1.432 0.266 0.49 0 0.965-0.092 1.422-0.275 0.456-0.184 0.865-0.44 1.227-0.77 0.361-0.33 0.647-0.732 0.859-1.208 0.211-0.476 0.317-0.998 0.317-1.569 0-0.58-0.11-1.09-0.32-1.56z"/>
	<path d="m461.51 230.96c-0.279 0.631-0.664 1.183-1.155 1.653-0.491 0.472-1.077 0.845-1.759 1.118-0.683 0.273-1.419 0.411-2.209 0.411-0.791 0-1.521-0.138-2.189-0.411s-1.247-0.644-1.738-1.108-0.873-1.01-1.146-1.634c-0.273-0.624-0.409-1.287-0.409-1.988 0-0.7 0.136-1.366 0.409-1.997 0.272-0.63 0.654-1.182 1.146-1.652 0.491-0.472 1.074-0.845 1.749-1.118 0.675-0.274 1.414-0.411 2.219-0.411 0.791 0 1.524 0.137 2.199 0.411 0.675 0.273 1.258 0.644 1.749 1.108s0.872 1.01 1.146 1.634c0.272 0.624 0.409 1.287 0.409 1.987-0.01 0.71-0.15 1.37-0.43 2zm-1.49-3.47c-0.197-0.47-0.474-0.88-0.828-1.229s-0.771-0.626-1.248-0.829-0.995-0.305-1.554-0.305c-0.573 0-1.099 0.099-1.575 0.295-0.478 0.197-0.884 0.471-1.218 0.82s-0.597 0.756-0.787 1.22c-0.191 0.464-0.286 0.963-0.286 1.497 0 0.533 0.099 1.035 0.296 1.506 0.198 0.471 0.471 0.877 0.818 1.22 0.348 0.344 0.761 0.616 1.238 0.82 0.477 0.203 0.995 0.305 1.554 0.305 0.573 0 1.098-0.099 1.575-0.295 0.478-0.197 0.887-0.468 1.228-0.811 0.341-0.344 0.606-0.747 0.798-1.211 0.19-0.464 0.286-0.963 0.286-1.496 0-0.54-0.1-1.04-0.3-1.51z"/>
	<path d="m471.32 232.4c-0.197 0.363-0.464 0.672-0.798 0.927s-0.729 0.449-1.186 0.583c-0.457 0.134-0.951 0.201-1.483 0.201-0.764 0-1.534-0.131-2.312-0.392-0.777-0.262-1.466-0.615-2.065-1.062l0.798-1.051c0.572 0.408 1.169 0.72 1.789 0.937 0.621 0.217 1.244 0.325 1.872 0.325 0.641 0 1.166-0.141 1.575-0.421s0.613-0.662 0.613-1.146v-0.038c0-0.242-0.071-0.452-0.215-0.631s-0.338-0.335-0.583-0.469-0.528-0.251-0.849-0.354c-0.32-0.102-0.651-0.197-0.992-0.286-0.409-0.115-0.821-0.239-1.237-0.373s-0.791-0.303-1.125-0.506c-0.335-0.204-0.607-0.459-0.818-0.765-0.212-0.306-0.317-0.688-0.317-1.146v-0.039c0-0.42 0.089-0.806 0.267-1.156 0.177-0.35 0.426-0.649 0.746-0.897 0.32-0.249 0.702-0.439 1.146-0.573s0.924-0.201 1.442-0.201c0.654 0 1.315 0.099 1.983 0.296 0.668 0.198 1.275 0.462 1.821 0.794l-0.716 1.108c-0.491-0.293-1.006-0.526-1.545-0.698s-1.067-0.258-1.585-0.258c-0.628 0-1.125 0.138-1.493 0.411-0.368 0.274-0.553 0.615-0.553 1.022v0.038c0 0.229 0.075 0.43 0.226 0.603 0.149 0.172 0.351 0.321 0.604 0.448 0.252 0.128 0.542 0.242 0.869 0.345 0.327 0.102 0.668 0.204 1.022 0.306 0.409 0.114 0.814 0.242 1.217 0.382 0.402 0.141 0.768 0.318 1.095 0.535s0.59 0.478 0.787 0.784c0.198 0.306 0.297 0.682 0.297 1.127v0.038c-0.03 0.49-0.13 0.9-0.33 1.27z"/>
	<path d="m473.97 233.92v-2.007h1.882v2.007h-1.88z"/>
</g>
<g fill="#fff">
	<path d="m279.96 176.02h5.369v33.682h-7.772v-26.23l-6.238 1.434-1.636-6.021 10.28-2.86z"/>
	<path d="m308.56 210.27c-9.562 0-15.852-7.501-15.852-17.247s6.392-17.342 15.954-17.342c9.562 0 15.851 7.5 15.851 17.246s-6.39 17.34-15.95 17.34zm0-27.95c-4.756 0-7.772 4.442-7.772 10.605s3.119 10.702 7.875 10.702c4.755 0 7.771-4.491 7.771-10.606s-3.12-10.69-7.87-10.69z"/>
	<path d="m360.46 209.7v-2.771c-1.892 1.958-4.499 3.248-8.283 3.248-5.164 0-9.408-2.771-9.408-7.835v-0.096c0-5.59 4.551-8.169 11.045-8.169 2.761 0 4.755 0.43 6.698 1.051v-0.43c0-3.011-1.994-4.683-5.881-4.683-2.966 0-5.062 0.525-7.567 1.386l-1.943-5.542c3.018-1.242 5.983-2.055 10.636-2.055 8.488 0 12.221 4.109 12.221 11.036v14.858h-7.53zm0.15-10.32c-1.329-0.573-3.067-0.956-4.96-0.956-3.323 0-5.368 1.242-5.368 3.536v0.096c0 1.958 1.738 3.104 4.244 3.104 3.63 0 6.084-1.863 6.084-4.49v-1.29z"/>
	<path d="m391.22 209.7v-14.285c0-3.439-1.738-5.207-4.704-5.207s-4.857 1.768-4.857 5.207v14.285h-7.772v-25.607h7.772v3.631c1.79-2.15 4.091-4.108 8.027-4.108 5.881 0 9.307 3.631 9.307 9.507v16.578h-7.78z"/>
	<path d="m418.82 210.27c-8.488 0-14.777-5.876-14.777-13.233v-0.096c0-7.357 6.341-13.329 14.88-13.329 8.487 0 14.777 5.876 14.777 13.233v0.096c0 7.36-6.34 13.33-14.88 13.33zm7.22-13.33c0-3.774-2.915-7.071-7.21-7.071-4.448 0-7.107 3.201-7.107 6.976v0.096c0 3.774 2.914 7.07 7.21 7.07 4.448 0 7.107-3.2 7.107-6.975v-0.1z"/>
	<path d="m448.48 210.18c-3.835 0-8.13-1.194-11.761-3.869l3.324-4.778c2.966 2.007 6.084 3.058 8.641 3.058 2.25 0 3.272-0.764 3.272-1.911v-0.095c0-1.577-2.658-2.103-5.675-2.963-3.835-1.051-8.182-2.723-8.182-7.691v-0.096c0-5.207 4.5-8.121 10.021-8.121 3.478 0 7.262 1.099 10.227 2.962l-2.965 5.016c-2.711-1.48-5.421-2.389-7.415-2.389-1.892 0-2.863 0.765-2.863 1.768v0.096c0 1.434 2.608 2.103 5.573 3.058 3.835 1.194 8.284 2.915 8.284 7.597v0.096c0.01 5.67-4.54 8.25-10.47 8.25z"/>
</g>
<rect y="152.25" x="269.4" height="81.826" width="207.86" fill="none"/>
</svg>
