<?xml version="1.0" encoding="utf-8"?>
<!-- Generator: Adobe Illustrator 16.0.0, SVG Export Plug-In . SVG Version: 6.00 Build 0)  -->
<!DOCTYPE svg PUBLIC "-//W3C//DTD SVG 1.1//EN" "http://www.w3.org/Graphics/SVG/1.1/DTD/svg11.dtd">
<svg version="1.1" id="Layer_1" xmlns="http://www.w3.org/2000/svg" xmlns:xlink="http://www.w3.org/1999/xlink" x="0px" y="0px"
	 width="500px" height="265px" viewBox="0 0 500 265" enable-background="new 0 0 500 265" xml:space="preserve">
<g>
	<defs>
		<rect id="SVGID_1_" x="11.244" y="12.227" width="494.679" height="167.365"/>
	</defs>
	<clipPath id="SVGID_2_">
		<use xlink:href="#SVGID_1_"  overflow="visible"/>
	</clipPath>
	<g opacity="0.1" clip-path="url(#SVGID_2_)">
		<g>
			<defs>
				<rect id="SVGID_3_" x="244.414" y="71.523" width="261.509" height="108.069"/>
			</defs>
			<clipPath id="SVGID_4_">
				<use xlink:href="#SVGID_3_"  overflow="visible"/>
			</clipPath>
			<g clip-path="url(#SVGID_4_)">
				<defs>
					<rect id="SVGID_5_" x="244.414" y="71.523" width="261.509" height="108.069"/>
				</defs>
				<clipPath id="SVGID_6_">
					<use xlink:href="#SVGID_5_"  overflow="visible"/>
				</clipPath>
				<defs>
					<filter id="Adobe_OpacityMaskFilter" filterUnits="userSpaceOnUse" x="244.414" y="71.523" width="261.509" height="108.069">
						<feColorMatrix  type="matrix" values="1 0 0 0 0  0 1 0 0 0  0 0 1 0 0  0 0 0 1 0"/>
					</filter>
				</defs>
				<mask maskUnits="userSpaceOnUse" x="244.414" y="71.523" width="261.509" height="108.069" id="SVGID_7_">
					<g filter="url(#Adobe_OpacityMaskFilter)">
						<rect x="244.414" y="71.523" clip-path="url(#SVGID_6_)" width="261.509" height="108.069"/>
						<g enable-background="new    ">
							<g>
								<defs>
									<rect id="SVGID_8_" x="244.414" y="71.523" width="261.509" height="108.069"/>
								</defs>
								<clipPath id="SVGID_9_" clip-path="url(#SVGID_6_)">
									<use xlink:href="#SVGID_8_"  overflow="visible"/>
								</clipPath>
								<g>
									<defs>
										
											<rect id="SVGID_10_" x="257.667" y="-13.203" transform="matrix(-0.5548 -0.832 0.832 -0.5548 478.8708 507.3481)" width="235.006" height="277.522"/>
									</defs>
									<clipPath id="SVGID_11_" clip-path="url(#SVGID_9_)">
										<use xlink:href="#SVGID_10_"  overflow="visible"/>
									</clipPath>
									
										<linearGradient id="SVGID_12_" gradientUnits="userSpaceOnUse" x1="1.9795" y1="163.1421" x2="4.3615" y2="163.1421" gradientTransform="matrix(24.2252 36.3242 -36.3242 24.2252 6233.1646 -3928.5752)">
										<stop  offset="0" style="stop-color:#FFFFFF"/>
										<stop  offset="0.9139" style="stop-color:#000000"/>
										<stop  offset="0.926" style="stop-color:#000000"/>
										<stop  offset="1" style="stop-color:#000000"/>
									</linearGradient>
									<polygon clip-path="url(#SVGID_11_)" fill="url(#SVGID_12_)" points="33.2,58.403 305.751,467.075 717.139,192.714 
										444.588,-215.959 									"/>
								</g>
							</g>
						</g>
					</g>
				</mask>
				<g clip-path="url(#SVGID_6_)" mask="url(#SVGID_7_)">
					<g>
						<defs>
							<rect id="SVGID_13_" x="244.414" y="71.523" width="261.509" height="108.069"/>
						</defs>
						<clipPath id="SVGID_14_">
							<use xlink:href="#SVGID_13_"  overflow="visible"/>
						</clipPath>
						<polygon clip-path="url(#SVGID_14_)" points="343.902,177.21 503.541,173.866 412.147,91.53 246.801,73.908 						"/>
					</g>
				</g>
			</g>
		</g>
	</g>
</g>
<rect x="11.444" y="116.126" fill="#FFFFFF" width="208.997" height="62.654"/>
<rect x="17.14" y="123.331" width="6.03" height="6.029"/>
<rect x="29.202" y="123.331" width="6.031" height="6.029"/>
<rect x="41.264" y="123.331" width="6.028" height="6.029"/>
<rect x="53.326" y="123.331" width="6.029" height="6.029"/>
<rect x="17.14" y="129.36" width="6.03" height="6.032"/>
<rect x="35.232" y="129.36" width="6.031" height="6.032"/>
<rect x="41.264" y="129.36" width="6.028" height="6.032"/>
<rect x="47.292" y="129.36" width="6.032" height="6.032"/>
<rect x="59.352" y="129.36" width="6.032" height="6.032"/>
<rect x="17.14" y="135.392" width="6.03" height="6.029"/>
<rect x="35.232" y="135.392" width="6.031" height="6.029"/>
<rect x="47.292" y="135.392" width="6.032" height="6.029"/>
<rect x="53.326" y="135.392" width="6.029" height="6.029"/>
<rect x="17.14" y="141.423" width="6.03" height="6.029"/>
<rect x="23.17" y="141.423" width="6.032" height="6.029"/>
<rect x="23.17" y="135.392" width="6.032" height="6.029"/>
<rect x="29.202" y="141.423" width="6.031" height="6.029"/>
<rect x="41.264" y="141.423" width="6.028" height="6.029"/>
<rect x="47.292" y="141.423" width="6.032" height="6.029"/>
<rect x="53.326" y="141.423" width="6.029" height="6.029"/>
<rect x="59.352" y="141.423" width="6.032" height="6.029"/>
<rect x="17.14" y="147.453" width="6.03" height="6.031"/>
<rect x="29.202" y="147.453" width="6.031" height="6.031"/>
<rect x="35.232" y="147.453" width="6.031" height="6.031"/>
<rect x="41.264" y="147.453" width="6.028" height="6.031"/>
<rect x="17.14" y="153.484" width="6.03" height="6.029"/>
<rect x="23.17" y="153.484" width="6.032" height="6.029"/>
<rect x="35.232" y="153.484" width="6.031" height="6.029"/>
<rect x="47.292" y="153.484" width="6.032" height="6.029"/>
<rect x="59.352" y="153.484" width="6.032" height="6.029"/>
<rect x="17.14" y="159.513" width="6.03" height="6.027"/>
<rect x="41.264" y="159.513" width="6.028" height="6.027"/>
<rect x="53.326" y="159.513" width="6.029" height="6.027"/>
<rect x="17.14" y="165.541" width="6.03" height="6.034"/>
<rect x="23.17" y="165.541" width="6.032" height="6.034"/>
<rect x="29.202" y="165.541" width="6.031" height="6.034"/>
<rect x="35.232" y="165.541" width="6.031" height="6.034"/>
<rect x="41.264" y="165.541" width="6.028" height="6.034"/>
<rect x="47.292" y="165.541" width="6.032" height="6.034"/>
<rect x="53.326" y="165.541" width="6.029" height="6.034"/>
<rect x="59.352" y="165.541" width="6.032" height="6.034"/>
<polygon fill="#F37974" points="260.12,88.176 220.099,108.804 125.698,108.804 44.51,108.804 42.885,111.616 121.808,111.616 
	220.78,111.616 261.408,90.678 "/>
<polygon fill="#FFFFFF" points="11.443,108.804 11.443,111.619 42.885,111.619 41.263,108.804 "/>
<rect x="11.244" y="46.008" fill="#F37974" width="124.647" height="2.811"/>
<polygon fill="#F37974" points="277.089,99.663 239.015,80.619 245.268,77.078 247.969,78.712 245,80.463 276.933,96.438 
	280.381,94.279 283.188,95.845 "/>
<polygon fill="#DCDDDE" points="307.663,12.226 245.88,43.117 358.645,99.506 420.431,68.613 "/>
<polygon fill="#FFFFFF" points="358.645,99.504 358.645,130.211 245.88,73.825 245.88,43.119 "/>
<polygon fill="#54AFD1" points="420.654,68.497 358.645,99.504 358.645,130.209 420.654,99.209 "/>
<polygon fill="#1392C4" points="386.396,51.563 324.606,82.458 352.815,96.56 414.6,65.667 "/>
<polygon fill="#0D76BD" points="392.225,54.507 330.44,85.397 358.645,99.504 420.429,68.61 "/>
<polygon fill="#54AFD1" points="324.633,82.47 324.633,113.177 352.815,127.269 352.815,96.562 "/>
<polygon fill="#1392C4" points="330.462,85.412 330.462,116.12 358.645,130.211 358.645,99.504 "/>
<polygon fill="#0D76BD" points="304.828,22.976 268.822,40.979 285.263,49.195 321.262,31.194 "/>
<polygon points="285.416,71.899 285.416,74.36 268.822,66.064 268.822,63.603 "/>
<polygon points="285.416,75.69 285.416,78.152 268.822,69.855 268.822,67.395 "/>
<polygon points="274.953,74.301 274.953,76.762 268.824,73.646 268.824,71.188 "/>
<polygon points="274.953,78.063 274.953,80.523 268.824,77.409 268.824,74.947 "/>
<polygon fill="none" stroke="#000000" stroke-width="0.134" stroke-miterlimit="10" points="288.782,69.877 288.782,91.108 
	248.903,71.159 248.903,49.931 "/>
<polygon points="251.646,56.565 253.477,57.458 253.477,55.634 251.646,54.736 "/>
<polygon points="255.305,58.355 257.133,59.249 257.133,57.424 255.305,56.528 "/>
<polygon points="258.962,60.147 260.79,61.041 260.79,59.213 258.962,58.316 "/>
<polygon points="262.618,61.94 264.446,62.833 264.446,61.006 262.618,60.11 "/>
<polygon points="251.646,58.396 253.477,59.289 253.477,57.462 251.646,56.562 "/>
<polygon points="257.133,61.082 258.962,61.975 258.962,60.147 257.133,59.248 "/>
<polygon points="258.962,61.978 260.79,62.869 260.79,61.044 258.962,60.144 "/>
<polygon points="260.79,62.872 262.618,63.765 262.618,61.938 260.79,61.04 "/>
<polygon points="264.446,64.664 266.274,65.555 266.274,63.73 264.446,62.832 "/>
<polygon points="251.646,60.222 253.477,61.115 253.477,59.291 251.646,58.393 "/>
<polygon points="257.133,62.909 258.962,63.802 258.962,61.977 257.133,61.079 "/>
<polygon points="260.79,64.701 262.618,65.591 262.618,63.767 260.79,62.869 "/>
<polygon points="262.618,65.594 264.446,66.49 264.446,64.66 262.618,63.765 "/>
<polygon points="251.646,62.053 253.477,62.946 253.477,61.119 251.646,60.218 "/>
<polygon points="253.477,62.949 255.305,63.84 255.305,62.013 253.477,61.115 "/>
<polygon points="253.477,61.119 255.305,62.01 255.305,60.185 253.477,59.289 "/>
<polygon points="255.305,63.843 257.133,64.736 257.133,62.909 255.305,62.008 "/>
<polygon points="258.962,65.632 260.79,66.528 260.79,64.7 258.962,63.801 "/>
<polygon points="260.79,66.532 262.618,67.422 262.618,65.595 260.79,64.697 "/>
<polygon points="262.618,67.425 264.446,68.318 264.446,66.491 262.618,65.591 "/>
<polygon points="264.446,68.321 266.274,69.215 266.274,67.388 264.446,66.49 "/>
<polygon points="251.646,63.881 253.477,64.772 253.477,62.948 251.646,62.05 "/>
<polygon points="255.305,65.672 257.133,66.562 257.133,64.738 255.305,63.84 "/>
<polygon points="257.133,66.565 258.962,67.458 258.962,65.634 257.133,64.736 "/>
<polygon points="258.962,67.462 260.79,68.355 260.79,66.528 258.962,65.63 "/>
<polygon points="251.646,65.71 253.477,66.602 253.477,64.774 251.646,63.878 "/>
<polygon points="253.477,66.604 255.305,67.497 255.305,65.67 253.477,64.77 "/>
<polygon points="257.133,68.396 258.962,69.287 258.962,67.462 257.133,66.562 "/>
<polygon points="260.79,70.186 262.618,71.082 262.618,69.252 260.79,68.354 "/>
<polygon points="264.446,71.978 266.274,72.869 266.274,71.044 264.446,70.144 "/>
<polygon points="251.646,67.539 253.477,68.432 253.477,66.605 251.646,65.707 "/>
<polygon points="258.962,71.119 260.79,72.012 260.79,70.187 258.962,69.287 "/>
<polygon points="262.618,72.909 264.446,73.802 264.446,71.975 262.618,71.082 "/>
<polygon points="251.646,69.367 253.477,70.26 253.477,68.436 251.646,67.535 "/>
<polygon points="253.477,70.264 255.305,71.155 255.305,69.33 253.477,68.432 "/>
<polygon points="255.305,71.157 257.133,72.05 257.133,70.223 255.305,69.325 "/>
<polygon points="257.133,72.054 258.962,72.945 258.962,71.12 257.133,70.222 "/>
<polygon points="258.962,72.947 260.79,73.84 260.79,72.017 258.962,71.115 "/>
<polygon points="260.79,73.844 262.618,74.737 262.618,72.91 260.79,72.012 "/>
<polygon points="262.618,74.739 264.446,75.632 264.446,73.805 262.618,72.905 "/>
<polygon points="264.446,75.636 266.274,76.529 266.274,74.702 264.446,73.802 "/>
<g>
	<path fill="#FFFFFF" d="M20.843,101.218V60.256h9.012v40.962H20.843z"/>
	<path fill="#FFFFFF" d="M57.184,101.862c-11.001,0-17.73-6.144-17.73-18.199V60.256h9.012v23.173
		c0,6.671,3.335,10.123,8.836,10.123s8.836-3.335,8.836-9.831V60.256h9.012v23.115C75.149,95.776,68.186,101.862,57.184,101.862z"/>
	<path fill="#FFFFFF" d="M116.351,101.218V74.476l-11.528,17.497h-0.234L93.177,74.651v26.567h-8.836V60.256h9.714l10.767,17.321
		l10.768-17.321h9.714v40.962H116.351z"/>
</g>
<rect x="11.244" y="12.226" fill="none" width="494.679" height="167.366"/>
<rect x="269.397" y="152.25" fill="none" width="207.859" height="81.826"/>
<g>
	<path d="M79.115,131.236l0.999-1.2c0.35,0.288,0.71,0.516,1.081,0.685s0.775,0.253,1.215,0.253c0.352,0,0.625-0.065,0.821-0.194
		c0.196-0.129,0.293-0.307,0.293-0.534v-0.021c0-0.111-0.021-0.209-0.062-0.294c-0.041-0.084-0.118-0.164-0.231-0.237
		c-0.113-0.074-0.271-0.147-0.474-0.221s-0.466-0.152-0.789-0.234c-0.391-0.097-0.743-0.204-1.054-0.32
		c-0.312-0.117-0.577-0.261-0.796-0.433c-0.219-0.172-0.389-0.386-0.51-0.643c-0.121-0.256-0.182-0.576-0.182-0.959v-0.021
		c0-0.351,0.066-0.668,0.198-0.951c0.132-0.283,0.316-0.528,0.554-0.734c0.237-0.206,0.52-0.364,0.849-0.473
		c0.328-0.109,0.69-0.164,1.087-0.164c0.564,0,1.083,0.083,1.554,0.25c0.472,0.167,0.904,0.407,1.297,0.72l-0.875,1.278
		c-0.344-0.237-0.681-0.424-1.01-0.561s-0.659-0.205-0.988-0.205c-0.33,0-0.579,0.065-0.745,0.194c-0.167,0.129-0.25,0.29-0.25,0.48
		v0.021c0,0.126,0.024,0.235,0.073,0.327c0.048,0.091,0.135,0.174,0.261,0.248c0.125,0.074,0.297,0.144,0.514,0.21
		c0.217,0.066,0.491,0.145,0.821,0.234c0.391,0.104,0.737,0.22,1.038,0.348c0.301,0.127,0.556,0.281,0.764,0.462
		c0.208,0.181,0.365,0.392,0.47,0.634c0.105,0.242,0.158,0.531,0.158,0.868v0.021c0,0.38-0.07,0.718-0.209,1.016
		c-0.139,0.298-0.333,0.547-0.581,0.75c-0.248,0.202-0.543,0.356-0.886,0.462c-0.343,0.106-0.723,0.159-1.141,0.159
		c-0.586,0-1.161-0.1-1.725-0.299C80.09,131.959,79.577,131.652,79.115,131.236z"/>
	<path d="M86.682,132.35v-7.702h5.806v1.509h-4.136v1.558h3.642v1.509h-3.642v1.617h4.195v1.509H86.682z"/>
	<path d="M94.051,132.35v-7.702h3.521c0.975,0,1.724,0.261,2.247,0.783c0.44,0.44,0.661,1.024,0.661,1.753v0.027
		c0,0.622-0.153,1.128-0.458,1.52c-0.305,0.391-0.704,0.678-1.196,0.86l1.88,2.759h-1.982l-1.649-2.476h-0.021h-1.311v2.476H94.051z
		 M95.743,128.391h1.719c0.419,0,0.74-0.099,0.964-0.297c0.224-0.198,0.335-0.46,0.335-0.788v-0.021c0-0.363-0.117-0.637-0.352-0.82
		c-0.234-0.184-0.561-0.275-0.98-0.275h-1.687V128.391z"/>
	<path d="M102.076,132.35v-7.702h1.692v7.702H102.076z"/>
	<path d="M105.035,132.35l3.303-7.756h1.559l3.303,7.756h-1.772l-0.704-1.74h-3.254l-0.704,1.74H105.035z M108.07,129.127h2.046
		l-1.021-2.498L108.07,129.127z"/>
	<path d="M114.381,132.35v-7.702h1.691v6.161h3.841v1.542H114.381z"/>
	<path d="M124.484,132.35v-7.702h1.563l3.609,4.743v-4.743h1.67v7.702h-1.439l-3.732-4.893v4.893H124.484z"/>
	<path d="M133.051,129.052v-4.404h1.691v4.356c0,0.63,0.147,1.105,0.441,1.426c0.293,0.32,0.699,0.48,1.219,0.48
		s0.926-0.154,1.219-0.462c0.294-0.308,0.441-0.77,0.441-1.386v-4.415h1.691v4.345c0,0.587-0.078,1.098-0.236,1.531
		c-0.156,0.433-0.383,0.795-0.676,1.085s-0.648,0.507-1.066,0.65s-0.883,0.215-1.395,0.215c-1.035,0-1.849-0.287-2.441-0.859
		C133.348,131.041,133.051,130.187,133.051,129.052z"/>
	<path d="M141.483,132.35v-7.702h1.837l2.022,3.26l2.022-3.26h1.831v7.702h-1.692v-5.027l-2.161,3.287H145.3l-2.146-3.255v4.995
		H141.483z"/>
	<path d="M151.027,132.35v-7.702h3.58c0.89,0,1.56,0.227,2.012,0.681c0.351,0.35,0.528,0.786,0.531,1.308v0.021
		c0,0.218-0.027,0.412-0.083,0.582c-0.056,0.17-0.13,0.323-0.222,0.458s-0.198,0.255-0.32,0.356
		c-0.123,0.102-0.254,0.188-0.395,0.26c0.449,0.168,0.803,0.398,1.063,0.688c0.258,0.291,0.387,0.694,0.387,1.21v0.021
		c0,0.352-0.068,0.66-0.203,0.925c-0.137,0.266-0.332,0.486-0.584,0.662s-0.557,0.308-0.914,0.396
		c-0.356,0.088-0.752,0.132-1.186,0.132H151.027z M152.677,127.752h1.563c0.372,0,0.668-0.064,0.889-0.193
		c0.221-0.128,0.33-0.335,0.33-0.621v-0.021c0-0.257-0.095-0.453-0.285-0.586c-0.189-0.134-0.463-0.201-0.821-0.201h-1.676V127.752z
		 M152.677,130.867h2.015c0.372,0,0.664-0.068,0.877-0.204c0.214-0.136,0.32-0.347,0.32-0.634v-0.021
		c0-0.258-0.099-0.462-0.295-0.612c-0.197-0.15-0.516-0.226-0.957-0.226h-1.96V130.867z"/>
	<path d="M158.967,132.35v-7.702h5.806v1.509h-4.136v1.558h3.642v1.509h-3.642v1.617h4.195v1.509H158.967z"/>
	<path d="M166.336,132.35v-7.702h3.521c0.975,0,1.724,0.261,2.247,0.783c0.44,0.44,0.661,1.024,0.661,1.753v0.027
		c0,0.622-0.153,1.128-0.458,1.52c-0.305,0.391-0.704,0.678-1.196,0.86l1.88,2.759h-1.982l-1.648-2.476h-0.021h-1.311v2.476H166.336
		z M168.027,128.391h1.719c0.419,0,0.74-0.099,0.965-0.297c0.223-0.198,0.335-0.46,0.335-0.788v-0.021
		c0-0.363-0.117-0.637-0.353-0.82c-0.234-0.184-0.561-0.275-0.979-0.275h-1.687V128.391z"/>
	<path d="M174.097,128.214v-1.762h1.767v1.762H174.097z M174.097,132.35v-1.762h1.767v1.762H174.097z"/>
	<path d="M79.646,144.349v-7.701h5.865v1.541h-4.173v1.639h3.674v1.541h-3.674v2.98H79.646z"/>
	<path d="M86.199,144.349l3.303-7.756h1.558l3.303,7.756H92.59l-0.704-1.74h-3.255l-0.704,1.74H86.199z M89.233,141.126h2.046
		l-1.021-2.497L89.233,141.126z"/>
	<path d="M95.544,144.349v-7.701h3.58c0.889,0,1.559,0.227,2.011,0.681c0.351,0.351,0.529,0.786,0.532,1.308v0.021
		c0,0.219-0.028,0.412-0.083,0.582s-0.13,0.322-0.221,0.459c-0.092,0.135-0.199,0.254-0.321,0.355
		c-0.122,0.103-0.253,0.189-0.394,0.261c0.449,0.169,0.803,0.397,1.062,0.688c0.258,0.291,0.388,0.693,0.388,1.211v0.021
		c0,0.352-0.068,0.66-0.204,0.925c-0.136,0.266-0.331,0.485-0.583,0.661s-0.557,0.309-0.914,0.396
		c-0.357,0.088-0.752,0.131-1.186,0.131H95.544z M97.193,139.751h1.563c0.373,0,0.669-0.063,0.889-0.192
		c0.221-0.128,0.331-0.335,0.331-0.62v-0.021c0-0.258-0.095-0.453-0.285-0.587s-0.464-0.2-0.822-0.2h-1.676V139.751z
		 M97.193,142.867h2.014c0.373,0,0.665-0.067,0.878-0.203c0.213-0.137,0.32-0.348,0.32-0.635v-0.021
		c0-0.258-0.099-0.461-0.295-0.611s-0.516-0.227-0.956-0.227h-1.96V142.867z"/>
	<path d="M103.482,144.349v-7.701h3.521c0.975,0,1.724,0.261,2.247,0.782c0.44,0.44,0.661,1.024,0.661,1.753v0.027
		c0,0.621-0.152,1.129-0.458,1.52c-0.306,0.392-0.704,0.679-1.196,0.861l1.88,2.758h-1.981l-1.649-2.476h-0.021h-1.311v2.476
		H103.482z M105.175,140.391h1.719c0.419,0,0.74-0.099,0.964-0.297c0.225-0.198,0.336-0.46,0.336-0.788v-0.021
		c0-0.363-0.117-0.637-0.352-0.82s-0.562-0.275-0.98-0.275h-1.687V140.391z"/>
	<path d="M111.508,144.349v-7.701h1.691v7.701H111.508z"/>
	<path d="M114.789,140.52v-0.021c0-0.552,0.099-1.067,0.295-1.547c0.197-0.479,0.473-0.9,0.824-1.263
		c0.354-0.361,0.775-0.646,1.266-0.855c0.49-0.211,1.033-0.314,1.627-0.314c0.358,0,0.686,0.029,0.983,0.088
		s0.567,0.141,0.808,0.242c0.242,0.102,0.467,0.227,0.672,0.373c0.206,0.146,0.396,0.309,0.572,0.483l-1.074,1.241
		c-0.301-0.272-0.607-0.484-0.918-0.637c-0.313-0.152-0.663-0.229-1.053-0.229c-0.322,0-0.621,0.063-0.897,0.186
		s-0.513,0.295-0.709,0.516s-0.351,0.475-0.462,0.766c-0.111,0.289-0.166,0.6-0.166,0.929v0.021c0,0.329,0.055,0.642,0.166,0.935
		s0.264,0.551,0.457,0.771c0.193,0.219,0.428,0.395,0.703,0.523s0.578,0.193,0.908,0.193c0.439,0,0.813-0.081,1.117-0.242
		c0.304-0.161,0.606-0.381,0.907-0.66l1.079,1.09c-0.196,0.211-0.402,0.4-0.617,0.569s-0.449,0.313-0.701,0.435
		c-0.252,0.122-0.529,0.215-0.83,0.277s-0.637,0.094-1.01,0.094c-0.565,0-1.09-0.104-1.573-0.309
		c-0.483-0.206-0.901-0.487-1.255-0.844c-0.352-0.355-0.627-0.775-0.824-1.26C114.888,141.589,114.789,141.072,114.789,140.52z"/>
	<path d="M122.582,144.349l3.304-7.756h1.558l3.303,7.756h-1.771l-0.704-1.74h-3.255l-0.703,1.74H122.582z M125.617,141.126h2.047
		l-1.021-2.497L125.617,141.126z"/>
	<path d="M131.381,138.21v-1.563h6.375v1.563h-2.342v6.139h-1.691v-6.139H131.381z"/>
	<path d="M139.131,144.349v-7.701h1.691v7.701H139.131z"/>
	<path d="M142.412,140.52v-0.021c0-0.552,0.103-1.067,0.307-1.547s0.488-0.9,0.852-1.263c0.363-0.361,0.797-0.646,1.3-0.855
		c0.503-0.211,1.05-0.314,1.641-0.314c0.595,0,1.142,0.104,1.641,0.314c0.5,0.209,0.931,0.49,1.295,0.846
		c0.363,0.354,0.646,0.771,0.846,1.254c0.2,0.481,0.301,0.996,0.301,1.544v0.021c0,0.552-0.103,1.067-0.306,1.547
		c-0.205,0.479-0.488,0.901-0.852,1.265s-0.797,0.65-1.3,0.859s-1.052,0.314-1.646,0.314s-1.141-0.105-1.638-0.314
		c-0.498-0.209-0.929-0.492-1.292-0.848c-0.364-0.357-0.646-0.775-0.847-1.255C142.513,141.587,142.412,141.072,142.412,140.52z
		 M144.18,140.499c0,0.329,0.057,0.642,0.172,0.935s0.275,0.551,0.483,0.771c0.208,0.219,0.453,0.395,0.735,0.523
		c0.283,0.129,0.597,0.193,0.94,0.193c0.337,0,0.647-0.063,0.935-0.188s0.531-0.298,0.733-0.519s0.36-0.475,0.476-0.766
		c0.114-0.289,0.172-0.6,0.172-0.929v-0.021c0-0.329-0.058-0.642-0.172-0.935c-0.115-0.293-0.277-0.551-0.486-0.771
		c-0.21-0.219-0.457-0.393-0.741-0.52c-0.285-0.128-0.597-0.191-0.938-0.191c-0.344,0-0.657,0.063-0.94,0.186
		c-0.282,0.123-0.523,0.295-0.725,0.516s-0.357,0.475-0.473,0.766c-0.115,0.289-0.172,0.6-0.172,0.929V140.499z"/>
	<path d="M152.097,144.349v-7.701h1.563l3.609,4.742v-4.742h1.67v7.701H157.5l-3.732-4.893v4.893H152.097z"/>
	<path d="M160.594,140.214v-1.762h1.768v1.762H160.594z M160.594,144.349v-1.762h1.768v1.762H160.594z"/>
	<path d="M79.646,156.349v-7.701h5.806v1.509h-4.136v1.558h3.642v1.51h-3.642v1.616h4.195v1.509H79.646z"/>
	<path d="M86.43,156.349l2.686-3.915l-2.573-3.786h1.982l1.617,2.497l1.627-2.497h1.923l-2.573,3.765l2.686,3.937h-1.982
		l-1.729-2.643l-1.735,2.643H86.43z"/>
	<path d="M95.066,156.349v-7.701h3.147c0.462,0,0.875,0.064,1.238,0.193c0.363,0.129,0.671,0.311,0.924,0.545
		c0.252,0.234,0.446,0.515,0.583,0.84c0.136,0.326,0.204,0.688,0.204,1.086v0.021c0,0.447-0.081,0.84-0.242,1.176
		s-0.383,0.619-0.666,0.846c-0.283,0.228-0.613,0.398-0.991,0.514c-0.377,0.114-0.783,0.172-1.216,0.172h-1.289v2.309H95.066z
		 M96.758,152.531h1.343c0.426,0,0.756-0.111,0.991-0.334c0.235-0.223,0.352-0.498,0.352-0.826v-0.021
		c0-0.378-0.123-0.666-0.368-0.863c-0.246-0.197-0.581-0.297-1.007-0.297h-1.311V152.531z"/>
	<path d="M102.489,156.349v-7.701h1.692v7.701H102.489z"/>
	<path d="M106.109,156.349v-7.701h3.521c0.975,0,1.723,0.261,2.246,0.782c0.441,0.44,0.662,1.024,0.662,1.753v0.027
		c0,0.621-0.153,1.129-0.459,1.52c-0.305,0.392-0.703,0.679-1.195,0.861l1.879,2.758h-1.981l-1.649-2.476h-0.021h-1.311v2.476
		H106.109z M107.801,152.391h1.719c0.42,0,0.74-0.099,0.965-0.297c0.224-0.198,0.336-0.46,0.336-0.788v-0.021
		c0-0.363-0.117-0.637-0.353-0.82c-0.234-0.184-0.562-0.275-0.979-0.275h-1.688V152.391z"/>
	<path d="M113.398,156.349l3.303-7.756h1.558l3.304,7.756h-1.773l-0.703-1.74h-3.255l-0.704,1.74H113.398z M116.433,153.126h2.046
		l-1.02-2.497L116.433,153.126z"/>
	<path d="M122.195,150.21v-1.563h6.376v1.563h-2.342v6.139h-1.692v-6.139H122.195z"/>
	<path d="M129.946,156.349v-7.701h1.692v7.701H129.946z"/>
	<path d="M133.229,152.52v-0.021c0-0.552,0.102-1.067,0.306-1.547s0.487-0.9,0.852-1.263c0.363-0.361,0.796-0.646,1.3-0.855
		c0.503-0.211,1.05-0.314,1.641-0.314c0.594,0,1.142,0.104,1.641,0.314c0.5,0.209,0.932,0.49,1.295,0.846
		c0.363,0.354,0.645,0.771,0.846,1.254c0.201,0.481,0.301,0.996,0.301,1.544v0.021c0,0.552-0.102,1.067-0.307,1.547
		c-0.203,0.479-0.487,0.901-0.851,1.265c-0.364,0.363-0.797,0.65-1.3,0.859c-0.504,0.209-1.053,0.314-1.646,0.314
		s-1.141-0.105-1.639-0.314c-0.497-0.209-0.928-0.492-1.291-0.848c-0.363-0.357-0.646-0.775-0.846-1.255
		C133.328,153.587,133.229,153.072,133.229,152.52z M134.995,152.499c0,0.329,0.058,0.642,0.172,0.935s0.276,0.551,0.483,0.771
		c0.207,0.219,0.453,0.395,0.736,0.523c0.282,0.129,0.596,0.193,0.939,0.193c0.336,0,0.648-0.063,0.935-0.188
		s0.53-0.298,0.733-0.519c0.202-0.221,0.36-0.475,0.475-0.766c0.115-0.289,0.172-0.6,0.172-0.929v-0.021
		c0-0.329-0.057-0.642-0.172-0.935c-0.114-0.293-0.276-0.551-0.485-0.771c-0.21-0.219-0.457-0.393-0.741-0.52
		c-0.285-0.128-0.598-0.191-0.938-0.191c-0.344,0-0.657,0.063-0.939,0.186c-0.283,0.123-0.525,0.295-0.726,0.516
		s-0.358,0.475-0.473,0.766c-0.114,0.289-0.172,0.6-0.172,0.929V152.499z"/>
	<path d="M142.912,156.349v-7.701h1.563l3.609,4.742v-4.742h1.671v7.701h-1.439l-3.733-4.893v4.893H142.912z"/>
	<path d="M154.895,156.349v-7.701h3c0.602,0,1.154,0.098,1.656,0.293c0.503,0.194,0.936,0.464,1.297,0.808s0.641,0.749,0.84,1.216
		c0.197,0.469,0.297,0.973,0.297,1.513v0.021c0,0.544-0.1,1.051-0.297,1.521c-0.199,0.469-0.479,0.875-0.84,1.219
		s-0.794,0.615-1.297,0.814c-0.502,0.197-1.055,0.297-1.656,0.297H154.895z M156.587,154.808h1.311c0.344,0,0.659-0.055,0.945-0.163
		s0.53-0.266,0.733-0.47c0.202-0.205,0.359-0.446,0.473-0.723c0.113-0.275,0.169-0.587,0.169-0.933v-0.021
		c0-0.335-0.056-0.646-0.169-0.931s-0.271-0.529-0.473-0.732c-0.203-0.203-0.447-0.361-0.733-0.476s-0.602-0.171-0.945-0.171h-1.311
		V154.808z"/>
	<path d="M162.834,156.349l3.303-7.756h1.558l3.304,7.756h-1.773l-0.703-1.74h-3.255l-0.704,1.74H162.834z M165.868,153.126h2.046
		l-1.02-2.497L165.868,153.126z"/>
	<path d="M171.631,150.21v-1.563h6.376v1.563h-2.342v6.139h-1.692v-6.139H171.631z"/>
	<path d="M179.307,156.349v-7.701h5.807v1.509h-4.137v1.558h3.643v1.51h-3.643v1.616h4.195v1.509H179.307z"/>
	<path d="M186.488,152.214v-1.762h1.767v1.762H186.488z M186.488,156.349v-1.762h1.767v1.762H186.488z"/>
	<path d="M79.646,168.349v-7.701h3.58c0.889,0,1.559,0.227,2.011,0.681c0.351,0.351,0.529,0.786,0.532,1.308v0.021
		c0,0.219-0.028,0.412-0.083,0.582s-0.13,0.322-0.221,0.459c-0.092,0.135-0.199,0.254-0.321,0.355
		c-0.122,0.103-0.253,0.189-0.394,0.261c0.449,0.169,0.803,0.397,1.062,0.688c0.258,0.291,0.388,0.693,0.388,1.211v0.021
		c0,0.352-0.068,0.66-0.204,0.925c-0.136,0.266-0.331,0.485-0.583,0.661s-0.557,0.309-0.914,0.396
		c-0.357,0.088-0.752,0.131-1.186,0.131H79.646z M81.295,163.751h1.563c0.373,0,0.669-0.063,0.889-0.192
		c0.221-0.128,0.331-0.335,0.331-0.62v-0.021c0-0.258-0.095-0.453-0.285-0.587s-0.464-0.2-0.822-0.2h-1.676V163.751z
		 M81.295,166.867h2.014c0.373,0,0.665-0.067,0.878-0.203c0.213-0.137,0.32-0.348,0.32-0.635v-0.021
		c0-0.258-0.099-0.461-0.295-0.611s-0.516-0.227-0.956-0.227h-1.96V166.867z"/>
	<path d="M86.924,168.349l3.303-7.756h1.558l3.303,7.756h-1.772l-0.704-1.74h-3.255l-0.704,1.74H86.924z M89.958,165.126h2.046
		l-1.021-2.497L89.958,165.126z"/>
	<path d="M95.722,162.21v-1.563h6.375v1.563h-2.342v6.139h-1.692v-6.139H95.722z"/>
	<path d="M103.059,164.52v-0.021c0-0.552,0.099-1.067,0.295-1.547c0.197-0.479,0.473-0.9,0.824-1.263
		c0.354-0.361,0.775-0.646,1.266-0.855c0.49-0.211,1.033-0.314,1.627-0.314c0.358,0,0.686,0.029,0.983,0.088
		s0.567,0.141,0.808,0.242c0.242,0.102,0.467,0.227,0.672,0.373c0.206,0.146,0.396,0.309,0.572,0.483l-1.074,1.241
		c-0.301-0.272-0.607-0.484-0.918-0.637c-0.313-0.152-0.663-0.229-1.053-0.229c-0.322,0-0.621,0.063-0.897,0.186
		s-0.513,0.295-0.709,0.516s-0.351,0.475-0.462,0.766c-0.111,0.289-0.166,0.6-0.166,0.929v0.021c0,0.329,0.055,0.642,0.166,0.935
		s0.264,0.551,0.457,0.771c0.193,0.219,0.428,0.395,0.703,0.523s0.578,0.193,0.908,0.193c0.439,0,0.813-0.081,1.117-0.242
		c0.304-0.161,0.606-0.381,0.907-0.66l1.079,1.09c-0.196,0.211-0.402,0.4-0.617,0.569s-0.449,0.313-0.701,0.435
		c-0.252,0.122-0.529,0.215-0.83,0.277s-0.637,0.094-1.01,0.094c-0.565,0-1.09-0.104-1.573-0.309
		c-0.483-0.206-0.901-0.487-1.255-0.844c-0.352-0.355-0.627-0.775-0.824-1.26C103.157,165.589,103.059,165.072,103.059,164.52z"/>
	<path d="M111.513,168.349v-7.701h1.692v3.051h3.125v-3.051h1.692v7.701h-1.692v-3.088h-3.125v3.088H111.513z"/>
	<path d="M122.83,164.52v-0.021c0-0.552,0.098-1.067,0.295-1.547s0.472-0.9,0.824-1.263c0.354-0.361,0.774-0.646,1.266-0.855
		c0.49-0.211,1.033-0.314,1.627-0.314c0.357,0,0.686,0.029,0.982,0.088c0.298,0.059,0.567,0.141,0.809,0.242
		c0.242,0.102,0.466,0.227,0.672,0.373c0.205,0.146,0.396,0.309,0.572,0.483l-1.074,1.241c-0.301-0.272-0.607-0.484-0.919-0.637
		s-0.663-0.229-1.053-0.229c-0.322,0-0.621,0.063-0.897,0.186c-0.275,0.123-0.512,0.295-0.709,0.516
		c-0.196,0.221-0.351,0.475-0.461,0.766c-0.111,0.289-0.167,0.6-0.167,0.929v0.021c0,0.329,0.056,0.642,0.167,0.935
		c0.11,0.293,0.263,0.551,0.456,0.771c0.193,0.219,0.428,0.395,0.704,0.523c0.275,0.129,0.578,0.193,0.907,0.193
		c0.44,0,0.813-0.081,1.117-0.242s0.606-0.381,0.907-0.66l1.08,1.09c-0.197,0.211-0.402,0.4-0.617,0.569s-0.449,0.313-0.701,0.435
		c-0.253,0.122-0.529,0.215-0.83,0.277s-0.637,0.094-1.01,0.094c-0.566,0-1.09-0.104-1.574-0.309
		c-0.482-0.206-0.9-0.487-1.254-0.844c-0.353-0.355-0.627-0.775-0.824-1.26C122.928,165.589,122.83,165.072,122.83,164.52z"/>
	<path d="M130.945,164.52v-0.021c0-0.552,0.102-1.067,0.307-1.547c0.203-0.479,0.487-0.9,0.852-1.263
		c0.363-0.361,0.796-0.646,1.299-0.855c0.504-0.211,1.051-0.314,1.641-0.314c0.595,0,1.143,0.104,1.641,0.314
		c0.5,0.209,0.932,0.49,1.295,0.846c0.363,0.354,0.646,0.771,0.846,1.254c0.201,0.481,0.301,0.996,0.301,1.544v0.021
		c0,0.552-0.102,1.067-0.306,1.547s-0.487,0.901-0.851,1.265c-0.364,0.363-0.797,0.65-1.301,0.859
		c-0.503,0.209-1.052,0.314-1.646,0.314c-0.594,0-1.141-0.105-1.638-0.314s-0.929-0.492-1.292-0.848
		c-0.363-0.357-0.645-0.775-0.846-1.255S130.945,165.072,130.945,164.52z M132.713,164.499c0,0.329,0.057,0.642,0.172,0.935
		c0.114,0.293,0.275,0.551,0.482,0.771c0.208,0.219,0.453,0.395,0.736,0.523s0.596,0.193,0.939,0.193
		c0.337,0,0.648-0.063,0.936-0.188c0.286-0.126,0.53-0.298,0.732-0.519c0.203-0.221,0.361-0.475,0.476-0.766
		c0.114-0.289,0.172-0.6,0.172-0.929v-0.021c0-0.329-0.058-0.642-0.172-0.935s-0.276-0.551-0.485-0.771
		c-0.211-0.219-0.457-0.393-0.742-0.52c-0.285-0.128-0.597-0.191-0.938-0.191c-0.344,0-0.656,0.063-0.939,0.186
		s-0.524,0.295-0.725,0.516c-0.201,0.221-0.358,0.475-0.473,0.766c-0.115,0.289-0.172,0.6-0.172,0.929V164.499z"/>
	<path d="M140.629,168.349v-7.701h3c0.602,0,1.154,0.098,1.656,0.293c0.503,0.194,0.936,0.464,1.297,0.808s0.641,0.749,0.84,1.216
		c0.197,0.469,0.297,0.973,0.297,1.513v0.021c0,0.544-0.1,1.051-0.297,1.521c-0.199,0.469-0.479,0.875-0.84,1.219
		s-0.794,0.615-1.297,0.814c-0.502,0.197-1.055,0.297-1.656,0.297H140.629z M142.321,166.808h1.311c0.344,0,0.659-0.055,0.945-0.163
		s0.53-0.266,0.733-0.47c0.202-0.205,0.359-0.446,0.473-0.723c0.113-0.275,0.169-0.587,0.169-0.933v-0.021
		c0-0.335-0.056-0.646-0.169-0.931s-0.271-0.529-0.473-0.732c-0.203-0.203-0.447-0.361-0.733-0.476s-0.602-0.171-0.945-0.171h-1.311
		V166.808z"/>
	<path d="M149.229,168.349v-7.701h5.807v1.509h-4.137v1.558h3.643v1.51h-3.643v1.616h4.195v1.509H149.229z"/>
	<path d="M156.41,164.214v-1.762h1.767v1.762H156.41z M156.41,168.349v-1.762h1.767v1.762H156.41z"/>
</g>
<g>
	<path fill="#FFFFFF" d="M269.348,162.677l1.025-1.221c0.772,0.697,1.551,1.219,2.333,1.563c0.783,0.346,1.684,0.52,2.702,0.52
		c0.991,0,1.786-0.234,2.384-0.703c0.599-0.469,0.897-1.068,0.897-1.799v-0.041c0-0.336-0.057-0.641-0.169-0.914
		c-0.113-0.273-0.31-0.521-0.59-0.742c-0.28-0.223-0.668-0.426-1.164-0.611c-0.495-0.184-1.13-0.357-1.901-0.521
		c-0.842-0.186-1.573-0.396-2.195-0.631c-0.622-0.236-1.136-0.523-1.543-0.861c-0.406-0.34-0.707-0.732-0.902-1.18
		c-0.194-0.447-0.292-0.973-0.292-1.574v-0.041c0-0.574,0.119-1.105,0.358-1.594c0.239-0.49,0.574-0.914,1.006-1.271
		c0.43-0.359,0.941-0.641,1.532-0.842c0.592-0.201,1.235-0.303,1.933-0.303c1.077,0,2.017,0.15,2.817,0.451s1.579,0.752,2.336,1.354
		l-0.952,1.283c-0.684-0.561-1.373-0.969-2.069-1.221c-0.697-0.254-1.421-0.379-2.173-0.379c-0.963,0-1.726,0.227-2.286,0.682
		c-0.561,0.453-0.841,1.02-0.841,1.697v0.041c0,0.348,0.055,0.658,0.164,0.932s0.311,0.527,0.605,0.76
		c0.293,0.232,0.7,0.441,1.22,0.631c0.52,0.188,1.186,0.363,1.999,0.527c1.641,0.363,2.846,0.867,3.615,1.512
		c0.769,0.646,1.153,1.531,1.153,2.652v0.041c0,0.629-0.126,1.199-0.378,1.711c-0.252,0.514-0.598,0.951-1.036,1.313
		c-0.439,0.363-0.967,0.641-1.583,0.836s-1.285,0.293-2.007,0.293c-1.176,0-2.249-0.191-3.22-0.574S270.23,163.476,269.348,162.677z
		"/>
	<path fill="#FFFFFF" d="M282.524,155.386v-1.426h1.508v-3.271h1.619v3.271h3.445v1.426h-3.445v6.33c0,0.67,0.168,1.137,0.503,1.402
		s0.775,0.398,1.323,0.398c0.279,0,0.543-0.027,0.789-0.082s0.509-0.152,0.789-0.297v1.398c-0.28,0.158-0.579,0.277-0.896,0.354
		c-0.318,0.076-0.672,0.113-1.062,0.113c-0.431,0-0.836-0.055-1.215-0.164c-0.38-0.109-0.706-0.287-0.979-0.533
		s-0.487-0.564-0.641-0.959c-0.154-0.393-0.23-0.861-0.23-1.408v-6.553H282.524z"/>
	<path fill="#FFFFFF" d="M291.281,159.447v-0.041c0-0.773,0.14-1.502,0.42-2.189c0.281-0.688,0.673-1.289,1.176-1.805
		s1.102-0.924,1.796-1.225s1.455-0.451,2.283-0.451c0.814,0,1.567,0.15,2.258,0.451c0.691,0.301,1.29,0.705,1.797,1.215
		c0.506,0.508,0.897,1.104,1.175,1.783s0.416,1.406,0.416,2.18v0.041c0,0.771-0.145,1.5-0.432,2.184s-0.683,1.285-1.186,1.805
		s-1.104,0.93-1.806,1.23c-0.702,0.301-1.459,0.451-2.273,0.451s-1.563-0.15-2.248-0.451s-1.277-0.707-1.78-1.221
		c-0.503-0.512-0.895-1.109-1.176-1.789C291.421,160.935,291.281,160.212,291.281,159.447z M292.941,159.39
		c0,0.586,0.103,1.133,0.308,1.639c0.205,0.508,0.484,0.951,0.84,1.328c0.355,0.379,0.778,0.678,1.27,0.9
		c0.492,0.221,1.024,0.332,1.598,0.332c0.587,0,1.125-0.111,1.613-0.332c0.488-0.223,0.906-0.521,1.254-0.9
		c0.349-0.377,0.622-0.816,0.819-1.316c0.198-0.502,0.297-1.037,0.297-1.609v-0.041c0-0.586-0.102-1.135-0.307-1.645
		c-0.205-0.512-0.488-0.959-0.851-1.344c-0.361-0.385-0.788-0.688-1.279-0.91c-0.492-0.221-1.024-0.332-1.598-0.332
		c-0.588,0-1.125,0.111-1.613,0.332c-0.488,0.223-0.903,0.521-1.244,0.9c-0.342,0.377-0.611,0.822-0.809,1.332
		c-0.198,0.512-0.298,1.053-0.298,1.625V159.39z"/>
	<path fill="#FFFFFF" d="M305.514,164.82V153.96h1.62v2.84c0.198-0.451,0.444-0.863,0.738-1.24c0.294-0.375,0.629-0.701,1.005-0.975
		c0.369-0.273,0.779-0.479,1.23-0.615c0.41-0.129,0.852-0.193,1.322-0.193c0.048,0,0.093,0,0.134,0v1.742h-0.123
		c-0.588,0-1.146,0.104-1.671,0.313c-0.527,0.209-0.986,0.523-1.38,0.943c-0.393,0.42-0.7,0.941-0.923,1.564
		c-0.222,0.621-0.333,1.34-0.333,2.152v4.328H305.514z"/>
	<path fill="#FFFFFF" d="M313.193,161.662v-0.041c0-0.59,0.112-1.105,0.337-1.549c0.226-0.441,0.544-0.811,0.956-1.105
		s0.9-0.52,1.466-0.674c0.565-0.152,1.189-0.23,1.87-0.23c0.699,0,1.305,0.041,1.818,0.123s1.014,0.195,1.5,0.338v-0.334
		c0-0.951-0.279-1.674-0.838-2.166c-0.558-0.494-1.351-0.74-2.377-0.74c-0.644,0-1.229,0.07-1.755,0.207
		c-0.527,0.139-1.04,0.326-1.54,0.561l-0.485-1.328c0.601-0.281,1.21-0.506,1.828-0.674s1.323-0.252,2.116-0.252
		c1.546,0,2.726,0.4,3.536,1.199c0.763,0.76,1.141,1.822,1.134,3.189v6.635h-1.619v-1.621c-0.377,0.492-0.884,0.926-1.521,1.297
		c-0.637,0.373-1.431,0.561-2.383,0.561c-0.504,0-1.001-0.072-1.491-0.211c-0.49-0.141-0.922-0.355-1.297-0.645
		c-0.374-0.287-0.678-0.643-0.908-1.063C313.309,162.716,313.193,162.224,313.193,161.662z M314.813,161.589
		c0,0.336,0.073,0.639,0.221,0.912s0.348,0.502,0.601,0.682c0.254,0.182,0.545,0.322,0.873,0.422
		c0.329,0.098,0.675,0.148,1.038,0.148c0.506,0,0.977-0.07,1.412-0.211c0.435-0.141,0.816-0.34,1.145-0.6
		c0.329-0.26,0.587-0.568,0.775-0.928s0.282-0.754,0.282-1.184v-1.006c-0.403-0.109-0.864-0.213-1.381-0.313
		s-1.114-0.148-1.792-0.148c-1.007,0-1.787,0.197-2.342,0.594s-0.832,0.928-0.832,1.59V161.589z"/>
	<path fill="#FFFFFF" d="M325.539,158.892v-0.041c0-0.799,0.144-1.514,0.431-2.143s0.669-1.164,1.145-1.605
		c0.476-0.439,1.021-0.779,1.638-1.014c0.615-0.236,1.245-0.354,1.889-0.354c0.505,0,0.971,0.057,1.397,0.174
		c0.427,0.115,0.811,0.273,1.152,0.471c0.341,0.199,0.651,0.432,0.932,0.697c0.28,0.268,0.532,0.547,0.758,0.842v-1.959h1.62v8.973
		c0,0.84-0.119,1.578-0.358,2.215c-0.239,0.635-0.581,1.176-1.024,1.619c-0.492,0.492-1.088,0.857-1.788,1.098
		c-0.7,0.238-1.483,0.359-2.351,0.359c-0.91,0-1.778-0.125-2.605-0.375c-0.828-0.25-1.604-0.625-2.329-1.123l0.743-1.271
		c0.628,0.455,1.284,0.803,1.968,1.043c0.683,0.242,1.417,0.363,2.203,0.363c1.201,0,2.159-0.328,2.872-0.984
		c0.714-0.656,1.07-1.621,1.07-2.898v-1.285c-0.478,0.629-1.059,1.166-1.741,1.613c-0.683,0.449-1.522,0.672-2.519,0.672
		c-0.657,0-1.29-0.119-1.899-0.357c-0.609-0.24-1.151-0.58-1.627-1.021s-0.857-0.973-1.145-1.594
		C325.683,160.382,325.539,159.679,325.539,158.892z M327.199,158.851c0,0.547,0.103,1.049,0.308,1.502
		c0.205,0.455,0.478,0.846,0.819,1.17c0.341,0.324,0.739,0.578,1.192,0.758c0.454,0.182,0.934,0.273,1.439,0.273
		c0.519,0,1.016-0.088,1.49-0.262c0.474-0.176,0.897-0.428,1.27-0.76s0.669-0.721,0.891-1.168c0.222-0.449,0.333-0.945,0.333-1.492
		v-0.041c0-0.561-0.111-1.064-0.333-1.514c-0.222-0.447-0.519-0.832-0.891-1.152c-0.372-0.322-0.796-0.57-1.27-0.744
		c-0.475-0.174-0.972-0.262-1.49-0.262s-1.006,0.088-1.459,0.262c-0.454,0.174-0.853,0.42-1.193,0.734
		c-0.342,0.314-0.611,0.695-0.809,1.143c-0.198,0.447-0.298,0.951-0.298,1.512V158.851z"/>
	<path fill="#FFFFFF" d="M339.434,159.406c0-0.787,0.128-1.527,0.384-2.221c0.257-0.693,0.617-1.295,1.082-1.805
		s1.015-0.91,1.651-1.205c0.635-0.293,1.329-0.439,2.081-0.439c0.8,0,1.516,0.15,2.148,0.451c0.632,0.301,1.165,0.709,1.6,1.225
		c0.434,0.516,0.762,1.125,0.984,1.824c0.222,0.701,0.333,1.451,0.333,2.252c0,0.068,0,0.148,0,0.24s-0.007,0.201-0.021,0.324
		h-8.624c0.055,0.572,0.195,1.082,0.421,1.527c0.226,0.447,0.513,0.824,0.861,1.131s0.74,0.539,1.174,0.699
		c0.435,0.16,0.891,0.24,1.369,0.24c0.759,0,1.406-0.139,1.943-0.418c0.536-0.279,1.03-0.648,1.481-1.105l1.005,0.9
		c-0.547,0.617-1.169,1.113-1.866,1.488c-0.697,0.373-1.565,0.561-2.604,0.561c-0.745,0-1.446-0.137-2.103-0.41
		s-1.228-0.66-1.715-1.158c-0.487-0.5-0.873-1.1-1.158-1.801C339.576,161.007,339.434,160.24,339.434,159.406z M341.053,158.75
		h6.994c-0.041-0.492-0.146-0.959-0.313-1.4c-0.167-0.441-0.395-0.828-0.682-1.164c-0.287-0.334-0.638-0.6-1.051-0.795
		c-0.414-0.193-0.888-0.291-1.421-0.291c-0.465,0-0.898,0.09-1.302,0.271s-0.759,0.436-1.066,0.764s-0.563,0.717-0.764,1.164
		C341.246,157.746,341.115,158.23,341.053,158.75z"/>
	<path fill="#FFFFFF" d="M358.198,158.892v-0.041c0-0.799,0.144-1.514,0.431-2.143s0.669-1.164,1.145-1.605
		c0.476-0.439,1.021-0.779,1.638-1.014c0.615-0.236,1.245-0.354,1.889-0.354c0.505,0,0.971,0.057,1.397,0.174
		c0.427,0.115,0.811,0.273,1.152,0.471c0.341,0.199,0.651,0.432,0.932,0.697c0.28,0.268,0.532,0.547,0.758,0.842v-1.959h1.62v8.973
		c0,0.84-0.119,1.578-0.358,2.215c-0.239,0.635-0.581,1.176-1.024,1.619c-0.492,0.492-1.088,0.857-1.788,1.098
		c-0.7,0.238-1.483,0.359-2.351,0.359c-0.91,0-1.778-0.125-2.605-0.375c-0.828-0.25-1.604-0.625-2.329-1.123l0.743-1.271
		c0.628,0.455,1.284,0.803,1.968,1.043c0.683,0.242,1.417,0.363,2.203,0.363c1.201,0,2.159-0.328,2.872-0.984
		c0.714-0.656,1.07-1.621,1.07-2.898v-1.285c-0.478,0.629-1.059,1.166-1.741,1.613c-0.683,0.449-1.522,0.672-2.519,0.672
		c-0.657,0-1.29-0.119-1.899-0.357c-0.609-0.24-1.151-0.58-1.627-1.021s-0.857-0.973-1.145-1.594
		C358.342,160.382,358.198,159.679,358.198,158.892z M359.858,158.851c0,0.547,0.103,1.049,0.308,1.502
		c0.205,0.455,0.478,0.846,0.819,1.17c0.341,0.324,0.739,0.578,1.192,0.758c0.454,0.182,0.934,0.273,1.439,0.273
		c0.519,0,1.016-0.088,1.49-0.262c0.474-0.176,0.897-0.428,1.27-0.76s0.669-0.721,0.891-1.168c0.222-0.449,0.333-0.945,0.333-1.492
		v-0.041c0-0.561-0.111-1.064-0.333-1.514c-0.222-0.447-0.519-0.832-0.891-1.152c-0.372-0.322-0.796-0.57-1.27-0.744
		c-0.475-0.174-0.972-0.262-1.49-0.262s-1.006,0.088-1.459,0.262c-0.454,0.174-0.853,0.42-1.193,0.734
		c-0.342,0.314-0.611,0.695-0.809,1.143c-0.198,0.447-0.298,0.951-0.298,1.512V158.851z"/>
	<path fill="#FFFFFF" d="M372.594,160.708v-6.748h1.62v6.34c0,1.004,0.259,1.801,0.778,2.387c0.519,0.588,1.259,0.881,2.221,0.881
		c0.465,0,0.896-0.08,1.296-0.24c0.398-0.16,0.741-0.391,1.028-0.691c0.286-0.301,0.514-0.66,0.681-1.08s0.251-0.883,0.251-1.389
		v-6.207h1.62v10.859h-1.62v-1.896c-0.361,0.59-0.838,1.094-1.428,1.508c-0.591,0.416-1.354,0.625-2.288,0.625
		c-0.657,0-1.243-0.107-1.756-0.318c-0.514-0.213-0.948-0.512-1.305-0.898c-0.355-0.385-0.628-0.844-0.816-1.373
		S372.594,161.351,372.594,160.708z"/>
	<path fill="#FFFFFF" d="M384.867,161.662v-0.041c0-0.59,0.112-1.105,0.337-1.549c0.226-0.441,0.544-0.811,0.956-1.105
		s0.9-0.52,1.466-0.674c0.565-0.152,1.189-0.23,1.87-0.23c0.699,0,1.305,0.041,1.818,0.123s1.014,0.195,1.5,0.338v-0.334
		c0-0.951-0.279-1.674-0.838-2.166c-0.558-0.494-1.351-0.74-2.377-0.74c-0.644,0-1.229,0.07-1.755,0.207
		c-0.527,0.139-1.04,0.326-1.54,0.561l-0.485-1.328c0.601-0.281,1.21-0.506,1.828-0.674s1.323-0.252,2.116-0.252
		c1.546,0,2.726,0.4,3.536,1.199c0.763,0.76,1.141,1.822,1.134,3.189v6.635h-1.619v-1.621c-0.377,0.492-0.884,0.926-1.521,1.297
		c-0.637,0.373-1.431,0.561-2.383,0.561c-0.504,0-1.001-0.072-1.491-0.211c-0.49-0.141-0.922-0.355-1.297-0.645
		c-0.374-0.287-0.678-0.643-0.908-1.063C384.982,162.716,384.867,162.224,384.867,161.662z M386.487,161.589
		c0,0.336,0.073,0.639,0.221,0.912s0.348,0.502,0.601,0.682c0.254,0.182,0.545,0.322,0.873,0.422
		c0.329,0.098,0.675,0.148,1.038,0.148c0.506,0,0.977-0.07,1.412-0.211c0.435-0.141,0.816-0.34,1.145-0.6
		c0.329-0.26,0.587-0.568,0.775-0.928s0.282-0.754,0.282-1.184v-1.006c-0.403-0.109-0.864-0.213-1.381-0.313
		s-1.114-0.148-1.792-0.148c-1.007,0-1.787,0.197-2.342,0.594s-0.832,0.928-0.832,1.59V161.589z"/>
	<path fill="#FFFFFF" d="M397.838,164.82V153.96h1.62v2.84c0.198-0.451,0.444-0.863,0.738-1.24c0.294-0.375,0.629-0.701,1.005-0.975
		c0.369-0.273,0.779-0.479,1.23-0.615c0.41-0.129,0.852-0.193,1.322-0.193c0.048,0,0.093,0,0.134,0v1.742h-0.123
		c-0.588,0-1.146,0.104-1.671,0.313c-0.527,0.209-0.986,0.523-1.38,0.943c-0.393,0.42-0.7,0.941-0.923,1.564
		c-0.222,0.621-0.333,1.34-0.333,2.152v4.328H397.838z"/>
	<path fill="#FFFFFF" d="M405.518,161.662v-0.041c0-0.59,0.112-1.105,0.337-1.549c0.226-0.441,0.544-0.811,0.956-1.105
		s0.9-0.52,1.466-0.674c0.565-0.152,1.189-0.23,1.87-0.23c0.699,0,1.305,0.041,1.818,0.123s1.014,0.195,1.5,0.338v-0.334
		c0-0.951-0.279-1.674-0.838-2.166c-0.558-0.494-1.351-0.74-2.377-0.74c-0.644,0-1.229,0.07-1.755,0.207
		c-0.527,0.139-1.04,0.326-1.54,0.561l-0.485-1.328c0.601-0.281,1.21-0.506,1.828-0.674s1.323-0.252,2.116-0.252
		c1.546,0,2.726,0.4,3.536,1.199c0.763,0.76,1.141,1.822,1.134,3.189v6.635h-1.619v-1.621c-0.377,0.492-0.884,0.926-1.521,1.297
		c-0.637,0.373-1.431,0.561-2.383,0.561c-0.504,0-1.001-0.072-1.491-0.211c-0.49-0.141-0.922-0.355-1.297-0.645
		c-0.374-0.287-0.678-0.643-0.908-1.063C405.633,162.716,405.518,162.224,405.518,161.662z M407.138,161.589
		c0,0.336,0.073,0.639,0.221,0.912s0.348,0.502,0.601,0.682c0.254,0.182,0.545,0.322,0.873,0.422
		c0.329,0.098,0.675,0.148,1.038,0.148c0.506,0,0.977-0.07,1.412-0.211c0.435-0.141,0.816-0.34,1.145-0.6
		c0.329-0.26,0.587-0.568,0.775-0.928s0.282-0.754,0.282-1.184v-1.006c-0.403-0.109-0.864-0.213-1.381-0.313
		s-1.114-0.148-1.792-0.148c-1.007,0-1.787,0.197-2.342,0.594s-0.832,0.928-0.832,1.59V161.589z"/>
	<path fill="#FFFFFF" d="M418.488,164.82V153.96h1.62v1.916c0.362-0.594,0.837-1.098,1.425-1.516s1.351-0.625,2.287-0.625
		c0.656,0,1.24,0.104,1.754,0.313c0.512,0.207,0.948,0.506,1.307,0.891c0.359,0.387,0.633,0.846,0.82,1.375
		c0.188,0.529,0.282,1.119,0.282,1.77v6.736h-1.62v-6.324c0-1.002-0.258-1.799-0.774-2.389c-0.516-0.59-1.26-0.885-2.229-0.885
		c-0.466,0-0.896,0.08-1.293,0.24s-0.741,0.391-1.035,0.691c-0.294,0.299-0.521,0.658-0.682,1.078
		c-0.161,0.42-0.241,0.883-0.241,1.387v6.201H418.488z"/>
	<path fill="#FFFFFF" d="M430.475,155.386v-1.426h1.508v-3.271h1.619v3.271h3.445v1.426h-3.445v6.33c0,0.67,0.168,1.137,0.503,1.402
		s0.775,0.398,1.323,0.398c0.279,0,0.543-0.027,0.789-0.082s0.509-0.152,0.789-0.297v1.398c-0.28,0.158-0.579,0.277-0.896,0.354
		c-0.318,0.076-0.672,0.113-1.062,0.113c-0.431,0-0.836-0.055-1.215-0.164c-0.38-0.109-0.706-0.287-0.979-0.533
		s-0.487-0.564-0.641-0.959c-0.154-0.393-0.23-0.861-0.23-1.408v-6.553H430.475z"/>
	<path fill="#FFFFFF" d="M439.232,159.406c0-0.787,0.128-1.527,0.384-2.221c0.257-0.693,0.617-1.295,1.082-1.805
		s1.015-0.91,1.651-1.205c0.635-0.293,1.329-0.439,2.081-0.439c0.8,0,1.516,0.15,2.148,0.451c0.632,0.301,1.165,0.709,1.6,1.225
		c0.434,0.516,0.762,1.125,0.984,1.824c0.222,0.701,0.333,1.451,0.333,2.252c0,0.068,0,0.148,0,0.24s-0.007,0.201-0.021,0.324
		h-8.624c0.055,0.572,0.195,1.082,0.421,1.527c0.226,0.447,0.513,0.824,0.861,1.131s0.74,0.539,1.174,0.699
		c0.435,0.16,0.891,0.24,1.369,0.24c0.759,0,1.406-0.139,1.943-0.418c0.536-0.279,1.03-0.648,1.481-1.105l1.005,0.9
		c-0.547,0.617-1.169,1.113-1.866,1.488c-0.697,0.373-1.565,0.561-2.604,0.561c-0.745,0-1.446-0.137-2.103-0.41
		s-1.228-0.66-1.715-1.158c-0.487-0.5-0.873-1.1-1.158-1.801C439.375,161.007,439.232,160.24,439.232,159.406z M440.852,158.75
		h6.994c-0.041-0.492-0.146-0.959-0.313-1.4c-0.167-0.441-0.395-0.828-0.682-1.164c-0.287-0.334-0.638-0.6-1.051-0.795
		c-0.414-0.193-0.888-0.291-1.421-0.291c-0.465,0-0.898,0.09-1.302,0.271s-0.759,0.436-1.066,0.764s-0.563,0.717-0.764,1.164
		C441.045,157.746,440.914,158.23,440.852,158.75z"/>
	<path fill="#FFFFFF" d="M451.66,159.406c0-0.787,0.128-1.527,0.384-2.221c0.257-0.693,0.617-1.295,1.082-1.805
		s1.015-0.91,1.651-1.205c0.635-0.293,1.329-0.439,2.081-0.439c0.8,0,1.516,0.15,2.148,0.451c0.632,0.301,1.165,0.709,1.6,1.225
		c0.434,0.516,0.762,1.125,0.984,1.824c0.222,0.701,0.333,1.451,0.333,2.252c0,0.068,0,0.148,0,0.24s-0.007,0.201-0.021,0.324
		h-8.624c0.055,0.572,0.195,1.082,0.421,1.527c0.226,0.447,0.513,0.824,0.861,1.131s0.74,0.539,1.174,0.699
		c0.435,0.16,0.891,0.24,1.369,0.24c0.759,0,1.406-0.139,1.943-0.418c0.536-0.279,1.03-0.648,1.481-1.105l1.005,0.9
		c-0.547,0.617-1.169,1.113-1.866,1.488c-0.697,0.373-1.565,0.561-2.604,0.561c-0.745,0-1.446-0.137-2.103-0.41
		s-1.228-0.66-1.715-1.158c-0.487-0.5-0.873-1.1-1.158-1.801C451.803,161.007,451.66,160.24,451.66,159.406z M453.279,158.75h6.994
		c-0.041-0.492-0.146-0.959-0.313-1.4c-0.167-0.441-0.395-0.828-0.682-1.164c-0.287-0.334-0.638-0.6-1.051-0.795
		c-0.414-0.193-0.888-0.291-1.421-0.291c-0.465,0-0.898,0.09-1.302,0.271s-0.759,0.436-1.066,0.764s-0.563,0.717-0.764,1.164
		C453.473,157.746,453.342,158.23,453.279,158.75z"/>
	<path fill="#FFFFFF" d="M269.355,176.503l9.455-2.822h4.934v33.139h-7.137v-25.795l-5.738,1.4L269.355,176.503z"/>
	<path fill="#FFFFFF" d="M290.605,190.457v-0.092c0-2.387,0.353-4.613,1.057-6.678c0.704-2.066,1.7-3.863,2.986-5.393
		c1.286-1.531,2.828-2.736,4.628-3.615c1.799-0.879,3.801-1.32,6.006-1.32c2.158,0,4.138,0.43,5.937,1.285
		c1.799,0.857,3.334,2.047,4.605,3.568c1.271,1.523,2.258,3.316,2.962,5.383c0.705,2.064,1.058,4.291,1.058,6.678v0.092
		c0,2.387-0.353,4.613-1.058,6.678c-0.704,2.066-1.699,3.867-2.985,5.404c-1.286,1.539-2.833,2.748-4.639,3.627
		c-1.808,0.879-3.806,1.32-5.995,1.32s-4.184-0.434-5.982-1.297c-1.8-0.865-3.334-2.059-4.605-3.58
		c-1.271-1.523-2.251-3.316-2.939-5.383C290.95,195.07,290.605,192.843,290.605,190.457z M298.041,190.308
		c0,1.5,0.172,2.895,0.516,4.182c0.344,1.285,0.829,2.393,1.455,3.318c0.626,0.928,1.387,1.658,2.28,2.195
		c0.894,0.535,1.89,0.803,2.99,0.803c1.1,0,2.085-0.26,2.955-0.781c0.871-0.52,1.619-1.244,2.245-2.17
		c0.627-0.928,1.104-2.021,1.433-3.285s0.493-2.654,0.493-4.17v-0.092c0-1.502-0.173-2.887-0.517-4.158
		c-0.343-1.271-0.836-2.379-1.478-3.32s-1.409-1.682-2.303-2.217c-0.894-0.537-1.875-0.805-2.944-0.805
		c-1.1,0-2.085,0.26-2.955,0.781c-0.871,0.521-1.612,1.244-2.223,2.172c-0.611,0.926-1.089,2.025-1.433,3.295
		c-0.344,1.273-0.516,2.658-0.516,4.16V190.308z"/>
	<path fill="#FFFFFF" d="M337.399,181.621h7.572l5.738,17.254l5.484-17.254h7.436l-9.685,25.818
		c-0.475,1.285-0.976,2.371-1.503,3.26c-0.528,0.887-1.113,1.613-1.756,2.18c-0.643,0.564-1.373,0.975-2.191,1.227
		c-0.819,0.254-1.764,0.379-2.834,0.379c-1.316,0-2.476-0.152-3.478-0.459s-1.954-0.721-2.856-1.244l2.387-5.072
		c0.474,0.277,0.986,0.512,1.537,0.705c0.551,0.191,1.056,0.287,1.515,0.287c0.627,0,1.124-0.119,1.491-0.357
		s0.704-0.672,1.01-1.303L337.399,181.621z"/>
	<path fill="#FFFFFF" d="M366.613,194.359v-0.092c0-1.791,0.306-3.48,0.918-5.072c0.611-1.592,1.465-2.984,2.559-4.178
		s2.402-2.133,3.925-2.822c1.521-0.688,3.209-1.033,5.061-1.033c2.096,0,3.912,0.375,5.45,1.125c1.537,0.75,2.814,1.76,3.832,3.029
		s1.768,2.727,2.249,4.371c0.482,1.646,0.723,3.363,0.723,5.152c0,0.275-0.008,0.57-0.022,0.885
		c-0.016,0.313-0.038,0.646-0.069,0.998h-17.533c0.353,1.605,1.067,2.822,2.146,3.648c1.078,0.826,2.421,1.24,4.027,1.24
		c1.193,0,2.257-0.205,3.189-0.615c0.934-0.408,1.905-1.061,2.915-1.955l4.085,3.609c-1.193,1.482-2.636,2.643-4.326,3.482
		s-3.684,1.262-5.979,1.262c-1.881,0-3.625-0.314-5.232-0.941c-1.605-0.627-2.998-1.523-4.176-2.686
		c-1.179-1.162-2.097-2.535-2.754-4.119C366.942,198.064,366.613,196.3,366.613,194.359z M373.612,192.248h10.764
		c-0.215-1.578-0.776-2.855-1.687-3.834c-0.911-0.979-2.115-1.469-3.614-1.469c-1.5,0-2.713,0.482-3.638,1.445
		C374.512,189.353,373.903,190.638,373.612,192.248z"/>
	<path fill="#FFFFFF" d="M395.14,199.591V199.5c0-1.377,0.248-2.57,0.746-3.58c0.497-1.01,1.193-1.844,2.088-2.502
		c0.896-0.658,1.962-1.152,3.202-1.48c1.238-0.328,2.607-0.494,4.107-0.494c1.285,0,2.405,0.096,3.362,0.287
		c0.956,0.191,1.885,0.439,2.788,0.746v-0.418c0-1.512-0.451-2.666-1.354-3.461c-0.903-0.795-2.25-1.193-4.039-1.193
		c-1.377,0-2.59,0.121-3.638,0.361c-1.049,0.238-2.154,0.584-3.316,1.031l-1.79-5.445c1.377-0.594,2.818-1.074,4.326-1.447
		c1.507-0.371,3.323-0.559,5.45-0.559c1.974,0,3.656,0.242,5.049,0.723c1.392,0.482,2.548,1.184,3.466,2.102
		c0.933,0.932,1.617,2.08,2.054,3.441c0.436,1.361,0.653,2.893,0.653,4.59v14.619h-6.907v-2.73
		c-0.872,0.963-1.916,1.736-3.133,2.316c-1.216,0.582-2.704,0.873-4.464,0.873c-1.193,0-2.313-0.166-3.361-0.494
		c-1.049-0.328-1.967-0.822-2.754-1.48c-0.788-0.656-1.408-1.461-1.859-2.408C395.365,201.947,395.14,200.845,395.14,199.591z
		 M402.047,199.292c0,0.963,0.359,1.713,1.079,2.248c0.719,0.537,1.66,0.805,2.823,0.805c1.697,0,3.052-0.406,4.062-1.217
		s1.515-1.875,1.515-3.189v-1.264c-0.628-0.275-1.323-0.5-2.088-0.676c-0.766-0.176-1.584-0.264-2.456-0.264
		c-1.53,0-2.735,0.293-3.614,0.883c-0.88,0.59-1.32,1.449-1.32,2.582V199.292z"/>
	<path fill="#FFFFFF" d="M424.445,206.82v-25.199h7.138v5.072c0.721-1.729,1.711-3.105,2.969-4.131c1.15-0.934,2.678-1.4,4.58-1.4
		c0.169,0,0.338,0,0.507,0v7.459h-0.392c-2.394,0-4.27,0.723-5.627,2.168c-1.358,1.447-2.037,3.684-2.037,6.713v9.318H424.445z"/>
	<path fill="#FFFFFF" d="M442.117,203.287l3.052-4.684c1.377,0.973,2.75,1.697,4.119,2.176c1.369,0.477,2.643,0.717,3.821,0.717
		c1.04,0,1.805-0.166,2.295-0.498c0.489-0.33,0.734-0.768,0.734-1.313v-0.088c0-0.369-0.142-0.688-0.425-0.961
		c-0.283-0.271-0.669-0.504-1.159-0.695c-0.489-0.191-1.048-0.379-1.675-0.563c-0.628-0.184-1.285-0.383-1.974-0.594
		c-0.872-0.244-1.756-0.547-2.65-0.912c-0.896-0.363-1.702-0.83-2.422-1.4c-0.719-0.568-1.304-1.275-1.755-2.117
		c-0.452-0.842-0.677-1.871-0.677-3.086v-0.092c0-1.273,0.24-2.4,0.723-3.381c0.481-0.979,1.14-1.811,1.974-2.492
		c0.833-0.684,1.805-1.195,2.914-1.537s2.307-0.514,3.592-0.514c1.591,0,3.209,0.27,4.854,0.809
		c1.645,0.537,3.163,1.289,4.556,2.252l-2.73,4.975c-1.255-0.691-2.479-1.24-3.672-1.645s-2.242-0.607-3.145-0.607
		c-0.872,0-1.53,0.158-1.974,0.475c-0.444,0.316-0.665,0.711-0.665,1.182v0.088c0,0.338,0.141,0.637,0.424,0.895
		s0.658,0.496,1.125,0.717c0.466,0.221,1.006,0.438,1.617,0.652c0.612,0.213,1.263,0.422,1.951,0.629
		c0.872,0.264,1.763,0.594,2.674,0.99c0.91,0.396,1.729,0.875,2.455,1.439c0.727,0.563,1.323,1.248,1.79,2.055s0.7,1.789,0.7,2.945
		v0.092c0,1.4-0.241,2.607-0.723,3.619c-0.482,1.012-1.163,1.846-2.043,2.5c-0.88,0.656-1.908,1.146-3.086,1.473
		c-1.179,0.328-2.441,0.492-3.787,0.492c-1.79,0-3.614-0.318-5.474-0.957C445.594,205.685,443.814,204.673,442.117,203.287z"/>
	<path fill="#FFFFFF" d="M269.051,226.835v-1.357h1.436v-3.115h1.543v3.115h3.281v1.357h-3.281v6.029
		c0,0.637,0.159,1.082,0.479,1.334c0.319,0.254,0.739,0.381,1.26,0.381c0.267,0,0.518-0.027,0.752-0.078
		c0.234-0.053,0.485-0.146,0.752-0.283v1.332c-0.267,0.15-0.552,0.264-0.854,0.336s-0.64,0.109-1.011,0.109
		c-0.41,0-0.796-0.053-1.157-0.156c-0.361-0.105-0.672-0.273-0.933-0.508s-0.464-0.539-0.61-0.914
		c-0.146-0.373-0.22-0.822-0.22-1.342v-6.24H269.051z"/>
	<path fill="#FFFFFF" d="M277.391,230.703v-0.039c0-0.736,0.134-1.432,0.4-2.086c0.268-0.654,0.641-1.227,1.119-1.719
		c0.479-0.49,1.05-0.881,1.711-1.166c0.661-0.287,1.387-0.43,2.175-0.43c0.775,0,1.492,0.143,2.15,0.43
		c0.658,0.285,1.229,0.672,1.711,1.156c0.481,0.486,0.854,1.053,1.119,1.699c0.264,0.648,0.396,1.34,0.396,2.076v0.039
		c0,0.734-0.137,1.428-0.41,2.08c-0.274,0.65-0.65,1.223-1.129,1.719c-0.479,0.494-1.053,0.885-1.721,1.172
		c-0.668,0.285-1.39,0.43-2.165,0.43s-1.489-0.145-2.141-0.43c-0.651-0.287-1.217-0.674-1.696-1.162
		c-0.479-0.488-0.852-1.057-1.119-1.705C277.524,232.121,277.391,231.431,277.391,230.703z M278.973,230.648
		c0,0.559,0.098,1.078,0.293,1.563c0.194,0.482,0.461,0.904,0.8,1.264c0.338,0.361,0.741,0.646,1.209,0.857s0.976,0.316,1.521,0.316
		c0.56,0,1.071-0.105,1.536-0.316s0.863-0.496,1.194-0.857c0.332-0.359,0.592-0.777,0.78-1.254s0.283-0.988,0.283-1.533v-0.039
		c0-0.557-0.098-1.08-0.293-1.566c-0.194-0.486-0.465-0.912-0.81-1.279c-0.344-0.367-0.751-0.654-1.219-0.865
		s-0.976-0.316-1.521-0.316c-0.56,0-1.071,0.105-1.536,0.316s-0.86,0.496-1.185,0.855c-0.325,0.359-0.582,0.783-0.771,1.27
		c-0.189,0.486-0.283,1.002-0.283,1.547V230.648z"/>
	<path fill="#FFFFFF" d="M296.16,232.812v-0.039c0-0.563,0.107-1.053,0.321-1.475c0.214-0.42,0.518-0.771,0.91-1.053
		s0.857-0.494,1.396-0.641c0.538-0.148,1.132-0.221,1.781-0.221c0.665,0,1.242,0.039,1.731,0.117
		c0.488,0.078,0.965,0.186,1.428,0.322v-0.318c0-0.906-0.266-1.594-0.797-2.064c-0.532-0.469-1.287-0.703-2.265-0.703
		c-0.612,0-1.17,0.064-1.672,0.197c-0.501,0.131-0.99,0.309-1.466,0.533l-0.463-1.264c0.572-0.27,1.153-0.482,1.742-0.643
		s1.26-0.24,2.015-0.24c1.473,0,2.596,0.381,3.368,1.143c0.727,0.723,1.087,1.734,1.08,3.037v6.318h-1.543v-1.543
		c-0.358,0.469-0.842,0.881-1.447,1.234c-0.606,0.355-1.363,0.533-2.27,0.533c-0.48,0-0.953-0.068-1.42-0.201
		c-0.467-0.135-0.879-0.338-1.235-0.611c-0.356-0.275-0.646-0.613-0.865-1.014C296.271,233.816,296.16,233.347,296.16,232.812z
		 M297.703,232.744c0,0.318,0.07,0.607,0.21,0.869c0.141,0.26,0.331,0.477,0.572,0.648c0.241,0.174,0.519,0.307,0.832,0.4
		c0.313,0.096,0.642,0.143,0.987,0.143c0.482,0,0.932-0.066,1.346-0.201c0.414-0.133,0.777-0.324,1.09-0.57
		c0.313-0.248,0.56-0.543,0.739-0.885c0.179-0.342,0.269-0.717,0.269-1.127v-0.957c-0.385-0.105-0.823-0.203-1.315-0.299
		c-0.492-0.094-1.062-0.141-1.707-0.141c-0.959,0-1.702,0.188-2.23,0.566c-0.528,0.377-0.792,0.881-0.792,1.514V232.744z"/>
	<path fill="#FFFFFF" d="M308.65,235.82v-14.6h1.543v14.6H308.65z"/>
	<path fill="#FFFFFF" d="M313.904,235.82v-14.6h1.543v14.6H313.904z"/>
	<path fill="#FFFFFF" d="M324.383,230.703v-0.039c0-0.736,0.135-1.432,0.402-2.086c0.27-0.654,0.641-1.227,1.113-1.719
		c0.475-0.49,1.035-0.881,1.683-1.166c0.647-0.287,1.35-0.43,2.104-0.43c0.495,0,0.942,0.045,1.343,0.137
		c0.4,0.09,0.767,0.221,1.099,0.391c0.332,0.168,0.638,0.365,0.918,0.59s0.54,0.463,0.781,0.717l-1.016,1.08
		c-0.41-0.428-0.859-0.795-1.348-1.1s-1.087-0.457-1.797-0.457c-0.521,0-1.008,0.102-1.46,0.307
		c-0.452,0.203-0.845,0.486-1.177,0.846c-0.332,0.361-0.593,0.783-0.781,1.27s-0.283,1.01-0.283,1.566v0.039
		c0,0.559,0.098,1.078,0.293,1.563c0.195,0.482,0.462,0.908,0.801,1.273c0.339,0.367,0.739,0.652,1.201,0.857
		c0.462,0.203,0.967,0.307,1.514,0.307c0.664,0,1.253-0.146,1.768-0.438c0.515-0.293,0.977-0.656,1.387-1.09l0.977,0.914
		c-0.521,0.594-1.11,1.08-1.768,1.459c-0.657,0.381-1.475,0.57-2.451,0.57c-0.762,0-1.465-0.145-2.109-0.43
		c-0.645-0.287-1.203-0.674-1.678-1.162c-0.473-0.488-0.844-1.061-1.113-1.715C324.518,232.103,324.383,231.417,324.383,230.703z"/>
	<path fill="#FFFFFF" d="M335.799,230.703v-0.039c0-0.736,0.134-1.432,0.4-2.086c0.268-0.654,0.641-1.227,1.119-1.719
		c0.479-0.49,1.05-0.881,1.711-1.166c0.661-0.287,1.387-0.43,2.175-0.43c0.775,0,1.492,0.143,2.15,0.43
		c0.658,0.285,1.229,0.672,1.711,1.156c0.481,0.486,0.854,1.053,1.119,1.699c0.264,0.648,0.396,1.34,0.396,2.076v0.039
		c0,0.734-0.137,1.428-0.41,2.08c-0.274,0.65-0.65,1.223-1.129,1.719c-0.479,0.494-1.053,0.885-1.721,1.172
		c-0.668,0.285-1.39,0.43-2.165,0.43s-1.489-0.145-2.141-0.43c-0.651-0.287-1.217-0.674-1.696-1.162
		c-0.479-0.488-0.852-1.057-1.119-1.705C335.933,232.121,335.799,231.431,335.799,230.703z M337.381,230.648
		c0,0.559,0.098,1.078,0.293,1.563c0.194,0.482,0.461,0.904,0.8,1.264c0.338,0.361,0.741,0.646,1.209,0.857s0.976,0.316,1.521,0.316
		c0.56,0,1.071-0.105,1.536-0.316s0.863-0.496,1.194-0.857c0.332-0.359,0.592-0.777,0.78-1.254s0.283-0.988,0.283-1.533v-0.039
		c0-0.557-0.098-1.08-0.293-1.566c-0.194-0.486-0.465-0.912-0.81-1.279c-0.344-0.367-0.751-0.654-1.219-0.865
		s-0.976-0.316-1.521-0.316c-0.56,0-1.071,0.105-1.536,0.316s-0.86,0.496-1.185,0.855c-0.325,0.359-0.582,0.783-0.771,1.27
		c-0.189,0.486-0.283,1.002-0.283,1.547V230.648z"/>
	<path fill="#FFFFFF" d="M349.49,235.82v-14.6h1.543v14.6H349.49z"/>
	<path fill="#FFFFFF" d="M354.744,235.82v-14.6h1.543v14.6H354.744z"/>
	<path fill="#FFFFFF" d="M359.227,230.664c0-0.75,0.122-1.453,0.366-2.115c0.244-0.66,0.588-1.232,1.03-1.719
		c0.442-0.484,0.967-0.867,1.572-1.146c0.605-0.281,1.267-0.42,1.982-0.42c0.762,0,1.443,0.143,2.046,0.43
		c0.603,0.285,1.11,0.676,1.523,1.166c0.413,0.492,0.726,1.072,0.938,1.738c0.212,0.668,0.317,1.383,0.317,2.145
		c0,0.064,0,0.141,0,0.229s-0.007,0.191-0.02,0.309h-8.213c0.052,0.545,0.186,1.029,0.4,1.455s0.488,0.785,0.82,1.076
		c0.332,0.293,0.705,0.516,1.118,0.668s0.848,0.229,1.304,0.229c0.723,0,1.34-0.133,1.851-0.4c0.511-0.266,0.981-0.615,1.411-1.051
		l0.957,0.857c-0.521,0.588-1.113,1.061-1.777,1.416c-0.664,0.357-1.491,0.535-2.48,0.535c-0.71,0-1.377-0.131-2.002-0.391
		c-0.625-0.262-1.17-0.629-1.634-1.104c-0.464-0.477-0.832-1.047-1.104-1.715C359.362,232.189,359.227,231.457,359.227,230.664z
		 M360.77,230.039h6.66c-0.039-0.469-0.139-0.914-0.298-1.334s-0.376-0.789-0.649-1.107c-0.273-0.32-0.607-0.572-1.001-0.758
		s-0.845-0.277-1.353-0.277c-0.442,0-0.856,0.086-1.24,0.258c-0.384,0.174-0.723,0.416-1.016,0.729s-0.535,0.682-0.728,1.107
		C360.953,229.083,360.828,229.542,360.77,230.039z"/>
	<path fill="#FFFFFF" d="M371.063,230.703v-0.039c0-0.736,0.135-1.432,0.402-2.086c0.27-0.654,0.641-1.227,1.113-1.719
		c0.475-0.49,1.035-0.881,1.683-1.166c0.647-0.287,1.35-0.43,2.104-0.43c0.495,0,0.942,0.045,1.343,0.137
		c0.4,0.09,0.767,0.221,1.099,0.391c0.332,0.168,0.638,0.365,0.918,0.59s0.54,0.463,0.781,0.717l-1.016,1.08
		c-0.41-0.428-0.859-0.795-1.348-1.1s-1.087-0.457-1.797-0.457c-0.521,0-1.008,0.102-1.46,0.307
		c-0.452,0.203-0.845,0.486-1.177,0.846c-0.332,0.361-0.593,0.783-0.781,1.27s-0.283,1.01-0.283,1.566v0.039
		c0,0.559,0.098,1.078,0.293,1.563c0.195,0.482,0.462,0.908,0.801,1.273c0.339,0.367,0.739,0.652,1.201,0.857
		c0.462,0.203,0.967,0.307,1.514,0.307c0.664,0,1.253-0.146,1.768-0.438c0.515-0.293,0.977-0.656,1.387-1.09l0.977,0.914
		c-0.521,0.594-1.11,1.08-1.768,1.459c-0.657,0.381-1.475,0.57-2.451,0.57c-0.762,0-1.465-0.145-2.109-0.43
		c-0.645-0.287-1.203-0.674-1.678-1.162c-0.473-0.488-0.844-1.061-1.113-1.715C371.197,232.103,371.063,231.417,371.063,230.703z"/>
	<path fill="#FFFFFF" d="M382.215,226.835v-1.357h1.436v-3.115h1.543v3.115h3.281v1.357h-3.281v6.029
		c0,0.637,0.159,1.082,0.479,1.334c0.319,0.254,0.739,0.381,1.26,0.381c0.267,0,0.518-0.027,0.752-0.078
		c0.234-0.053,0.485-0.146,0.752-0.283v1.332c-0.267,0.15-0.552,0.264-0.854,0.336s-0.64,0.109-1.011,0.109
		c-0.41,0-0.796-0.053-1.157-0.156c-0.361-0.105-0.672-0.273-0.933-0.508s-0.464-0.539-0.61-0.914
		c-0.146-0.373-0.22-0.822-0.22-1.342v-6.24H382.215z"/>
	<path fill="#FFFFFF" d="M390.555,230.664c0-0.75,0.122-1.453,0.366-2.115c0.244-0.66,0.588-1.232,1.03-1.719
		c0.442-0.484,0.967-0.867,1.572-1.146c0.605-0.281,1.267-0.42,1.982-0.42c0.762,0,1.443,0.143,2.046,0.43
		c0.603,0.285,1.11,0.676,1.523,1.166c0.413,0.492,0.726,1.072,0.938,1.738c0.212,0.668,0.317,1.383,0.317,2.145
		c0,0.064,0,0.141,0,0.229s-0.007,0.191-0.02,0.309h-8.213c0.052,0.545,0.186,1.029,0.4,1.455s0.488,0.785,0.82,1.076
		c0.332,0.293,0.705,0.516,1.118,0.668s0.848,0.229,1.304,0.229c0.723,0,1.34-0.133,1.851-0.4c0.511-0.266,0.981-0.615,1.411-1.051
		l0.957,0.857c-0.521,0.588-1.113,1.061-1.777,1.416c-0.664,0.357-1.491,0.535-2.48,0.535c-0.71,0-1.377-0.131-2.002-0.391
		c-0.625-0.262-1.17-0.629-1.634-1.104c-0.464-0.477-0.832-1.047-1.104-1.715C390.69,232.189,390.555,231.457,390.555,230.664z
		 M392.098,230.039h6.66c-0.039-0.469-0.139-0.914-0.298-1.334s-0.376-0.789-0.649-1.107c-0.273-0.32-0.607-0.572-1.001-0.758
		s-0.845-0.277-1.353-0.277c-0.442,0-0.856,0.086-1.24,0.258c-0.384,0.174-0.723,0.416-1.016,0.729s-0.535,0.682-0.728,1.107
		C392.281,229.083,392.156,229.542,392.098,230.039z"/>
	<path fill="#FFFFFF" d="M402.43,230.683v-0.039c0-0.84,0.14-1.594,0.42-2.262c0.28-0.666,0.654-1.232,1.12-1.693
		c0.466-0.463,0.992-0.816,1.578-1.061c0.587-0.244,1.196-0.365,1.828-0.365c0.481,0,0.921,0.059,1.317,0.178
		s0.754,0.277,1.072,0.475s0.608,0.428,0.868,0.691c0.26,0.266,0.491,0.543,0.692,0.832v-6.238h1.543v14.619h-1.543v-2.109
		c-0.215,0.311-0.452,0.607-0.712,0.891s-0.55,0.533-0.868,0.75c-0.318,0.219-0.673,0.389-1.063,0.51
		c-0.391,0.123-0.826,0.184-1.308,0.184c-0.625,0-1.233-0.121-1.823-0.361c-0.59-0.242-1.117-0.594-1.583-1.055
		c-0.466-0.463-0.84-1.023-1.12-1.68C402.569,232.291,402.43,231.535,402.43,230.683z M404.012,230.638
		c0,0.611,0.098,1.162,0.293,1.654c0.194,0.49,0.458,0.91,0.789,1.258c0.332,0.348,0.717,0.615,1.156,0.799
		c0.438,0.186,0.905,0.279,1.399,0.279c0.481,0,0.944-0.096,1.39-0.289c0.445-0.191,0.846-0.465,1.199-0.818
		c0.354-0.354,0.635-0.773,0.839-1.258c0.205-0.484,0.308-1.025,0.308-1.625v-0.039c0-0.598-0.103-1.141-0.308-1.629
		c-0.204-0.486-0.484-0.904-0.839-1.252c-0.354-0.35-0.754-0.619-1.199-0.811s-0.908-0.287-1.39-0.287
		c-0.507,0-0.98,0.09-1.419,0.268c-0.439,0.18-0.821,0.439-1.146,0.781c-0.324,0.34-0.585,0.758-0.779,1.248
		c-0.195,0.49-0.293,1.051-0.293,1.682V230.638z"/>
	<path fill="#FFFFFF" d="M421.697,230.683v-0.039c0-0.84,0.14-1.594,0.42-2.262c0.28-0.666,0.654-1.232,1.12-1.693
		c0.466-0.463,0.992-0.816,1.578-1.061c0.587-0.244,1.196-0.365,1.828-0.365c0.481,0,0.921,0.059,1.317,0.178
		s0.754,0.277,1.072,0.475s0.608,0.428,0.868,0.691c0.26,0.266,0.491,0.543,0.692,0.832v-6.238h1.543v14.619h-1.543v-2.109
		c-0.215,0.311-0.452,0.607-0.712,0.891s-0.55,0.533-0.868,0.75c-0.318,0.219-0.673,0.389-1.063,0.51
		c-0.391,0.123-0.826,0.184-1.308,0.184c-0.625,0-1.233-0.121-1.823-0.361c-0.59-0.242-1.117-0.594-1.583-1.055
		c-0.466-0.463-0.84-1.023-1.12-1.68C421.837,232.291,421.697,231.535,421.697,230.683z M423.279,230.638
		c0,0.611,0.098,1.162,0.293,1.654c0.194,0.49,0.458,0.91,0.789,1.258c0.332,0.348,0.717,0.615,1.156,0.799
		c0.438,0.186,0.905,0.279,1.399,0.279c0.481,0,0.944-0.096,1.39-0.289c0.445-0.191,0.846-0.465,1.199-0.818
		c0.354-0.354,0.635-0.773,0.839-1.258c0.205-0.484,0.308-1.025,0.308-1.625v-0.039c0-0.598-0.103-1.141-0.308-1.629
		c-0.204-0.486-0.484-0.904-0.839-1.252c-0.354-0.35-0.754-0.619-1.199-0.811s-0.908-0.287-1.39-0.287
		c-0.507,0-0.98,0.09-1.419,0.268c-0.439,0.18-0.821,0.439-1.146,0.781c-0.324,0.34-0.585,0.758-0.779,1.248
		c-0.195,0.49-0.293,1.051-0.293,1.682V230.638z"/>
	<path fill="#FFFFFF" d="M434.783,232.812v-0.039c0-0.563,0.107-1.053,0.321-1.475c0.214-0.42,0.518-0.771,0.91-1.053
		s0.857-0.494,1.396-0.641c0.538-0.148,1.132-0.221,1.781-0.221c0.665,0,1.242,0.039,1.731,0.117
		c0.488,0.078,0.965,0.186,1.428,0.322v-0.318c0-0.906-0.266-1.594-0.797-2.064c-0.532-0.469-1.287-0.703-2.265-0.703
		c-0.612,0-1.17,0.064-1.672,0.197c-0.501,0.131-0.99,0.309-1.466,0.533l-0.463-1.264c0.572-0.27,1.153-0.482,1.742-0.643
		s1.26-0.24,2.015-0.24c1.473,0,2.596,0.381,3.368,1.143c0.727,0.723,1.087,1.734,1.08,3.037v6.318h-1.543v-1.543
		c-0.358,0.469-0.842,0.881-1.447,1.234c-0.606,0.355-1.363,0.533-2.27,0.533c-0.48,0-0.953-0.068-1.42-0.201
		c-0.467-0.135-0.879-0.338-1.235-0.611c-0.356-0.275-0.646-0.613-0.865-1.014C434.894,233.816,434.783,233.347,434.783,232.812z
		 M436.326,232.744c0,0.318,0.07,0.607,0.21,0.869c0.141,0.26,0.331,0.477,0.572,0.648c0.241,0.174,0.519,0.307,0.832,0.4
		c0.313,0.096,0.642,0.143,0.987,0.143c0.482,0,0.932-0.066,1.346-0.201c0.414-0.133,0.777-0.324,1.09-0.57
		c0.313-0.248,0.56-0.543,0.739-0.885c0.179-0.342,0.269-0.717,0.269-1.127v-0.957c-0.385-0.105-0.823-0.203-1.315-0.299
		c-0.492-0.094-1.062-0.141-1.707-0.141c-0.959,0-1.702,0.188-2.23,0.566c-0.528,0.377-0.792,0.881-0.792,1.514V232.744z"/>
	<path fill="#FFFFFF" d="M446.238,226.835v-1.357h1.436v-3.115h1.543v3.115h3.281v1.357h-3.281v6.029
		c0,0.637,0.159,1.082,0.479,1.334c0.319,0.254,0.739,0.381,1.26,0.381c0.267,0,0.518-0.027,0.752-0.078
		c0.234-0.053,0.485-0.146,0.752-0.283v1.332c-0.267,0.15-0.552,0.264-0.854,0.336s-0.64,0.109-1.011,0.109
		c-0.41,0-0.796-0.053-1.157-0.156c-0.361-0.105-0.672-0.273-0.933-0.508s-0.464-0.539-0.61-0.914
		c-0.146-0.373-0.22-0.822-0.22-1.342v-6.24H446.238z"/>
	<path fill="#FFFFFF" d="M454.432,232.812v-0.039c0-0.563,0.107-1.053,0.321-1.475c0.214-0.42,0.518-0.771,0.91-1.053
		s0.857-0.494,1.396-0.641c0.538-0.148,1.132-0.221,1.781-0.221c0.665,0,1.242,0.039,1.731,0.117
		c0.488,0.078,0.965,0.186,1.428,0.322v-0.318c0-0.906-0.266-1.594-0.797-2.064c-0.532-0.469-1.287-0.703-2.265-0.703
		c-0.612,0-1.17,0.064-1.672,0.197c-0.501,0.131-0.99,0.309-1.466,0.533l-0.463-1.264c0.572-0.27,1.153-0.482,1.742-0.643
		s1.26-0.24,2.015-0.24c1.473,0,2.596,0.381,3.368,1.143c0.727,0.723,1.087,1.734,1.08,3.037v6.318H462v-1.543
		c-0.358,0.469-0.842,0.881-1.447,1.234c-0.606,0.355-1.363,0.533-2.27,0.533c-0.48,0-0.953-0.068-1.42-0.201
		c-0.467-0.135-0.879-0.338-1.235-0.611c-0.356-0.275-0.646-0.613-0.865-1.014C454.542,233.816,454.432,233.347,454.432,232.812z
		 M455.975,232.744c0,0.318,0.07,0.607,0.21,0.869c0.141,0.26,0.331,0.477,0.572,0.648c0.241,0.174,0.519,0.307,0.832,0.4
		c0.313,0.096,0.642,0.143,0.987,0.143c0.482,0,0.932-0.066,1.346-0.201c0.414-0.133,0.777-0.324,1.09-0.57
		c0.313-0.248,0.56-0.543,0.739-0.885c0.179-0.342,0.269-0.717,0.269-1.127v-0.957c-0.385-0.105-0.823-0.203-1.315-0.299
		c-0.492-0.094-1.062-0.141-1.707-0.141c-0.959,0-1.702,0.188-2.23,0.566c-0.528,0.377-0.792,0.881-0.792,1.514V232.744z"/>
</g>
</svg>
