<?xml version="1.0" encoding="utf-8"?>
<!-- Generator: Adobe Illustrator 16.0.0, SVG Export Plug-In . SVG Version: 6.00 Build 0)  -->
<!DOCTYPE svg PUBLIC "-//W3C//DTD SVG 1.1//EN" "http://www.w3.org/Graphics/SVG/1.1/DTD/svg11.dtd" [
	<!ENTITY ns_flows "http://ns.adobe.com/Flows/1.0/">
	<!ENTITY ns_extend "http://ns.adobe.com/Extensibility/1.0/">
	<!ENTITY ns_ai "http://ns.adobe.com/AdobeIllustrator/10.0/">
	<!ENTITY ns_graphs "http://ns.adobe.com/Graphs/1.0/">
]>
<svg version="1.1" xmlns:x="&ns_extend;" xmlns:i="&ns_ai;" xmlns:graph="&ns_graphs;"
	 xmlns="http://www.w3.org/2000/svg" xmlns:xlink="http://www.w3.org/1999/xlink" xmlns:a="http://ns.adobe.com/AdobeSVGViewerExtensions/3.0/"
	 x="0px" y="0px" width="267.695px" height="280.28px" viewBox="0 0 267.695 280.28" enable-background="new 0 0 267.695 280.28"
	 xml:space="preserve">
<g id="Layer_1" display="none">
	<rect x="-142.754" y="-88.728" display="inline" fill="#0977BD" width="872" height="793.216"/>
	<g display="inline">
		
			<rect x="-78.845" y="200.989" transform="matrix(0.7071 -0.7071 0.7071 0.7071 -134.3316 89.6838)" fill="#005B94" width="239.874" height="12.012"/>
		
			<rect x="-78.844" y="172.8" transform="matrix(0.7071 -0.7071 0.7071 0.7071 -114.3989 81.4272)" fill="#005B94" width="239.874" height="12.013"/>
		
			<rect x="-29.267" y="93.02" transform="matrix(-0.7071 -0.7071 0.7071 -0.7071 -190.2815 347.1028)" fill="#005B94" width="12.016" height="239.874"/>
		<polygon fill="#005B94" points="586.767,-75.883 479.463,31.424 236.437,31.424 -110.793,378.654 -102.3,387.15 241.415,43.438 
			484.44,43.438 595.265,-67.388 		"/>
		<polygon fill="#005B94" points="605.436,-59.662 498.134,47.647 283.042,47.647 283.042,59.661 503.112,59.661 613.933,-51.165 		
			"/>
		<polygon fill="#005B94" points="626.925,-41.357 519.616,65.949 283.042,65.949 283.042,77.963 524.595,77.963 635.421,-32.861 		
			"/>
		<rect x="283.042" y="83.529" fill="#005B94" width="200.932" height="12.015"/>
		<polygon fill="#005B94" points="622.61,-6.33 515.302,100.977 283.041,100.977 283.041,112.991 520.279,112.991 631.106,2.167 		
			"/>
		<rect x="283.042" y="118.979" fill="#005B94" width="155.129" height="12.015"/>
		<polygon fill="#005B94" points="198.34,331.285 -22.707,331.285 -22.707,343.3 194.04,343.3 260.066,397.534 267.695,388.251 		
			"/>
		<polygon fill="#005B94" points="235.115,249.441 226.618,257.937 277.036,308.351 277.036,367.614 289.053,367.614 
			289.053,303.373 		"/>
	</g>
</g>
<g id="Layer_2">
	<g opacity="0.3"  a:adobe-blending-mode="multiply">
		<g  a:adobe-blending-mode="normal">
			<defs>
				<rect id="SVGID_1_" x="60.976" y="52.217" width="361.696" height="235.896"/>
			</defs>
			<clipPath id="SVGID_2_">
				<use xlink:href="#SVGID_1_"  overflow="visible"/>
			</clipPath>
			<g clip-path="url(#SVGID_2_)">
				<defs>
					<rect id="SVGID_3_" x="60.976" y="52.217" width="361.696" height="235.896"/>
				</defs>
				<clipPath id="SVGID_4_">
					<use xlink:href="#SVGID_3_"  overflow="visible"/>
				</clipPath>
				<defs>
					<filter id="Adobe_OpacityMaskFilter" filterUnits="userSpaceOnUse" x="60.976" y="52.217" width="361.696" height="235.896">
						<feColorMatrix  type="matrix" values="1 0 0 0 0  0 1 0 0 0  0 0 1 0 0  0 0 0 1 0"/>
					</filter>
				</defs>
				<mask maskUnits="userSpaceOnUse" x="60.976" y="52.217" width="361.696" height="235.896" id="SVGID_5_">
					<g filter="url(#Adobe_OpacityMaskFilter)">
						<rect x="60.976" y="52.217" clip-path="url(#SVGID_4_)"  a:adobe-opacity-share="1" width="361.696" height="235.896"/>
						<g  a:adobe-opacity-share="1" enable-background="new    ">
							<g  a:adobe-opacity-share="0">
								<defs>
									<rect id="SVGID_6_" x="60.976" y="52.217" width="361.696" height="235.896"/>
								</defs>
								<clipPath id="SVGID_7_" clip-path="url(#SVGID_4_)">
									<use xlink:href="#SVGID_6_"  overflow="visible"/>
								</clipPath>
								<g>
									<defs>
										
											<rect id="SVGID_8_" x="31.438" y="-41.93" transform="matrix(-0.6934 -0.7206 0.7206 -0.6934 286.8936 462.4056)" width="420.774" height="424.191"/>
									</defs>
									<clipPath id="SVGID_9_" clip-path="url(#SVGID_7_)">
										<use xlink:href="#SVGID_8_"  overflow="visible"/>
									</clipPath>
									
										<linearGradient id="SVGID_10_" gradientUnits="userSpaceOnUse" x1="-132.3052" y1="477.7969" x2="-130.6395" y2="477.7969" gradientTransform="matrix(64.2403 66.7555 -66.7555 64.2403 40564.207 -21766.8555)">
										<stop  offset="0" style="stop-color:#FFFFFF"/>
										<stop  offset="0.9139" style="stop-color:#000000"/>
										<stop  offset="0.926" style="stop-color:#000000"/>
										<stop  offset="1" style="stop-color:#000000"/>
										<a:midPointStop  offset="0" style="stop-color:#FFFFFF"/>
										<a:midPointStop  offset="0.5" style="stop-color:#FFFFFF"/>
										<a:midPointStop  offset="0.9139" style="stop-color:#000000"/>
										<a:midPointStop  offset="0.13" style="stop-color:#000000"/>
										<a:midPointStop  offset="1" style="stop-color:#000000"/>
									</linearGradient>
									<polygon clip-path="url(#SVGID_9_)" fill="url(#SVGID_10_)"  a:adobe-opacity-share="1" points="-355.326,158.7 
										230.358,767.315 838.975,181.63 253.291,-426.985 									"/>
								</g>
							</g>
						</g>
					</g>
				</mask>
				<g clip-path="url(#SVGID_4_)" mask="url(#SVGID_5_)"  a:adobe-opacity-share="1">
					<g  a:adobe-opacity-share="0">
						<defs>
							<rect id="SVGID_11_" x="60.976" y="52.217" width="361.696" height="235.896"/>
						</defs>
						<clipPath id="SVGID_12_">
							<use xlink:href="#SVGID_11_"  overflow="visible"/>
						</clipPath>
						<polygon clip-path="url(#SVGID_12_)" fill="#005B94"  a:adobe-opacity-share="1" points="154.583,56.749 62.642,200.386 
							177.055,286.138 421.006,286.446 						"/>
					</g>
				</g>
			</g>
		</g>
	</g>
	<g opacity="0.3"  a:adobe-blending-mode="multiply">
		<g  a:adobe-blending-mode="normal">
			<defs>
				<rect id="SVGID_13_" x="191.082" y="317.217" width="440.039" height="310.056"/>
			</defs>
			<clipPath id="SVGID_14_">
				<use xlink:href="#SVGID_13_"  overflow="visible"/>
			</clipPath>
			<g clip-path="url(#SVGID_14_)">
				<defs>
					<rect id="SVGID_15_" x="191.082" y="317.217" width="440.039" height="310.056"/>
				</defs>
				<clipPath id="SVGID_16_">
					<use xlink:href="#SVGID_15_"  overflow="visible"/>
				</clipPath>
				<defs>
					
						<filter id="Adobe_OpacityMaskFilter_1_" filterUnits="userSpaceOnUse" x="191.082" y="317.217" width="440.039" height="310.056">
						<feColorMatrix  type="matrix" values="1 0 0 0 0  0 1 0 0 0  0 0 1 0 0  0 0 0 1 0"/>
					</filter>
				</defs>
				<mask maskUnits="userSpaceOnUse" x="191.082" y="317.217" width="440.039" height="310.056" id="SVGID_17_">
					<g filter="url(#Adobe_OpacityMaskFilter_1_)">
						<rect x="191.082" y="317.217" clip-path="url(#SVGID_16_)"  a:adobe-opacity-share="1" width="440.039" height="310.056"/>
						<g  a:adobe-opacity-share="1" enable-background="new    ">
							<g  a:adobe-opacity-share="0">
								<defs>
									<rect id="SVGID_18_" x="191.082" y="317.217" width="440.039" height="310.056"/>
								</defs>
								<clipPath id="SVGID_19_" clip-path="url(#SVGID_16_)">
									<use xlink:href="#SVGID_18_"  overflow="visible"/>
								</clipPath>
								<g>
									<defs>
										
											<rect id="SVGID_20_" x="156.661" y="203.109" transform="matrix(-0.585 -0.8111 0.8111 -0.585 268.5558 1081.9148)" width="508.88" height="538.269"/>
									</defs>
									<clipPath id="SVGID_21_" clip-path="url(#SVGID_19_)">
										<use xlink:href="#SVGID_20_"  overflow="visible"/>
									</clipPath>
									
										<linearGradient id="SVGID_22_" gradientUnits="userSpaceOnUse" x1="-130.3784" y1="477.4209" x2="-128.7127" y2="477.4209" gradientTransform="matrix(41.5152 57.5622 -57.5622 41.5152 33258.1289 -11908.4834)">
										<stop  offset="0" style="stop-color:#FFFFFF"/>
										<stop  offset="0.9139" style="stop-color:#000000"/>
										<stop  offset="0.926" style="stop-color:#000000"/>
										<stop  offset="1" style="stop-color:#000000"/>
										<a:midPointStop  offset="0" style="stop-color:#FFFFFF"/>
										<a:midPointStop  offset="0.5" style="stop-color:#FFFFFF"/>
										<a:midPointStop  offset="0.9139" style="stop-color:#000000"/>
										<a:midPointStop  offset="0.13" style="stop-color:#000000"/>
										<a:midPointStop  offset="1" style="stop-color:#000000"/>
									</linearGradient>
									<polygon clip-path="url(#SVGID_21_)" fill="url(#SVGID_22_)"  a:adobe-opacity-share="1" points="-301.221,357.411 
										295.22,1184.397 1123.423,587.077 526.984,-239.91 									"/>
								</g>
							</g>
						</g>
					</g>
				</mask>
				<g clip-path="url(#SVGID_16_)" mask="url(#SVGID_17_)"  a:adobe-opacity-share="1">
					<g  a:adobe-opacity-share="0">
						<defs>
							<rect id="SVGID_23_" x="191.082" y="317.217" width="440.039" height="310.056"/>
						</defs>
						<clipPath id="SVGID_24_">
							<use xlink:href="#SVGID_23_"  overflow="visible"/>
						</clipPath>
						<polygon clip-path="url(#SVGID_24_)" fill="#005B94"  a:adobe-opacity-share="1" points="418.104,395.908 363.849,396.112 
							284.117,318.882 192.749,386.712 442.664,625.296 629.457,625.604 						"/>
					</g>
				</g>
			</g>
		</g>
	</g>
	<rect x="213.183" y="328.93" fill="#F37974" width="68.801" height="61.343"/>
	<path fill="#FFFFFF" d="M278.137,448.073c-7.37-2.245-11.558-9.952-9.344-17.218c2.21-7.264,9.98-11.328,17.35-9.086
		c7.374,2.244,11.559,9.949,9.348,17.214C293.278,446.247,285.51,450.318,278.137,448.073 M302.38,447.693
		c4.467,0.594,6.798,1.252,6.798,1.252c1.659,0.47,3.42-0.497,3.922-2.141l1.349-4.441c0.499-1.644-0.396-3.509-1.991-4.146
		c0,0-3.731-1.489-6.199-2.945l-0.207-0.118c-0.189-0.17-0.376-0.837-0.414-1.489c-0.04-0.646,0.059-2.909,0.452-3.608l0.733-0.556
		c3.555-2.699,5.563-3.806,5.563-3.806c1.504-0.828,2.067-2.745,1.246-4.258l-2.252-4.15c-0.822-1.509-2.754-2.119-4.293-1.356
		c0,0-2.337,1.157-6.439,2.01l-0.938,0.195c-0.997-0.248-2.235-0.812-2.751-1.255c-0.516-0.444-1.989-1.641-1.983-1.829l0.024-0.184
		c0.562-4.409,1.474-7.605,1.474-7.605c0.472-1.656-0.49-3.417-2.137-3.92l-4.594-1.396c-1.646-0.501-3.424,0.425-3.958,2.061
		c0,0-1.123,3.459-3.396,6.933l-0.143,0.22c-0.198,0.207-0.742,0.393-1.205,0.41c-0.464,0.018-2.586-0.159-3.69-0.506l-0.763-0.779
		c-2.938-2.991-4.234-5.255-4.234-5.255c-0.853-1.492-2.795-2.063-4.319-1.265l-4.178,2.19c-1.527,0.796-2.125,2.701-1.34,4.228
		c0,0,1.05,2.041,2.5,6.263l0.272,0.791c-0.035,0.736-0.472,1.777-0.97,2.313c-0.503,0.54-1.937,2.138-2.254,2.188l-0.297-0.006
		c-4.206-0.08-6.755-0.794-6.755-0.794c-1.654-0.466-3.419,0.499-3.921,2.142l-1.35,4.439c-0.501,1.646,0.427,3.428,2.061,3.963
		c0,0,2.218,0.728,6.263,2.724l0.196,0.098c0.197,0.125,0.387,0.803,0.427,1.515c0.035,0.714-0.044,3.163-0.437,3.901l-0.774,0.589
		c-3.552,2.697-5.563,3.803-5.563,3.803c-1.506,0.831-2.063,2.746-1.244,4.256l2.251,4.152c0.82,1.51,2.753,2.122,4.294,1.357
		c0,0,2.334-1.157,6.439-2.008l1.054-0.216c1.1,0.313,2.296,0.822,2.66,1.128c0.363,0.302,1.449,1.379,1.532,1.775l-0.005,0.381
		c-0.049,4.15-0.736,6.616-0.736,6.616c-0.468,1.658,0.498,3.419,2.144,3.918l4.594,1.401c1.645,0.501,3.427-0.426,3.965-2.061
		c0,0,0.707-2.145,2.694-6.116l0.116-0.232c0.142-0.217,0.791-0.405,1.44-0.424c0.656-0.014,3.2,0.109,4.242,0.465l0.722,0.731
		c2.932,2.991,4.229,5.261,4.229,5.261c0.854,1.495,2.796,2.059,4.316,1.262l4.187-2.192c1.525-0.798,2.123-2.7,1.338-4.23
		c0,0-1.051-2.032-2.496-6.256l-0.31-0.899c0.074-0.817,0.518-1.919,0.984-2.454c0.467-0.537,1.716-2.058,1.889-2.053
		C302.211,447.673,302.211,447.673,302.38,447.693"/>
	<path fill="#FFFFFF" d="M325.165,405.37c-5.994-1.82-9.397-8.092-7.598-14.001c1.798-5.904,8.119-9.215,14.108-7.39
		c6.001,1.827,9.398,8.091,7.603,14.001C337.477,403.887,331.165,407.197,325.165,405.37 M344.88,405.064
		c3.635,0.483,4.967,0.856,4.967,0.856c1.656,0.468,3.419-0.497,3.918-2.144l0.758-2.49c0.501-1.645-0.392-3.511-1.99-4.147
		c0,0-2.49-0.998-4.498-2.176l-0.171-0.101c-0.153-0.139-0.305-0.68-0.336-1.209c-0.033-0.528,0.05-2.367,0.367-2.931l0.592-0.455
		c2.894-2.194,4.016-2.814,4.016-2.814c1.507-0.828,2.067-2.745,1.246-4.258l-1.272-2.345c-0.822-1.512-2.754-2.124-4.291-1.359
		c0,0-1.379,0.682-4.717,1.374l-0.763,0.157c-0.805-0.197-1.809-0.655-2.222-1.011c-0.418-0.357-1.615-1.326-1.631-1.484
		l0.023-0.159c0.455-3.586,1.038-5.623,1.038-5.623c0.47-1.654-0.488-3.417-2.134-3.921l-2.621-0.792
		c-1.643-0.502-3.425,0.423-3.954,2.06c0,0-0.736,2.254-2.584,5.081l-0.117,0.18c-0.157,0.166-0.598,0.317-0.978,0.33
		c-0.377,0.015-2.104-0.127-3.001-0.409l-0.623-0.635c-2.388-2.435-3.149-3.767-3.149-3.767c-0.854-1.493-2.798-2.062-4.32-1.264
		l-2.366,1.242c-1.526,0.793-2.125,2.701-1.339,4.227c0,0,0.587,1.139,1.768,4.57l0.22,0.646c-0.028,0.596-0.382,1.44-0.788,1.883
		c-0.408,0.438-1.576,1.733-1.831,1.776l-0.245-0.005c-3.418-0.066-4.928-0.489-4.928-0.489c-1.656-0.47-3.419,0.497-3.92,2.141
		l-0.758,2.496c-0.501,1.645,0.424,3.427,2.061,3.961c0,0,1.25,0.41,4.536,2.033l0.177,0.089c0.151,0.116,0.297,0.68,0.332,1.251
		c0.033,0.572-0.036,2.546-0.354,3.146l-0.632,0.479c-2.887,2.189-4.011,2.811-4.011,2.811c-1.505,0.83-2.066,2.747-1.244,4.259
		l1.276,2.348c0.82,1.511,2.747,2.119,4.29,1.354c0,0,1.37-0.684,4.716-1.369l0.854-0.18c0.892,0.255,1.867,0.671,2.16,0.917
		c0.298,0.248,1.183,1.121,1.247,1.444l-0.003,0.312c-0.041,3.377-0.445,4.821-0.445,4.821c-0.464,1.654,0.501,3.419,2.145,3.919
		l2.623,0.799c1.645,0.499,3.429-0.427,3.961-2.06c0,0,0.396-1.191,2.012-4.423l0.101-0.2c0.138-0.169,0.666-0.321,1.185-0.338
		c0.516-0.019,2.563,0.086,3.419,0.372l0.598,0.604c2.386,2.434,3.148,3.77,3.148,3.77c0.855,1.491,2.799,2.063,4.318,1.264
		l2.371-1.244c1.519-0.794,2.123-2.7,1.335-4.225c0,0-0.585-1.139-1.769-4.574l-0.256-0.746c0.07-0.679,0.438-1.574,0.813-1.996
		c0.376-0.422,1.377-1.641,1.521-1.651L344.88,405.064z"/>
	<path fill="#FFFFFF" d="M269.19,359.771c0,12.386-10.078,22.461-22.462,22.461c-4.447,0-8.677-1.316-12.254-3.633l4.55-6.06
		c2.287,1.373,4.918,2.207,7.704,2.207c8.253,0,14.972-6.714,14.972-14.976h-7.486l11.23-14.976l11.229,14.976H269.19z
		 M216.777,359.771h7.487c0-12.387,10.075-22.462,22.464-22.462c4.443,0,8.678,1.315,12.245,3.632l-4.545,6.063
		c-2.287-1.375-4.919-2.208-7.7-2.208c-8.26,0-14.977,6.711-14.977,14.976h7.487l-11.232,14.976L216.777,359.771z M291.257,341.243
		c0.166-1.302,0.394-2.591,0.394-3.934c0-16.54-13.403-29.952-29.951-29.952c-9.784,0-18.389,4.761-23.85,12.021
		c-1.969-0.473-3.995-0.788-6.099-0.788c-14.479,0-26.207,11.726-26.207,26.206c0,0.412,0.104,0.774,0.121,1.186
		c-10.862,3.195-18.838,13.125-18.838,25.019c0,14.483,11.726,26.209,26.203,26.209h63.643c16.549,0,29.951-13.403,29.951-29.951
		C306.625,356.04,300.387,346.377,291.257,341.243"/>
	<path fill="#F37974" d="M393.128,460.343c17.685-17.684,26.398-40.988,26.156-64.212H406.31c0.24,19.9-7.207,39.882-22.359,55.034
		c-15.156,15.153-35.134,22.603-55.039,22.359v12.978C352.139,486.744,375.445,478.027,393.128,460.343"/>
	<path fill="#F37974" d="M378.373,445.589c13.616-13.616,20.298-31.577,20.056-49.458h-12.976
		c0.242,14.556-5.173,29.193-16.259,40.278c-11.084,11.085-25.722,16.501-40.282,16.258v12.976
		C346.796,465.885,364.758,459.204,378.373,445.589"/>
	<path fill="#F37974" d="M363.056,430.272c9.393-9.396,13.962-21.812,13.719-34.142h-12.987c0.249,9.01-3.053,18.098-9.912,24.959
		c-6.861,6.859-15.953,10.16-24.961,9.911l-0.003,12.989C341.247,444.235,353.663,439.665,363.056,430.272"/>
	<path fill="#F37974" d="M407.079,340.34c0,20.22-16.395,36.612-36.614,36.612S333.85,360.56,333.85,340.34
		c0-20.222,16.395-36.613,36.614-36.613S407.079,320.118,407.079,340.34"/>
	<path fill="#FFFFFF" d="M377.316,347.241v-0.099c0-1.404-0.777-2.182-3.478-2.962v5.711
		C376.225,349.631,377.316,348.749,377.316,347.241 M369.012,328.658c-2.547,0.206-3.532,1.247-3.532,2.595v0.104
		c0,1.35,0.728,2.128,3.532,2.908V328.658z M368.647,357.366c-5.088-0.52-10.12-2.339-14.015-5.141l4.673-6.902
		c3.321,2.333,6.436,3.737,9.654,4.257v-6.231c-8.359-1.92-12.614-4.775-12.614-11.213v-0.102c0-6.125,4.462-10.384,12.406-10.956
		v-2.957h5.398v3.113c4.257,0.468,7.838,1.921,10.951,4.05l-4.254,6.957c-2.132-1.506-4.622-2.544-6.959-3.116v6.022
		c8.256,1.921,12.41,4.88,12.41,11.315v0.104c0,6.332-4.882,10.228-12.252,10.901v5.088h-5.399V357.366z"/>
	<path fill="#FFFFFF" d="M428.391,322.136c0,9.417-7.634,17.052-17.054,17.052c-9.418,0-17.054-7.635-17.054-17.052
		s7.636-17.054,17.054-17.054C420.757,305.082,428.391,312.719,428.391,322.136"/>
	<polygon fill="#F37974" points="399.361,323.708 408.037,332.389 423.315,317.11 419.833,313.628 408.037,325.422 402.843,320.227 
			"/>
	<polygon fill="#FFFFFF" points="61.417,51.084 61.417,201.799 175.413,201.799 175.413,74.866 151.632,51.084 	"/>
	<polygon fill="#F37974" points="151.632,74.866 175.413,74.866 163.525,62.978 151.632,51.085 	"/>
	<polygon fill="#0D76BD" points="102.483,81.938 96.793,74.683 98.102,74.683 103.158,81.198 108.192,74.683 109.48,74.683 
		103.815,81.915 109.695,89.489 108.383,89.489 103.118,82.66 97.872,89.489 96.581,89.489 	"/>
	<polygon fill="#0D76BD" points="112.339,74.683 113.375,74.683 119.317,83.441 125.261,74.683 126.296,74.683 126.296,89.489 
		125.197,89.489 125.197,76.632 119.34,85.15 119.252,85.15 113.396,76.632 113.396,89.489 112.339,89.489 	"/>
	<polygon fill="#0D76BD" points="130.437,74.683 131.54,74.683 131.54,88.475 140.229,88.475 140.229,89.489 130.437,89.489 	"/>
	<path fill="#0D76BD" d="M86.65,103.857l-1.964-4.799l-1.968,4.799H86.65z M83.225,95.146h3.005l6.345,14.908h-3.406l-1.353-3.32
		h-6.26l-1.353,3.32H76.88L83.225,95.146z"/>
	<polygon fill="#0D76BD" points="94.412,95.251 97.415,95.251 104.352,104.365 104.352,95.251 107.566,95.251 107.566,110.055 
		104.792,110.055 97.625,100.646 97.625,110.055 94.412,110.055 	"/>
	<polygon fill="#0D76BD" points="109.392,95.251 112.989,95.251 116.861,105.674 120.727,95.251 124.238,95.251 118.252,110.161 
		115.378,110.161 	"/>
	<rect x="126.142" y="95.251" fill="#0D76BD" width="3.257" height="14.803"/>
	<path fill="#0D76BD" d="M131.724,107.899l1.924-2.305c1.332,1.096,2.728,1.796,4.42,1.796c1.333,0,2.138-0.526,2.138-1.396v-0.042
		c0-0.822-0.509-1.246-2.984-1.882c-2.983-0.763-4.905-1.584-4.905-4.525v-0.042c0-2.687,2.155-4.46,5.18-4.46
		c2.159,0,3.997,0.676,5.499,1.88l-1.692,2.454c-1.311-0.911-2.601-1.461-3.847-1.461c-1.249,0-1.905,0.571-1.905,1.289v0.043
		c0,0.973,0.633,1.291,3.196,1.946c3.001,0.782,4.693,1.862,4.693,4.441v0.041c0,2.942-2.24,4.593-5.434,4.593
		C135.761,110.268,133.5,109.483,131.724,107.899"/>
	<path fill="#0D76BD" d="M154.03,103.857l-1.968-4.799l-1.967,4.799H154.03z M150.602,95.146h3.003l6.348,14.908h-3.411l-1.351-3.32
		h-6.261l-1.354,3.32h-3.316L150.602,95.146z"/>
	<rect x="78.808" y="121.413" fill="#0D76BD" width="78.513" height="4.208"/>
	<rect x="78.808" y="128.25" fill="#0D76BD" width="78.513" height="4.204"/>
	<rect x="78.808" y="135.082" fill="#0D76BD" width="78.513" height="4.206"/>
	<rect x="78.808" y="141.915" fill="#0D76BD" width="78.513" height="4.207"/>
	<rect x="78.808" y="148.75" fill="#0D76BD" width="66.947" height="4.206"/>
	<rect x="78.808" y="175.398" fill="#0D76BD" width="34.749" height="4.207"/>
	<rect x="78.808" y="115.806" fill="#56ACCE" width="78.515" height="1.183"/>
	<rect x="78.808" y="181.865" fill="#56ACCE" width="63.315" height="1.181"/>
	<path fill="#F37974" d="M34.003,24.736c-9.846,9.85-14.701,22.822-14.564,35.758h7.227c-0.137-11.084,4.012-22.207,12.45-30.645
		c8.438-8.439,19.561-12.586,30.645-12.45v-7.227C56.826,10.038,43.849,14.886,34.003,24.736"/>
	<path fill="#F37974" d="M42.222,32.952c-7.583,7.58-11.304,17.584-11.167,27.542h7.224c-0.134-8.105,2.879-16.256,9.053-22.43
		c6.173-6.169,14.322-9.189,22.429-9.053v-7.224C59.801,21.65,49.803,25.371,42.222,32.952"/>
	<path fill="#F37974" d="M50.749,41.482c-5.23,5.229-7.775,12.141-7.639,19.013h7.232c-0.14-5.019,1.697-10.081,5.519-13.9
		c3.823-3.823,8.885-5.659,13.9-5.519v-7.234C62.892,33.706,55.98,36.251,50.749,41.482"/>
	<path fill="#F37974" d="M214.827,208.112c0,18.066-14.644,32.713-32.713,32.713c-18.064,0-32.712-14.647-32.712-32.713
		s14.647-32.711,32.712-32.711C200.183,175.401,214.827,190.046,214.827,208.112"/>
	<path fill="#FFFFFF" d="M199.872,208.108c0,9.794-7.969,17.766-17.766,17.766c-3.518,0-6.861-1.041-9.69-2.875l3.596-4.795
		c1.813,1.089,3.892,1.745,6.095,1.745c6.53,0,11.843-5.307,11.843-11.841h-5.919l8.882-11.845l8.882,11.845H199.872z
		 M158.417,208.108h5.925c0-9.796,7.969-17.767,17.765-17.767c3.516,0,6.862,1.042,9.686,2.875l-3.597,4.794
		c-1.807-1.087-3.884-1.747-6.089-1.747c-6.53,0-11.842,5.31-11.842,11.845h5.919l-8.882,11.841L158.417,208.108z"/>
	<text transform="matrix(1 0 0 1 468.6724 205.8726)" fill="#FFFFFF" font-family="'Gotham-Book'" font-size="14.9913"> </text>
</g>
</svg>
