<?xml version="1.0" encoding="utf-8"?>
<!-- Generator: Adobe Illustrator 16.0.0, SVG Export Plug-In . SVG Version: 6.00 Build 0)  -->
<!DOCTYPE svg PUBLIC "-//W3C//DTD SVG 1.1//EN" "http://www.w3.org/Graphics/SVG/1.1/DTD/svg11.dtd" [
	<!ENTITY ns_flows "http://ns.adobe.com/Flows/1.0/">
	<!ENTITY ns_extend "http://ns.adobe.com/Extensibility/1.0/">
	<!ENTITY ns_ai "http://ns.adobe.com/AdobeIllustrator/10.0/">
	<!ENTITY ns_graphs "http://ns.adobe.com/Graphs/1.0/">
]>
<svg version="1.1" id="Layer_1" xmlns:x="&ns_extend;" xmlns:i="&ns_ai;" xmlns:graph="&ns_graphs;"
	 xmlns="http://www.w3.org/2000/svg" xmlns:xlink="http://www.w3.org/1999/xlink" xmlns:a="http://ns.adobe.com/AdobeSVGViewerExtensions/3.0/"
	 x="0px" y="0px" width="72.4335938px" height="55.3398438px" viewBox="0 0 72.4335938 55.3398438"
	 enable-background="new 0 0 72.4335938 55.3398438" xml:space="preserve">
<g>
	<defs>
		<rect id="SVGID_1_" width="72.4335938" height="55.3398438"/>
	</defs>
	<clipPath id="SVGID_2_">
		<use xlink:href="#SVGID_1_"  overflow="visible"/>
	</clipPath>
	<g clip-path="url(#SVGID_2_)">
		<text transform="matrix(1 0 0 1 65.5634766 30.0048828)" font-family="'Gotham-Book'" font-size="9"> </text>
	</g>
	<g clip-path="url(#SVGID_2_)">
		<defs>
			<rect id="SVGID_3_" width="72.4335938" height="55.3398438"/>
		</defs>
		<clipPath id="SVGID_4_">
			<use xlink:href="#SVGID_3_"  overflow="visible"/>
		</clipPath>
		<g opacity="0.100006" clip-path="url(#SVGID_4_)">
			<g>
				<defs>
					<rect id="SVGID_5_" x="17.8808594" y="10.6816406" width="54.5527344" height="44.6582031"/>
				</defs>
				<clipPath id="SVGID_6_">
					<use xlink:href="#SVGID_5_"  overflow="visible"/>
				</clipPath>
				<g clip-path="url(#SVGID_6_)">
					<defs>
						<rect id="SVGID_7_" x="17.8808594" y="10.6816406" width="54.5527344" height="44.6582031"/>
					</defs>
					<clipPath id="SVGID_8_">
						<use xlink:href="#SVGID_7_"  overflow="visible"/>
					</clipPath>
					<defs>
						
							<filter id="Adobe_OpacityMaskFilter" filterUnits="userSpaceOnUse" x="17.8808594" y="10.6816406" width="54.5527344" height="44.6582031">
							<feColorMatrix  type="matrix" values="1 0 0 0 0  0 1 0 0 0  0 0 1 0 0  0 0 0 1 0"/>
						</filter>
					</defs>
					<mask maskUnits="userSpaceOnUse" x="17.8808594" y="10.6816406" width="54.5527344" height="44.6582031" id="SVGID_9_">
						<g filter="url(#Adobe_OpacityMaskFilter)">
							
								<rect x="17.8808594" y="10.6816406" clip-path="url(#SVGID_8_)"  a:adobe-opacity-share="1" width="54.5527344" height="44.6582031"/>
							<g  a:adobe-opacity-share="1" enable-background="new    ">
								<g  a:adobe-opacity-share="0">
									<defs>
										<rect id="SVGID_10_" x="17.8808594" y="10.6816406" width="54.5527344" height="44.6582031"/>
									</defs>
									<clipPath id="SVGID_11_" clip-path="url(#SVGID_8_)">
										<use xlink:href="#SVGID_10_"  overflow="visible"/>
									</clipPath>
									<g>
										<defs>
											
												<rect id="SVGID_12_" x="16.7464695" y="1.038517" transform="matrix(-0.2487057 -0.9685791 0.9685791 -0.2487057 24.4141006 84.9596558)" width="56.8215141" height="63.9454269"/>
										</defs>
										<clipPath id="SVGID_13_" clip-path="url(#SVGID_11_)">
											<use xlink:href="#SVGID_12_"  overflow="visible"/>
										</clipPath>
										
											<linearGradient id="SVGID_14_" gradientUnits="userSpaceOnUse" x1="0" y1="55.3398438" x2="1" y2="55.3398438" gradientTransform="matrix(4.3314881 16.8700314 -16.8700314 4.3314881 978.7333374 -206.7233887)">
											<stop  offset="0" style="stop-color:#FFFFFF"/>
											<stop  offset="0.91385" style="stop-color:#000000"/>
											<stop  offset="0.9260265" style="stop-color:#000000"/>
											<stop  offset="1" style="stop-color:#000000"/>
											<a:midPointStop  offset="0" style="stop-color:#FFFFFF"/>
											<a:midPointStop  offset="0.5" style="stop-color:#FFFFFF"/>
											<a:midPointStop  offset="0.91385" style="stop-color:#000000"/>
											<a:midPointStop  offset="0.13" style="stop-color:#000000"/>
											<a:midPointStop  offset="1" style="stop-color:#000000"/>
										</linearGradient>
										<polygon clip-path="url(#SVGID_13_)" fill="url(#SVGID_14_)"  a:adobe-opacity-share="1" points="-9.9633789,1.9291992 
											11.8286133,86.8037109 100.2783203,64.09375 78.4863281,-20.7807617 										"/>
									</g>
								</g>
							</g>
						</g>
					</mask>
					<g clip-path="url(#SVGID_8_)" mask="url(#SVGID_9_)"  a:adobe-opacity-share="1">
						<g  a:adobe-opacity-share="0">
							<defs>
								<rect id="SVGID_15_" x="17.8808594" y="10.6816406" width="54.5527344" height="44.6582031"/>
							</defs>
							<clipPath id="SVGID_16_">
								<use xlink:href="#SVGID_15_"  overflow="visible"/>
							</clipPath>
							<polygon clip-path="url(#SVGID_16_)"  a:adobe-opacity-share="1" points="24.8535156,17.4794922 27.6694336,20.3037109 
								21.0253906,23.9956055 27.3486328,30.3369141 26.4003906,38.1191406 18.8803711,41.9775391 31.8896484,54.3408203 
								71.4335938,54.3408203 29.1533203,11.6816406 							"/>
						</g>
					</g>
				</g>
			</g>
		</g>
		<path clip-path="url(#SVGID_4_)" fill="#F37974" d="M50.1152344,26.0288086h-1.9414063
			c0,6.121582-2.4746094,11.6459961-6.4853516,15.6586914c-4.0146484,4.0126953-9.5385742,6.4873047-15.6606445,6.4882813
			c-6.1220703-0.0009766-11.6459961-2.4755859-15.659668-6.4882813c-4.0112305-4.0126953-6.4863281-9.5371094-6.4873047-15.6586914
			c0.0009766-6.1220703,2.4760742-11.6459961,6.4873047-15.6601563c4.0136719-4.0117188,9.5375977-6.4868164,15.659668-6.487793
			c6.1210938,0.0009766,11.6459961,2.4760742,15.6606445,6.487793c4.0107422,4.0141602,6.4853516,9.5380859,6.4853516,15.6601563
			H50.1152344h1.9404297C52.0537109,11.6538086,40.4042969,0.0009766,26.027832,0
			C11.6518555,0.0009766,0.0019531,11.6538086,0,26.0288086c0.0019531,14.3754883,11.6518555,26.0258789,26.027832,26.027832
			c14.3764648-0.0019531,26.0258789-11.6523438,26.027832-26.027832H50.1152344z"/>
		<polygon clip-path="url(#SVGID_4_)" fill="#FFFFFF" points="33.1220703,37.4375 29.0693359,37.4375 29.0693359,23.980957 
			29.0693359,22.9052734 29.0693359,19.4541016 20.9760742,19.4541016 20.9760742,23.980957 22.9863281,23.980957 
			22.9863281,37.4375 18.9331055,37.4375 18.9331055,41.9638672 33.1220703,41.9638672 		"/>
		<path clip-path="url(#SVGID_4_)" fill="#FFFFFF" d="M29.8754883,13.9404297c0,2.1259766-1.7216797,3.8481445-3.8476563,3.8481445
			c-2.125,0-3.8481445-1.722168-3.8481445-3.8481445c0-2.125,1.7231445-3.8481445,3.8481445-3.8481445
			C28.1538086,10.0922852,29.8754883,11.8154297,29.8754883,13.9404297"/>
	</g>
</g>
</svg>
