<?xml version="1.0" encoding="utf-8"?>
<!-- Generator: Adobe Illustrator 16.0.0, SVG Export Plug-In . SVG Version: 6.00 Build 0)  -->
<!DOCTYPE svg PUBLIC "-//W3C//DTD SVG 1.1//EN" "http://www.w3.org/Graphics/SVG/1.1/DTD/svg11.dtd" [
	<!ENTITY ns_flows "http://ns.adobe.com/Flows/1.0/">
	<!ENTITY ns_extend "http://ns.adobe.com/Extensibility/1.0/">
	<!ENTITY ns_ai "http://ns.adobe.com/AdobeIllustrator/10.0/">
	<!ENTITY ns_graphs "http://ns.adobe.com/Graphs/1.0/">
]>
<svg version="1.1" id="Layer_1" xmlns:x="&ns_extend;" xmlns:i="&ns_ai;" xmlns:graph="&ns_graphs;"
	 xmlns="http://www.w3.org/2000/svg" xmlns:xlink="http://www.w3.org/1999/xlink" xmlns:a="http://ns.adobe.com/AdobeSVGViewerExtensions/3.0/"
	 x="0px" y="0px" width="73.579px" height="55.34px" viewBox="0 0 73.579 55.34" enable-background="new 0 0 73.579 55.34"
	 xml:space="preserve">
<g>
	<defs>
		<rect id="SVGID_1_" width="73.579" height="55.34"/>
	</defs>
	<clipPath id="SVGID_2_">
		<use xlink:href="#SVGID_1_"  overflow="visible"/>
	</clipPath>
	<g clip-path="url(#SVGID_2_)">
		<text transform="matrix(1 0 0 1 62.9482 30.0049)" font-family="'Gotham-Book'" font-size="9"> </text>
	</g>
	<g clip-path="url(#SVGID_2_)">
		<defs>
			<rect id="SVGID_3_" width="73.579" height="55.34"/>
		</defs>
		<clipPath id="SVGID_4_">
			<use xlink:href="#SVGID_3_"  overflow="visible"/>
		</clipPath>
		<g opacity="0.1" clip-path="url(#SVGID_4_)">
			<g>
				<defs>
					<rect id="SVGID_5_" x="21.171" y="12.777" width="52.408" height="42.563"/>
				</defs>
				<clipPath id="SVGID_6_">
					<use xlink:href="#SVGID_5_"  overflow="visible"/>
				</clipPath>
				<g clip-path="url(#SVGID_6_)">
					<defs>
						<rect id="SVGID_7_" x="21.171" y="12.777" width="52.408" height="42.563"/>
					</defs>
					<clipPath id="SVGID_8_">
						<use xlink:href="#SVGID_7_"  overflow="visible"/>
					</clipPath>
					<defs>
						<filter id="Adobe_OpacityMaskFilter" filterUnits="userSpaceOnUse" x="21.171" y="12.777" width="52.408" height="42.563">
							<feColorMatrix  type="matrix" values="1 0 0 0 0  0 1 0 0 0  0 0 1 0 0  0 0 0 1 0"/>
						</filter>
					</defs>
					<mask maskUnits="userSpaceOnUse" x="21.171" y="12.777" width="52.408" height="42.563" id="SVGID_9_">
						<g filter="url(#Adobe_OpacityMaskFilter)">
							<rect x="21.171" y="12.777" clip-path="url(#SVGID_8_)"  a:adobe-opacity-share="1" width="52.408" height="42.563"/>
							<g  a:adobe-opacity-share="1" enable-background="new    ">
								<g  a:adobe-opacity-share="0">
									<defs>
										<rect id="SVGID_10_" x="21.171" y="12.777" width="52.408" height="42.563"/>
									</defs>
									<clipPath id="SVGID_11_" clip-path="url(#SVGID_8_)">
										<use xlink:href="#SVGID_10_"  overflow="visible"/>
									</clipPath>
									<g>
										<defs>
											
												<rect id="SVGID_12_" x="20.245" y="3.385" transform="matrix(-0.2487 -0.9686 0.9686 -0.2487 26.1676 88.4147)" width="54.26" height="61.346"/>
										</defs>
										<clipPath id="SVGID_13_" clip-path="url(#SVGID_11_)">
											<use xlink:href="#SVGID_12_"  overflow="visible"/>
										</clipPath>
										
											<linearGradient id="SVGID_14_" gradientUnits="userSpaceOnUse" x1="0" y1="55.3398" x2="1" y2="55.3398" gradientTransform="matrix(4.3315 16.87 -16.87 4.3315 980.6318 -206.9265)">
											<stop  offset="0" style="stop-color:#FFFFFF"/>
											<stop  offset="0.9139" style="stop-color:#000000"/>
											<stop  offset="0.926" style="stop-color:#000000"/>
											<stop  offset="1" style="stop-color:#000000"/>
											<a:midPointStop  offset="0" style="stop-color:#FFFFFF"/>
											<a:midPointStop  offset="0.5" style="stop-color:#FFFFFF"/>
											<a:midPointStop  offset="0.9139" style="stop-color:#000000"/>
											<a:midPointStop  offset="0.13" style="stop-color:#000000"/>
											<a:midPointStop  offset="1" style="stop-color:#000000"/>
										</linearGradient>
										<polygon clip-path="url(#SVGID_13_)" fill="url(#SVGID_14_)"  a:adobe-opacity-share="1" points="-5.416,4.347 
											15.427,85.527 100.165,63.77 79.321,-17.41 										"/>
									</g>
								</g>
							</g>
						</g>
					</mask>
					<g clip-path="url(#SVGID_8_)" mask="url(#SVGID_9_)"  a:adobe-opacity-share="1">
						<g  a:adobe-opacity-share="0">
							<defs>
								<rect id="SVGID_15_" x="21.171" y="12.777" width="52.408" height="42.563"/>
							</defs>
							<clipPath id="SVGID_16_">
								<use xlink:href="#SVGID_15_"  overflow="visible"/>
							</clipPath>
							<polygon clip-path="url(#SVGID_16_)"  a:adobe-opacity-share="1" points="26,17.479 28.816,20.304 22.17,23.997 
								29.594,34.059 22.705,36.992 22.578,40.182 33.036,54.341 72.579,54.341 32.655,13.776 							"/>
						</g>
					</g>
				</g>
			</g>
		</g>
		<path clip-path="url(#SVGID_4_)" fill="#F37974" d="M50.115,26.028h-1.941c0,6.123-2.475,11.646-6.485,15.659
			c-4.015,4.013-9.54,6.487-15.662,6.488c-6.121-0.001-11.646-2.476-15.66-6.488c-4.01-4.013-6.485-9.536-6.486-15.659
			c0.001-6.122,2.476-11.646,6.486-15.66c4.014-4.011,9.539-6.486,15.66-6.487c6.122,0.001,11.647,2.476,15.662,6.487
			c4.011,4.014,6.485,9.538,6.485,15.66H50.115h1.94C52.054,11.653,40.403,0.002,26.027,0C11.652,0.002,0.001,11.653,0,26.028
			c0.001,14.375,11.652,26.026,26.027,26.028c14.377-0.002,26.027-11.652,26.029-26.028H50.115z"/>
		<path clip-path="url(#SVGID_4_)" fill="#FFFFFF" d="M29.382,33.892h-6.63c-0.385,0-0.697,0.433-0.697,0.818
			c0,0.384,0.312,0.817,0.697,0.817h2.221l-2.432,0.771c-0.366,0.119-0.566,0.502-0.449,0.87c0.097,0.293,0.37,0.476,0.663,0.476
			l0.216-0.037l6.625-2.149c0.327-0.106,0.527-0.535,0.474-0.875C30.017,34.243,29.724,33.892,29.382,33.892"/>
		<path clip-path="url(#SVGID_4_)" fill="#FFFFFF" d="M30.036,36.748c-0.119-0.365-0.511-0.635-0.878-0.518l-6.621,2.116
			c-0.326,0.105-0.527,0.796-0.473,1.136c0.053,0.34,0.345,0.951,0.688,0.951h0.602l1.053,0.546h3.286l1.07-0.546h0.61
			c0.385,0,0.697-0.432,0.697-0.816s-0.312-0.818-0.697-0.818h-2.215l2.431-1.049C29.955,37.631,30.156,37.115,30.036,36.748"/>
		<path clip-path="url(#SVGID_4_)" fill="#FFFFFF" d="M21.936,15.487c-0.088,0.064-2.08,1.525-2.031,4.063
			c0.009,0.385-0.297,0.709-0.682,0.709h-0.014c-0.379,0-0.689-0.301-0.697-0.681c-0.065-3.294,2.508-5.152,2.618-5.229
			c0.314-0.222,0.749-0.146,0.971,0.167C22.323,14.829,22.249,15.265,21.936,15.487 M26.068,10.854
			c-5.193,0.004-9.408,4.215-9.408,9.409c0,2.495,1.271,4.61,2.556,6.541c2.842,4.269,1.227,6.542,2.868,6.542h3.979h4
			c1.64,0,0.022-2.273,2.865-6.542c1.285-1.931,2.553-3.999,2.553-6.495C35.481,15.117,31.261,10.858,26.068,10.854"/>
	</g>
</g>
</svg>
