<?xml version="1.0" encoding="UTF-8" standalone="no"?>
<!-- Generator: Adobe Illustrator 16.0.0, SVG Export Plug-In . SVG Version: 6.00 Build 0)  -->
<!DOCTYPE svg  PUBLIC '-//W3C//DTD SVG 1.1//EN'  'http://www.w3.org/Graphics/SVG/1.1/DTD/svg11.dtd'>
<svg id="Layer_1" xmlns="http://www.w3.org/2000/svg" xml:space="preserve" height="63.598px" viewBox="0 0 150.621 63.598" width="150.62px" version="1.1" y="0px" x="0px" xmlns:xlink="http://www.w3.org/1999/xlink" enable-background="new 0 0 150.621 63.598">
<rect width="150.62" height="63.598" fill="#0D76BD"/>
	<defs>
		<rect id="SVGID_1_" width="150.62" height="63.598"/>
	</defs>
	<clipPath id="SVGID_2_">
		<use overflow="visible" xlink:href="#SVGID_1_"/>
	</clipPath>
	<path fill="#fff" d="m34.059 30.504c5.19 0 8.165-2.766 8.165-6.851v-0.138c0-4.564-3.182-6.919-8.372-6.919h-10.587v13.908h10.794zm-21.444-23.523h22.137c6.158 0 10.93 1.729 14.112 4.912 2.7 2.697 4.153 6.501 4.153 11.071v0.138c0 7.816-4.219 12.727-10.378 15.011l11.83 17.296h-12.453l-10.379-15.497h-8.372v15.497h-10.65v-48.428z" clip-path="url(#SVGID_2_)"/>
	<path fill="#A7A9AC" d="m80.061 19.086v-0.136c0-2.767-1.866-4.5-4.565-4.5-2.837 0-4.705 2.008-4.705 4.913v0.14c0 2.146 0.831 3.735 2.836 6.019 4.22-1.592 6.434-3.392 6.434-6.436m-0.555 25.53l-9.268-9.41c-3.184 1.664-4.499 4.014-4.499 6.365v0.139c0 3.393 2.838 5.674 6.779 5.674 2.425-0.001 4.775-1.04 6.988-2.768m5.95 6.087c-3.943 3.252-8.576 5.398-14.181 5.398-9.272 0-16.257-5.398-16.257-13.976v-0.137c0-6.16 3.317-10.519 9.408-13.283-2.355-3.321-3.391-6.368-3.391-9.689v-0.136c0-6.64 5.329-12.729 14.668-12.729 8.232 0 13.628 5.394 13.628 12.177v0.139c0 6.502-4.149 10.307-10.168 12.66l6.432 6.431c1.592-2.486 3.182-5.324 4.705-8.3l7.818 4.29c-1.867 3.389-3.943 6.989-6.365 10.239l7.127 7.126-7.819 5.464-5.605-5.674z" clip-path="url(#SVGID_2_)"/>
	<path fill="#fff" d="m125.51 46.07c4.704 0 7.541-1.663 7.541-5.256v-0.141c0-3.253-2.423-5.262-7.887-5.262h-12.316v10.659h12.67zm-2.84-19.51c4.704 0 7.68-1.523 7.68-5.118v-0.14c0-3.184-2.488-4.981-6.986-4.981h-10.519v10.239h9.83zm-20.2-19.579h22.484c5.536 0 9.894 1.522 12.661 4.29 2.215 2.213 3.321 4.913 3.321 8.233v0.136c0 5.466-2.906 8.51-6.367 10.448 5.604 2.145 9.065 5.395 9.065 11.9v0.138c0 8.854-7.195 13.283-18.127 13.283h-23.038v-48.428z" clip-path="url(#SVGID_2_)"/>
</svg>
